<?xml version="1.0" encoding="UTF-8" standalone="no"?>
<svg width="1440px" height="395px" viewBox="0 0 1440 395" version="1.1" xmlns="http://www.w3.org/2000/svg" xmlns:xlink="http://www.w3.org/1999/xlink">
    <!-- Generator: Sketch 47.1 (45422) - http://www.bohemiancoding.com/sketch -->
    <title>Fill 1 Copy</title>
    <desc>Created with Sketch.</desc>
    <defs></defs>
    <g id="Features" stroke="none" stroke-width="1" fill="none" fill-rule="evenodd">
        <path d="M0.0059635072,394.429932 C0.00198783573,334.988195 0,295.780594 0,276.807129 C7.51017238,277.760677 16.9545123,283.051927 22.1297657,285.998532 C48.1011107,300.786528 75.2624338,312.285082 104.92181,317.444638 C135.996349,322.850078 166.354299,319.840504 196.232856,310.416967 C227.129248,300.669583 255.482551,285.471781 283.435525,269.468361 C314.686209,251.575835 345.546572,232.98364 378.101328,217.457994 C416.767106,199.017727 457.026193,185.866956 499.820365,181.523013 C519.405461,179.532956 539.058613,179.683884 558.738788,180.947286 C575.689719,182.03577 592.620634,183.406121 609.582575,184.378661 C643.534479,186.323739 677.498393,187.825028 711.493332,187.090376 C788.397537,185.429163 863.966645,175.439894 936.942622,149.827025 C980.842702,134.419322 1022.62704,114.536739 1062.77204,91.1378209 C1087.99076,76.4387826 1112.54194,60.7002366 1136.54067,44.0741111 C1170.37747,20.631214 1207.93834,6.9087132 1248.80393,2.20793956 C1292.84313,-2.85766129 1336.29984,1.12245366 1379.38925,10.7808793 C1399.58685,15.3077353 1428.41064,24.2543945 1440,27.779541 C1440,27.779541 1440,149.996338 1440,394.429932 L0.0059635072,394.429932 Z" id="Fill-1-Copy" fill="#F8F8F8"></path>
    </g>
</svg>