<?xml version="1.0" encoding="utf-8"?>
<!-- Generator: Adobe Illustrator 19.2.1, SVG Export Plug-In . SVG Version: 6.00 Build 0)  -->
<svg version="1.1" id="Layer_1" xmlns="http://www.w3.org/2000/svg" xmlns:xlink="http://www.w3.org/1999/xlink" x="0px" y="0px"
	 viewBox="0 0 218.9 259.9" style="enable-background:new 0 0 218.9 259.9;" xml:space="preserve">
<style type="text/css">
	.st0{fill:#FFFFFF;}
</style>
<path class="st0" d="M195.7,90.8L130,52.9c-0.8-0.4-1.6-0.4-2.4,0L62.2,90.7c-0.1,0.1-0.1,0.1-0.2,0.1h-0.1l-0.4,0.1
	c-0.8,0.5-1.3,1.2-1.4,2.1v76.1c0.1,0.9,0.6,1.7,1.4,2.1l66.1,38.1c0.4,0.2,0.8,0.3,1.2,0.3c0.5,0,1.1-0.1,1.6-0.3l66.2-38.1
	c0.8-0.4,1.9-1.3,1.9-2.1V93c0-0.9-1.2-1.6-1.9-2.1L195.7,90.8z M128.8,57.8l21.5,12.4l-60.8,35.1L68,92.9L128.8,57.8z M127.7,203.1
	l-61.2-35.3V96.9l19.2,12.7v24.6l3.4-1.4l5.9,6h5l1.9,2.8v-23.8l25.8,14.5C127.7,132.3,127.7,203.1,127.7,203.1z M128.8,128.1
	l-26.2-15.2l60.8-35.1L189.6,93L128.8,128.1z M192.1,167.7L130.9,203v-70.8l61.2-35.3V167.7z"/>
<path class="st0" d="M210.4,213.9c-39.7,39.7-102.1,45.4-148.3,13.4C9.3,190.8-3.9,118.4,32.6,65.6c33.9-49,98.8-63.9,150.1-36.6
	l-11.2,18.5c-0.2,0.3-0.2,0.7,0,1c0.2,0.2,0.5,0.4,0.8,0.4h0.1l44.8-5.8c0.3,0,0.6-0.2,0.7-0.4c0.2-0.2,0.2-0.5,0.1-0.8L201.8,0.6
	c-0.1-0.1-0.2-0.3-0.3-0.4c-0.4-0.3-1.1-0.3-1.4,0.2l-11.2,18.4c-18.6-10-39.4-15.3-60.7-15.3C57.4,3.5,0,60.9,0,131.7
	s57.3,128.2,128.1,128.2c34.1,0.1,66.8-13.5,90.8-37.6L210.4,213.9z"/>
</svg>
