<?xml version="1.0" encoding="UTF-8"?>
<svg width="1440px" height="579px" viewBox="0 0 1440 579" version="1.1" xmlns="http://www.w3.org/2000/svg" xmlns:xlink="http://www.w3.org/1999/xlink">
    <!-- Generator: Sketch 47.1 (45422) - http://www.bohemiancoding.com/sketch -->
    <title>Fill 1</title>
    <desc>Created with Sketch.</desc>
    <defs></defs>
    <g id="Homepage" stroke="none" stroke-width="1" fill="none" fill-rule="evenodd">
        <g transform="translate(0.000000, -415.000000)" id="Fill-1" fill="#F8F8F8">
            <path d="M1440,991.59819 C1410.70608,1006.13197 1201.45626,904.887254 975.502465,904.887254 C732.325047,904.887254 636.677978,988.84618 440.402393,988.84618 C244.126808,988.84618 122.560784,950.144533 0,950.144533 C0.103040332,761.376272 0,879.730306 0,690.961046 C7.50693834,691.914047 15.1408178,696.889652 20.3138426,699.834567 C46.2740038,714.614085 73.4236306,726.106047 103.070235,731.262646 C134.131393,736.664986 164.47627,733.657137 194.34196,724.239003 C225.225048,714.497208 253.566141,699.308119 281.507078,683.313873 C312.744305,665.431605 343.591379,646.85007 376.132116,631.333324 C414.781244,612.903629 455.022995,599.760397 497.798738,595.418945 C517.375401,593.430028 537.02009,593.58087 556.69179,594.843548 C573.635422,595.931408 590.559046,597.300973 607.513682,598.272955 C641.450966,600.216919 675.400254,601.717347 709.380555,600.983116 C786.251643,599.322855 861.788209,589.339313 934.732761,563.741128 C978.613937,548.342259 1020.38028,528.471074 1060.50799,505.085571 C1085.71586,490.39496 1110.25646,474.665437 1134.24485,458.048843 C1168.06709,434.619386 1210.75699,421.963704 1251.60498,417.265625 C1295.62521,412.202928 1341.664,420.055608 1384.73486,429.708496 C1404.92377,434.232757 1423.89872,441.100309 1440,447.836823 C1440,501.466797 1440,952.117188 1440,991.59819 Z"></path>
        </g>
    </g>
</svg>