<?xml version="1.0" encoding="UTF-8"?>
<svg width="97px" height="36px" viewBox="0 0 97 36" version="1.1" xmlns="http://www.w3.org/2000/svg" xmlns:xlink="http://www.w3.org/1999/xlink">
    <!-- Generator: Sketch 47.1 (45422) - http://www.bohemiancoding.com/sketch -->
    <title>Dr. Axe</title>
    <desc>Created with Sketch.</desc>
    <defs></defs>
    <g id="Homepage" stroke="none" stroke-width="1" fill="none" fill-rule="evenodd" opacity="0.701492537">
        <g transform="translate(-915.000000, -795.000000)" id="Shopify-Stores" fill-rule="nonzero" fill="#8E8F8E">
            <g transform="translate(205.000000, 776.000000)">
                <g id="Logos">
                    <g id="Dr.-Axe" transform="translate(710.000000, 19.000000)">
                        <path d="M0,0.312546584 L7.0325,0.312546584 C14.065,0.312546584 19.1575,4.84447205 19.1575,11.4079503 C19.1575,17.9714286 14.1458333,22.503354 7.0325,22.503354 L0,22.503354 L0,0.312546584 Z M6.87083333,18.5183851 C11.9633333,18.5183851 14.3075,15.5491925 14.3075,11.4079503 C14.3075,7.26670807 11.9633333,4.29751553 6.87083333,4.29751553 L4.76916667,4.29751553 L4.76916667,18.5183851 L6.87083333,18.5183851 Z" id="Shape"></path>
                        <path d="M22.2291667,8.51689441 L26.8366667,8.51689441 L26.7558333,11.0172671 C27.8066667,8.75130435 29.5041667,8.20434783 31.04,8.20434783 C32.01,8.20434783 32.7375,8.43875776 33.3033333,8.75130435 L31.8483333,12.8144099 C31.2825,12.58 30.7166667,12.4237267 30.07,12.4237267 C27.9683333,12.4237267 26.8366667,13.3613665 26.8366667,16.330559 L26.8366667,22.5814907 L22.2291667,22.5814907 L22.2291667,8.51689441 L22.2291667,8.51689441 Z" id="Shape"></path>
                        <path d="M30.7166667,20.8624845 C30.7166667,19.7685714 31.6058333,19.0653416 32.5758333,19.0653416 C33.5458333,19.0653416 34.435,19.8467081 34.435,20.8624845 C34.435,21.9563975 33.5458333,22.6596273 32.5758333,22.6596273 C31.6058333,22.6596273 30.7166667,21.9563975 30.7166667,20.8624845" id="Shape"></path>
                        <path d="M52.2183333,0 L52.6225,0 L63.2116667,22.5814907 L58.2,22.5814907 L57.1491667,20.081118 L47.7725,20.081118 L46.7216667,22.5814907 L42.0333333,22.5814907 L52.2183333,0 Z M55.4516667,16.1742857 L52.38,9.14198758 L49.3891667,16.1742857 L55.4516667,16.1742857 Z" id="Shape"></path>
                        <polygon id="Shape" points="69.7591667 15.236646 64.8283333 8.51689441 70.2441667 8.51689441 72.5883333 11.8767702 74.7708333 8.51689441 79.6208333 8.51689441 74.8516667 14.8459627 80.4291667 22.5814907 75.0133333 22.5814907 72.0225 18.2839752 69.0316667 22.5814907 64.1816667 22.5814907"></polygon>
                        <path d="M89.5633333,19.1434783 C91.2608333,19.1434783 92.4733333,18.5183851 93.2008333,18.0495652 L95.7875,20.7843478 C94.4133333,21.9563975 92.635,22.8940373 89.5633333,22.8940373 C84.39,22.8940373 81.0758333,19.8467081 81.0758333,15.5491925 C81.0758333,11.3298137 84.5516667,8.28248447 89.0783333,8.28248447 C94.2516667,8.28248447 97.0808333,12.0330435 96.7575,16.9556522 L85.7641667,16.9556522 C86.2491667,18.3621118 87.4616667,19.1434783 89.5633333,19.1434783 L89.5633333,19.1434783 Z M92.15,14.3771429 C91.9075,12.8144099 90.9375,11.8767702 89.1591667,11.8767702 C87.3808333,11.8767702 86.1683333,12.6581366 85.7641667,14.3771429 L92.15,14.3771429 Z" id="Shape"></path>
                        <polygon id="Shape" points="1.455 31.0202484 1.455 32.1922981 4.20333333 32.1922981 4.20333333 33.2862112 1.455 33.2862112 1.455 35.4740373 0.161666667 35.4740373 0.161666667 29.9263354 4.6075 29.9263354 4.6075 31.0202484"></polygon>
                        <path d="M9.86166667,35.5521739 C8.08333333,35.5521739 6.79,34.3019876 6.79,32.661118 L6.79,32.661118 C6.79,31.0983851 8.08333333,29.7700621 9.86166667,29.7700621 C11.64,29.7700621 12.9333333,31.0202484 12.9333333,32.661118 L12.9333333,32.661118 C12.9333333,34.3019876 11.64,35.5521739 9.86166667,35.5521739 L9.86166667,35.5521739 Z M11.64,32.661118 C11.64,31.7234783 10.9125,30.9421118 9.86166667,30.9421118 C8.81083333,30.9421118 8.16416667,31.7234783 8.16416667,32.661118 L8.16416667,32.661118 C8.16416667,33.5987578 8.89166667,34.3801242 9.9425,34.3801242 C10.9125,34.4582609 11.64,33.6768944 11.64,32.661118 L11.64,32.661118 Z" id="Shape"></path>
                        <path d="M18.3491667,35.5521739 C16.5708333,35.5521739 15.2775,34.3019876 15.2775,32.661118 L15.2775,32.661118 C15.2775,31.0983851 16.5708333,29.7700621 18.3491667,29.7700621 C20.1275,29.7700621 21.4208333,31.0202484 21.4208333,32.661118 L21.4208333,32.661118 C21.4208333,34.3019876 20.1275,35.5521739 18.3491667,35.5521739 L18.3491667,35.5521739 Z M20.0466667,32.661118 C20.0466667,31.7234783 19.3191667,30.9421118 18.2683333,30.9421118 C17.2175,30.9421118 16.5708333,31.7234783 16.5708333,32.661118 L16.5708333,32.661118 C16.5708333,33.5987578 17.2983333,34.3801242 18.3491667,34.3801242 C19.4,34.4582609 20.0466667,33.6768944 20.0466667,32.661118 L20.0466667,32.661118 Z" id="Shape"></path>
                        <path d="M26.2708333,35.4740373 L24.0075,35.4740373 L24.0075,29.9263354 L26.2708333,29.9263354 C28.0491667,29.9263354 29.3425,31.0983851 29.3425,32.661118 L29.3425,32.661118 C29.3425,34.2238509 28.0491667,35.4740373 26.2708333,35.4740373 L26.2708333,35.4740373 Z M27.9683333,32.661118 C27.9683333,31.6453416 27.2408333,31.0202484 26.2708333,31.0202484 L25.3008333,31.0202484 L25.3008333,34.3801242 L26.2708333,34.3801242 C27.3216667,34.3801242 27.9683333,33.6768944 27.9683333,32.661118 L27.9683333,32.661118 Z" id="Shape"></path>
                        <rect id="Rectangle-path" x="34.3541667" y="29.8481988" width="1" height="3.67242236"></rect>
                        <path d="M38.5575,33.5987578 C37.9916667,33.5987578 37.4258333,33.4424845 36.9408333,32.9736646 L37.4258333,32.4267081 C37.7491667,32.7392547 38.1533333,32.895528 38.5575,32.895528 C38.8808333,32.895528 39.1233333,32.7392547 39.1233333,32.5829814 L39.1233333,32.5829814 C39.1233333,32.3485714 38.9616667,32.2704348 38.315,32.1141615 C37.5066667,31.9578882 37.0216667,31.7234783 37.0216667,30.9421118 L37.0216667,30.9421118 C37.0216667,30.238882 37.5875,29.8481988 38.3958333,29.8481988 C38.9616667,29.8481988 39.4466667,30.004472 39.8508333,30.3170186 L39.4466667,30.9421118 C39.1233333,30.7077019 38.8,30.5514286 38.4766667,30.5514286 C38.1533333,30.5514286 37.9916667,30.7077019 37.9916667,30.8639752 L37.9916667,30.8639752 C37.9916667,31.0983851 38.1533333,31.1765217 38.8,31.332795 C39.6083333,31.567205 40.0125,31.8016149 40.0125,32.4267081 L40.0125,32.4267081 C39.9316667,33.2080745 39.3658333,33.5987578 38.5575,33.5987578" id="Shape"></path>
                        <polygon id="Shape" points="49.5508333 35.4740373 49.5508333 31.8016149 47.9341667 34.2238509 47.9341667 34.2238509 46.3175 31.8797516 46.3175 35.4740373 45.0241667 35.4740373 45.0241667 29.9263354 46.3983333 29.9263354 47.9341667 32.2704348 49.47 29.9263354 50.8441667 29.9263354 50.8441667 35.4740373"></polygon>
                        <polygon id="Shape" points="53.6733333 35.4740373 53.6733333 29.9263354 58.0383333 29.9263354 58.0383333 31.0202484 54.9666667 31.0202484 54.9666667 32.1141615 57.6341667 32.1141615 57.6341667 33.2080745 54.9666667 33.2080745 54.9666667 34.3801242 58.0383333 34.3801242 58.0383333 35.4740373"></polygon>
                        <path d="M62.8883333,35.4740373 L60.625,35.4740373 L60.625,29.9263354 L62.8883333,29.9263354 C64.6666667,29.9263354 65.96,31.0983851 65.96,32.661118 L65.96,32.661118 C65.96,34.2238509 64.7475,35.4740373 62.8883333,35.4740373 L62.8883333,35.4740373 Z M64.6666667,32.661118 C64.6666667,31.6453416 63.9391667,31.0202484 62.9691667,31.0202484 L61.9991667,31.0202484 L61.9991667,34.3801242 L62.9691667,34.3801242 C63.9391667,34.3801242 64.6666667,33.6768944 64.6666667,32.661118 L64.6666667,32.661118 Z" id="Shape"></path>
                        <rect id="Rectangle-path" x="68.6275" y="29.9263354" width="1.29333333" height="5.54770186"></rect>
                        <path d="M75.4983333,35.5521739 C73.8008333,35.5521739 72.5075,34.3019876 72.5075,32.661118 L72.5075,32.661118 C72.5075,31.0983851 73.72,29.7700621 75.4983333,29.7700621 C76.5491667,29.7700621 77.1958333,30.0826087 77.7616667,30.6295652 L76.9533333,31.4890683 C76.4683333,31.0983851 76.0641667,30.8639752 75.4983333,30.8639752 C74.5283333,30.8639752 73.8008333,31.6453416 73.8008333,32.5829814 L73.8008333,32.5829814 C73.8008333,33.5206211 74.4475,34.3019876 75.4983333,34.3019876 C76.145,34.3019876 76.5491667,34.0675776 77.0341667,33.6768944 L77.8425,34.4582609 C77.2766667,35.1614907 76.63,35.5521739 75.4983333,35.5521739" id="Shape"></path>
                        <rect id="Rectangle-path" x="80.4291667" y="29.9263354" width="1.29333333" height="5.54770186"></rect>
                        <polygon id="Shape" points="88.6741667 35.4740373 85.845 31.9578882 85.845 35.4740373 84.6325 35.4740373 84.6325 29.9263354 85.7641667 29.9263354 88.5125 33.3643478 88.5125 29.9263354 89.725 29.9263354 89.725 35.4740373"></polygon>
                        <polygon id="Shape" points="92.635 35.4740373 92.635 29.9263354 96.9191667 29.9263354 96.9191667 31.0202484 93.8475 31.0202484 93.8475 32.1141615 96.5958333 32.1141615 96.5958333 33.2080745 93.8475 33.2080745 93.8475 34.3801242 97 34.3801242 97 35.4740373"></polygon>
                        <rect id="Rectangle-path" x="33.95" y="34.9270807" width="6.14333333" height="1"></rect>
                        <rect id="Rectangle-path" x="33.95" y="34.8489441" width="6.22416667" height="1"></rect>
                    </g>
                </g>
            </g>
        </g>
    </g>
</svg>