<?xml version="1.0" encoding="UTF-8"?>
<svg width="114px" height="46px" viewBox="0 0 114 46" version="1.1" xmlns="http://www.w3.org/2000/svg" xmlns:xlink="http://www.w3.org/1999/xlink">
    <!-- Generator: Sketch 47.1 (45422) - http://www.bohemiancoding.com/sketch -->
    <title>Hubble</title>
    <desc>Created with Sketch.</desc>
    <defs></defs>
    <g id="Homepage" stroke="none" stroke-width="1" fill="none" fill-rule="evenodd" opacity="0.701492537">
        <g transform="translate(-436.000000, -790.000000)" id="Shopify-Stores" fill-rule="nonzero" fill="#8E8F8E">
            <g transform="translate(205.000000, 776.000000)">
                <g id="Logos">
                    <g id="Hubble" transform="translate(231.000000, 14.000000)">
                        <path d="M0,14.5263158 C0.0970912681,14.5375244 0.194182536,14.5375244 0.280485886,14.5375244 C1.06800395,14.5375244 1.86630993,14.5375244 2.66461591,14.5375244 L2.96667764,14.5375244 L2.96667764,20.7022417 L10.086704,20.7022417 L10.086704,14.5599415 L12.9778662,14.5599415 C13.0318058,14.7616959 13.0533816,29.4785575 12.9886541,29.8484405 L10.1082798,29.8484405 C10.086704,29.5121832 10.0974919,29.1647173 10.0974919,28.8172515 C10.0974919,28.4697856 10.0974919,28.1223197 10.0974919,27.7636452 L10.0974919,23.6052632 C9.88173351,23.5492203 3.32267895,23.5268031 2.98825347,23.5940546 C2.98825347,24.2777778 2.98825347,24.9727096 2.98825347,25.6676413 C2.98825347,26.3625731 2.98825347,27.0462963 2.98825347,27.7412281 L2.98825347,29.8596491 L0,29.8596491 L0,14.5263158 L0,14.5263158 Z" id="Shape"></path>
                        <path d="M114,29.8596491 C113.888443,29.8596491 113.76573,29.8596491 113.654172,29.8596491 L102.654621,29.8596491 C102.598842,29.6578163 102.576531,14.957657 102.632309,14.5764172 C102.821957,14.5203525 113.453369,14.5091396 113.854975,14.5539913 C113.910754,14.7446112 113.933066,16.9087079 113.877287,17.3123736 C113.497992,17.3235865 113.107541,17.3123736 112.717091,17.3235865 C112.32664,17.3347995 111.93619,17.3235865 111.534583,17.3235865 L105.68898,17.3235865 C105.622046,17.5366323 105.61089,20.3286534 105.666668,20.7211062 C106.313701,20.754745 106.960733,20.7323191 107.607766,20.7323191 C108.254798,20.7323191 108.924142,20.7323191 109.593486,20.7323191 L113.509148,20.7323191 L113.509148,23.5243402 L105.655513,23.5243402 L105.655513,27.0339892 C105.722447,27.0452022 105.789382,27.0564151 105.867472,27.0564151 L113.899598,27.0564151 C113.933066,27.0564151 113.966533,27.0452022 114,27.0452022 L114,29.8596491 L114,29.8596491 Z" id="Shape"></path>
                        <path d="M28.168845,46 C28.1145573,45.9785328 28.0602696,45.9570656 28.0059819,45.946332 C26.2253452,45.6779921 25.0093006,44.0357518 25.2807391,42.275442 C25.5521777,40.5151321 27.2133814,39.3129693 28.9940181,39.5813092 C30.7746548,39.8496491 31.9906994,41.4918894 31.7192609,43.2521993 C31.50211,44.6368332 30.4054984,45.7316601 28.9940181,45.946332 C28.9288729,45.9570656 28.8637276,45.9785328 28.7985824,46 L28.168845,46 L28.168845,46 Z" id="Shape"></path>
                        <path d="M69.5439158,0 C69.6443626,0.0330583901 69.7448094,0.0771362436 69.8340954,0.0991751704 C71.1399041,0.440778535 71.9211571,1.76311414 71.5751736,3.05239135 C71.2291901,4.34166857 69.8898992,5.10201154 68.5840906,4.76040818 C67.278282,4.41880481 66.5081897,3.09646921 66.8541732,1.80719199 C67.0773883,0.98073224 67.7247123,0.341603365 68.5506083,0.110194634 C68.6733767,0.0771362436 68.7849842,0.0330583901 68.9077526,1.95744991e-16 L69.5439158,0 L69.5439158,0 Z" id="Shape"></path>
                        <path d="M43.1681855,14.5425191 C43.2675689,14.5425191 43.3559098,14.5313014 43.4442506,14.5313014 C45.43192,14.5313014 47.4195893,14.5200837 49.4072586,14.5313014 C50.3679655,14.5313014 51.3286723,14.6322606 52.2562513,14.9463559 C52.7200408,15.0921858 53.1617451,15.3165396 53.559279,15.5969818 C54.232878,16.0681247 54.7187527,16.7860568 54.9064771,17.5937303 C55.105244,18.3116623 55.105244,19.0744651 54.9064771,19.8036149 C54.6524971,20.734683 54.0120259,21.5087035 53.1507025,21.9125403 L52.8967225,22.0359348 C53.0181912,22.0920233 53.1065321,22.1256763 53.1838303,22.1705471 C54.2770485,22.6977784 55.0389884,23.5278873 55.2819257,24.7393977 C55.5800761,26.2201325 55.2046275,28.3178402 53.0623616,29.260126 C52.3998052,29.5517859 51.7041209,29.7312689 50.9863515,29.7873574 C50.4894341,29.8322281 49.9814742,29.8546635 49.4735143,29.8546635 C47.4748023,29.8658812 45.4760904,29.8546635 43.4884211,29.8546635 L43.1571429,29.8546635 L43.1681855,14.5425191 L43.1681855,14.5425191 Z M46.1717747,23.4830166 L46.1717747,27.173636 L46.4478398,27.173636 C47.1214389,27.173636 47.7950379,27.173636 48.4575944,27.173636 C49.0097248,27.173636 49.5728977,27.173636 50.1250281,27.1624183 C50.5446472,27.1624183 50.9532236,27.0726768 51.3286723,26.9044115 C51.7372488,26.7361462 52.0464418,26.3771801 52.1568678,25.950908 C52.2672939,25.5470712 52.2672939,25.1320168 52.1568678,24.72818 C52.0022713,24.1560779 51.5826523,23.8419826 51.0526071,23.6737173 C50.577775,23.539105 50.0808577,23.4830166 49.5839403,23.4942343 L46.1717747,23.4942343 L46.1717747,23.4830166 Z M46.1607321,20.7907714 C46.2490729,20.8019891 46.304286,20.8132068 46.359499,20.8132068 C47.4306319,20.8132068 48.4907222,20.8244245 49.5618551,20.8019891 C49.9373038,20.7907714 50.3127524,20.734683 50.6882011,20.6449415 C51.505354,20.4318054 51.9139305,19.870921 51.9139305,19.0183767 C51.9249731,18.2219208 51.5495244,17.6722541 50.8096697,17.4366827 C50.5115193,17.3357235 50.1912837,17.2684173 49.8820907,17.2571997 C48.7005317,17.2235466 47.5189728,17.2347643 46.3374138,17.2235466 C46.2822007,17.2347643 46.2159451,17.245982 46.1607321,17.2571997 L46.1607321,20.7907714 L46.1607321,20.7907714 Z" id="Shape"></path>
                        <path d="M73.2440288,22.0359348 C73.3657889,22.0920233 73.4543418,22.1256763 73.5428946,22.1705471 C74.6830124,22.7202138 75.4689188,23.5951935 75.6681627,24.8740099 C75.9338212,26.6127516 75.3471587,28.3851463 73.4322036,29.2489083 C72.7791264,29.5405682 72.0707037,29.7200512 71.362281,29.7873574 C70.8641713,29.8322281 70.3771307,29.8546635 69.8790209,29.8546635 C67.8644439,29.8658812 65.8609359,29.8546635 63.8463589,29.8546635 L63.5142857,29.8546635 L63.5142857,14.5425191 C63.6028386,14.5313014 63.6803223,14.5313014 63.757806,14.5313014 C65.7723831,14.5313014 67.775891,14.5200837 69.7904681,14.5313014 C70.7534802,14.5425191 71.7054232,14.6210429 72.6130898,14.9463559 C72.9673012,15.0697505 73.3215125,15.2267981 73.6535857,15.4174988 C74.749427,16.0681247 75.2918132,17.066499 75.4025042,18.3340977 C75.4689188,18.9622883 75.380366,19.5904788 75.1479148,20.1737986 C74.8379799,20.9253837 74.2623864,21.5311389 73.5318255,21.8901049 C73.4322036,21.9349756 73.3657889,21.9686287 73.2440288,22.0359348 Z M66.5140131,23.4942343 L66.5140131,27.1512006 C66.6247041,27.1512006 66.7021879,27.1624183 66.7907407,27.1624183 C67.344196,27.1624183 67.8865821,27.1624183 68.4400373,27.1624183 C69.0931145,27.1624183 69.7461917,27.1624183 70.3992689,27.1512006 C70.8088257,27.1512006 71.2073135,27.0726768 71.5947322,26.9268469 C72.1149801,26.7137108 72.4691914,26.3435271 72.5577443,25.771425 C72.6020207,25.4685474 72.6020207,25.1656698 72.5577443,24.8627922 C72.4913297,24.3467786 72.1813947,23.9878126 71.7164923,23.7634588 C71.5947322,23.7073704 71.472972,23.6624996 71.3401428,23.6288465 C70.8752404,23.505452 70.3992689,23.4493635 69.9232974,23.4605812 L66.8018098,23.4605812 C66.7021879,23.4830166 66.6247041,23.4942343 66.5140131,23.4942343 L66.5140131,23.4942343 Z M66.5140131,20.7795537 C66.5582895,20.7907714 66.6025659,20.7907714 66.6468424,20.8019891 C67.775891,20.8019891 68.9160088,20.8019891 70.0450575,20.7907714 C70.4656835,20.7907714 70.8752404,20.7122476 71.262659,20.5664177 C71.8382525,20.3420639 72.1813947,19.9157918 72.2588785,19.2876012 C72.2810167,19.0969005 72.2810167,18.8949821 72.2588785,18.6930637 C72.214602,18.1658324 71.8825289,17.6946895 71.3954883,17.5039888 C71.2515899,17.4366827 71.0966225,17.3805942 70.941655,17.3469412 C70.5320981,17.279635 70.1225412,17.2235466 69.7019153,17.2123289 C68.727834,17.1898935 67.7537528,17.2011112 66.7796716,17.2011112 C66.6911188,17.2011112 66.613635,17.2123289 66.5140131,17.2123289 L66.5140131,20.7795537 L66.5140131,20.7795537 Z" id="Shape"></path>
                        <path d="M21.9857143,14.5263158 L25.0044285,14.5263158 L25.0044285,14.8462551 C25.0044285,17.6926121 25.0044285,20.5279367 25.0044285,23.3742937 C24.9933709,23.7714598 25.0376012,24.1686259 25.1150041,24.5547596 C25.4135582,25.8896789 26.3313358,26.7502054 27.7024734,26.9377561 C28.3106393,27.0260152 28.9188051,27.0149828 29.526971,26.8936265 C30.8096481,26.6178167 31.5947349,25.834517 31.871174,24.5657919 C31.9485769,24.1796582 31.9928071,23.7824922 31.9928071,23.3853261 C32.0038647,20.5389691 31.9928071,17.7036445 31.9928071,14.8572875 L31.9928071,14.5263158 L34.9894062,14.5263158 C35.0004638,14.5925101 35.0115213,14.6587045 35.0115213,14.7138664 C35.0115213,17.7808712 35.0225789,20.8589084 35.0004638,23.9259132 C35.0004638,24.9519256 34.7571974,25.9669057 34.2706647,26.8825941 C33.5519233,28.2395783 32.4129945,29.07804 30.9644539,29.5193357 C29.8255251,29.8723722 28.6534237,29.9165018 27.4702646,29.8061779 C26.6409475,29.7289511 25.8337456,29.5083033 25.0818314,29.1442344 C23.555888,28.3940318 22.6381104,27.1584039 22.2179231,25.5366424 C22.0631172,24.9077961 21.9857143,24.2679174 21.9967718,23.6280387 C21.9967718,20.6823902 21.9967718,17.7477741 21.9967718,14.813158 C21.9857143,14.7138664 21.9857143,14.6366397 21.9857143,14.5263158 Z" id="Shape"></path>
                        <path d="M83.8714286,29.8596491 L83.8714286,14.57443 C84.0631332,14.5183169 86.4381407,14.5070943 86.7469982,14.5632074 L86.7469982,27.0091017 L94.3938834,27.0091017 C94.4684352,27.2223316 94.4790854,29.5454155 94.4151839,29.8596491 L83.8714286,29.8596491 L83.8714286,29.8596491 Z" id="Shape"></path>
                    </g>
                </g>
            </g>
        </g>
    </g>
</svg>