<?xml version="1.0" encoding="UTF-8"?>
<svg width="39px" height="39px" viewBox="0 0 39 39" version="1.1" xmlns="http://www.w3.org/2000/svg" xmlns:xlink="http://www.w3.org/1999/xlink">
    <!-- Generator: Sketch 47.1 (45422) - http://www.bohemiancoding.com/sketch -->
    <title>mobile_2</title>
    <desc>Created with Sketch.</desc>
    <defs></defs>
    <g id="Homepage" stroke="none" stroke-width="1" fill="none" fill-rule="evenodd">
        <g id="Homepage_onscroll" transform="translate(-842.000000, -1689.000000)" fill-rule="nonzero">
            <g id="Homepage" transform="translate(-10.000000, -480.000000)">
                <g id="mobile_2" transform="translate(852.000000, 2169.000000)">
                    <circle id="Oval" fill="#4DD6B7" opacity="0.25" cx="19.5" cy="19.5" r="19.5"></circle>
                    <polygon id="Shape" fill="#004E82" points="11.2255 19.149 16.614 19.149 16.614 19.149 19.071 19.149 19.071 16.692 19.071 16.692 19.071 11.3035 16.7115 11.3035 16.7115 15.119 12.532 10.9395 10.8615 12.61 15.041 16.7895 11.2255 16.7895"></polygon>
                    <polygon id="Shape" fill="#17CC9D" points="27.7745 19.851 22.386 19.851 22.386 19.851 19.929 19.851 19.929 22.308 19.929 22.308 19.929 27.6965 22.2885 27.6965 22.2885 23.881 26.468 28.0605 28.1385 26.39 23.959 22.2105 27.7745 22.2105"></polygon>
                </g>
            </g>
        </g>
    </g>
</svg>