<?xml version="1.0" encoding="UTF-8"?>
<svg width="39px" height="39px" viewBox="0 0 39 39" version="1.1" xmlns="http://www.w3.org/2000/svg" xmlns:xlink="http://www.w3.org/1999/xlink">
    <!-- Generator: Sketch 47.1 (45422) - http://www.bohemiancoding.com/sketch -->
    <title>customer</title>
    <desc>Created with Sketch.</desc>
    <defs></defs>
    <g id="Homepage" stroke="none" stroke-width="1" fill="none" fill-rule="evenodd">
        <g id="Homepage_onscroll" transform="translate(-842.000000, -1541.000000)" fill-rule="nonzero">
            <g id="Homepage" transform="translate(-10.000000, -480.000000)">
                <g id="customer" transform="translate(852.000000, 2021.000000)">
                    <circle id="Oval" fill="#4DD6B7" opacity="0.25" cx="19.5" cy="19.5" r="19.5"></circle>
                    <path d="M19.5,19.5585 C21.7077583,19.5585 23.4975,17.7687583 23.4975,15.561 C23.4975,13.3532417 21.7077583,11.5635 19.5,11.5635 C17.2922417,11.5635 15.5025,13.3532417 15.5025,15.561 C15.5025,17.7687583 17.2922417,19.5585 19.5,19.5585 Z" id="Shape" fill="#004E82"></path>
                    <path d="M22.8345,20.293 L22.5875,20.293 C22.5875,20.293 22.542,20.293 22.5225,20.293 L22.5225,20.293 L22.412,20.358 C20.686444,21.5788649 18.378556,21.5788649 16.653,20.358 C16.6191886,20.3315636 16.5820341,20.309708 16.5425,20.293 L16.5425,20.293 C16.5425,20.293 16.497,20.293 16.4515,20.293 L16.2045,20.293 C13.1853107,20.952114 11.037142,23.6312298 11.05,26.7215 L11.05,27.3715 C11.048239,27.5202889 11.1065678,27.6634982 11.2117848,27.7687152 C11.3170018,27.8739322 11.4602111,27.932261 11.609,27.9305 L27.391,27.9305 C27.5397889,27.932261 27.6829982,27.8739322 27.7882152,27.7687152 C27.8934322,27.6634982 27.951761,27.5202889 27.95,27.3715 L27.95,26.7215 C27.9595115,23.6455238 25.8340439,20.9745105 22.8345,20.293 L22.8345,20.293 Z" id="Shape" fill="#17CC9D"></path>
                </g>
            </g>
        </g>
    </g>
</svg>