<?xml version="1.0" encoding="UTF-8"?>
<svg width="149px" height="125px" viewBox="0 0 149 125" version="1.1" xmlns="http://www.w3.org/2000/svg" xmlns:xlink="http://www.w3.org/1999/xlink">
    <!-- Generator: Sketch 47.1 (45422) - http://www.bohemiancoding.com/sketch -->
    <title>box</title>
    <desc>Created with Sketch.</desc>
    <defs></defs>
    <g id="Homepage" stroke="none" stroke-width="1" fill="none" fill-rule="evenodd">
        <g transform="translate(-645.000000, -1282.000000)" id="Group">
            <g transform="translate(556.000000, 1282.000000)">
                <g id="box" transform="translate(90.000000, 0.000000)">
                    <path d="M28.12,43.7418831 L75.2109091,81.525974 L28.12,43.7418831 Z" id="Shape" fill="#004E82" fill-rule="nonzero"></path>
                    <rect id="Rectangle-path" fill="#004E82" fill-rule="nonzero" transform="translate(51.679694, 62.602839) rotate(-50.250000) translate(-51.679694, -62.602839) " x="51.1796937" y="33.0614425" width="1" height="59.0827922"></rect>
                    <path d="M45.0222727,42.6542208 L73.6131818,80.1055195 L45.0222727,42.6542208 Z" id="Shape" fill="#004E82" fill-rule="nonzero"></path>
                    <rect id="Rectangle-path" fill="#004E82" fill-rule="nonzero" transform="translate(59.364894, 61.355075) rotate(-36.420000) translate(-59.364894, -61.355075) " x="58.864892" y="38.0839707" width="1" height="46.5422078"></rect>
                    <path d="M65.7675,41.7288961 L73.6468182,80.1055195 L65.7675,41.7288961 Z" id="Shape" fill="#004E82" fill-rule="nonzero"></path>
                    <rect id="Rectangle-path" fill="#004E82" fill-rule="nonzero" transform="translate(69.746894, 60.903329) rotate(-11.210000) translate(-69.746894, -60.903329) " x="69.2468934" y="41.341641" width="1" height="39.1233766"></rect>
                    <path d="M127.818182,43.5714286 L77.4645455,80.0974026 L127.818182,43.5714286 Z" id="Shape" fill="#004E82" fill-rule="nonzero"></path>
                    <rect id="Rectangle-path" fill="#004E82" fill-rule="nonzero" transform="translate(102.682612, 61.875297) rotate(-36.940000) translate(-102.682612, -61.875297) " x="71.1863622" y="61.3752812" width="62.9925" height="1"></rect>
                    <path d="M110.772955,43.2873377 L78.1120455,79.0503247 L110.772955,43.2873377 Z" id="Shape" fill="#004E82" fill-rule="nonzero"></path>
                    <rect id="Rectangle-path" fill="#004E82" fill-rule="nonzero" transform="translate(94.489145, 61.202721) rotate(-48.600000) translate(-94.489145, -61.202721) " x="69.7916446" y="60.7027152" width="49.395" height="1"></rect>
                    <path d="M90.4565909,42.6542208 L77.4729545,80.1055195 L90.4565909,42.6542208 Z" id="Shape" fill="#004E82" fill-rule="nonzero"></path>
                    <rect id="Rectangle-path" fill="#004E82" fill-rule="nonzero" transform="translate(84.016002, 61.400376) rotate(-71.510000) translate(-84.016002, -61.400376) " x="63.5608881" y="60.900371" width="40.9102273" height="1"></rect>
                    <path d="M45.4847727,44.1233766 L45.4847727,44.1233766 C45.9472727,42.0698052 50.2527273,40.4545455 55.5,40.4545455 C60.7472727,40.4545455 65.0527273,42.0779221 65.5152273,44.1233766 L65.5909091,44.1233766 C65.5909091,6.89123377 77.9606818,0 77.9606818,0 L77.9606818,0 C60.0240909,0 45.4847727,19.7564935 45.4847727,44.1233766 Z" id="Shape" fill="#004E82" fill-rule="nonzero"></path>
                    <path d="M110.419773,44.1233766 L110.419773,44.1233766 C109.957273,42.0698052 105.609773,40.4545455 100.328864,40.4545455 C95.0479545,40.4545455 90.7761364,42.0779221 90.3136364,44.1233766 L90.2715909,44.1233766 C90.3052273,6.89123377 77.9354545,0 77.9354545,0 L77.9354545,0 C95.8636364,0 110.419773,19.7564935 110.419773,44.1233766 Z" id="Shape" fill="#004E82" fill-rule="nonzero"></path>
                    <path d="M77.9606818,0 C77.9606818,0 65.5909091,6.89123377 65.5909091,44.1233766 L65.6413636,44.1233766 C66.2131818,42.0698052 71.5277273,40.4545455 77.9606818,40.4545455 L77.9606818,40.4545455 C84.4104545,40.4545455 89.7334091,42.0779221 90.3388636,44.1233766 L90.3893182,44.1233766 C90.3977273,6.89123377 77.9606818,0 77.9606818,0 Z" id="Shape" fill="#7BE0CA" fill-rule="nonzero"></path>
                    <path d="M77.9606818,0 C50.2106818,0 27.6827273,19.7564935 27.6827273,44.1233766 C27.6827273,44.1233766 30.0288636,40.4626623 35.9656818,40.4626623 C42.3061364,40.4626623 45.4847727,44.1233766 45.4847727,44.1233766 C45.4847727,19.7564935 60.0240909,0 77.9606818,0 Z" id="Shape" fill="#7BE0CA" fill-rule="nonzero"></path>
                    <path d="M77.9606818,0 C95.8636364,0 110.318864,19.7564935 110.445,44.1233766 C112.504813,41.8623723 115.449845,40.5351925 118.568182,40.4626623 C125.06,40.4626623 128.230227,44.1233766 128.230227,44.1233766 C128.247045,19.7564935 105.735909,0 77.9606818,0 Z" id="Shape" fill="#7BE0CA" fill-rule="nonzero"></path>
                    <rect id="Rectangle-path" fill="#7BE0CA" fill-rule="nonzero" x="43.4834091" y="79.0503247" width="68.9545455" height="44.375"></rect>
                    <polygon id="Shape" fill="#17CC9D" fill-rule="nonzero" points="118.231818 89.5698052 37.6895455 89.5698052 40.6243182 74.1964286 115.305455 74.1964286"></polygon>
                    <rect id="Rectangle-path" fill="#FFFFFF" fill-rule="nonzero" x="75.7238636" y="119.090909" width="4.48204545" height="4.3262987"></rect>
                    <path d="M145.653864,65.9334416 C146.317506,65.9334416 146.915716,65.5473287 147.169253,64.9553378 C147.422791,64.3633469 147.28166,63.6822137 146.81174,63.2298864 C146.34182,62.7775591 145.635775,62.6432329 145.023182,62.8896104 C144.672177,61.7131424 143.453216,60.9861067 142.206136,61.2094156 L142.206136,61.2094156 C142.198989,58.9113135 140.493407,56.9456138 138.150768,56.535566 C135.808129,56.1255182 133.496082,57.3879853 132.653409,59.5373377 C131.376858,59.1687307 129.994852,59.552562 129.116467,60.51967 C128.238081,61.4867779 128.024668,62.8595132 128.570283,64.0328854 C129.115898,65.2062577 130.320316,65.9647287 131.652727,65.974026 L145.653864,65.9334416 Z" id="Shape" stroke="#4DD6B7" stroke-width="1.5"></path>
                    <path d="M18.0459091,29.5779221 C18.7095515,29.5779221 19.3077614,29.1918093 19.5612988,28.5998183 C19.8148361,28.0078274 19.6737053,27.3266942 19.2037852,26.8743669 C18.7338652,26.4220396 18.0278203,26.2877134 17.4152273,26.5340909 C17.0642225,25.3576229 15.8452611,24.6305872 14.5981818,24.8538961 L14.5981818,24.8538961 C14.6155788,22.5465534 12.9176235,20.5587718 10.5677228,20.1354728 C8.2178221,19.7121738 5.89139609,20.9750239 5.04545455,23.1331169 C3.77356143,22.7782215 2.4038519,23.1670004 1.53343903,24.1299687 C0.663026161,25.092937 0.449675471,26.4555532 0.986395358,27.6237965 C1.52311525,28.7920398 2.71262327,29.5541619 4.03636364,29.5779221 L18.0459091,29.5779221 Z" id="Shape" stroke="#4DD6B7" stroke-width="1.5"></path>
                    <rect id="Rectangle-path" fill="#FFFFFF" fill-rule="nonzero" transform="translate(95.274350, 103.976645) rotate(-17.620000) translate(-95.274350, -103.976645) " x="86.3354863" y="98.8589502" width="17.8777273" height="10.2353896"></rect>
                    <rect id="Rectangle-path" fill="#004E82" fill-rule="nonzero" transform="translate(93.984044, 101.309949) rotate(-17.620000) translate(-93.984044, -101.309949) " x="87.0171122" y="100.809938" width="13.9338636" height="1"></rect>
                    <rect id="Rectangle-path" fill="#004E82" fill-rule="nonzero" transform="translate(94.417166, 102.653443) rotate(-17.620000) translate(-94.417166, -102.653443) " x="87.4502338" y="102.153432" width="13.9338636" height="1"></rect>
                    <rect id="Rectangle-path" fill="#004E82" fill-rule="nonzero" transform="translate(90.980911, 104.972335) rotate(-17.525568) translate(-90.980911, -104.972335) " x="87.5084388" y="104.472327" width="6.9449454" height="1"></rect>
                    <rect id="Rectangle-path" fill="#004E82" fill-rule="nonzero" transform="translate(89.624046, 108.682770) rotate(-17.620000) translate(-89.624046, -108.682770) " x="89.1240362" y="107.534231" width="1" height="2.29707792"></rect>
                    <rect id="Rectangle-path" fill="#004E82" fill-rule="nonzero" transform="translate(90.200446, 108.500483) rotate(-17.620000) translate(-90.200446, -108.500483) " x="89.7004367" y="107.351943" width="1" height="2.29707792"></rect>
                    <rect id="Rectangle-path" fill="#004E82" fill-rule="nonzero" transform="translate(91.083340, 108.237688) rotate(-17.620000) translate(-91.083340, -108.237688) " x="90.5833312" y="107.089149" width="1" height="2.29707792"></rect>
                    <rect id="Rectangle-path" fill="#004E82" fill-rule="nonzero" transform="translate(91.537188, 108.093173) rotate(-17.620000) translate(-91.537188, -108.093173) " x="91.0371785" y="106.944634" width="1" height="2.29707792"></rect>
                    <rect id="Rectangle-path" fill="#004E82" fill-rule="nonzero" transform="translate(92.275820, 107.866488) rotate(-17.620000) translate(-92.275820, -107.866488) " x="91.7758105" y="106.717949" width="1" height="2.29707792"></rect>
                    <rect id="Rectangle-path" fill="#004E82" fill-rule="nonzero" transform="translate(93.202878, 107.585195) rotate(-17.620000) translate(-93.202878, -107.585195) " x="92.7028688" y="106.436656" width="1" height="2.29707792"></rect>
                    <rect id="Rectangle-path" fill="#004E82" fill-rule="nonzero" transform="translate(93.737266, 107.418567) rotate(-17.620000) translate(-93.737266, -107.418567) " x="93.2372564" y="106.270028" width="1" height="2.29707792"></rect>
                    <rect id="Rectangle-path" fill="#004E82" fill-rule="nonzero" transform="translate(94.202068, 107.281789) rotate(-17.620000) translate(-94.202068, -107.281789) " x="93.7020582" y="106.13325" width="1" height="2.29707792"></rect>
                    <rect id="Rectangle-path" fill="#004E82" fill-rule="nonzero" transform="translate(94.926427, 107.046606) rotate(-17.620000) translate(-94.926427, -107.046606) " x="94.4264176" y="105.898067" width="1" height="2.29707792"></rect>
                    <rect id="Rectangle-path" fill="#004E82" fill-rule="nonzero" transform="translate(95.513387, 106.877714) rotate(-17.620000) translate(-95.513387, -106.877714) " x="95.0133781" y="105.729175" width="1" height="2.29707792"></rect>
                    <rect id="Rectangle-path" fill="#004E82" fill-rule="nonzero" transform="translate(96.393736, 106.607183) rotate(-17.620000) translate(-96.393736, -106.607183) " x="95.8937271" y="105.458644" width="1" height="2.29707792"></rect>
                    <rect id="Rectangle-path" fill="#004E82" fill-rule="nonzero" transform="translate(96.855993, 106.462669) rotate(-17.620000) translate(-96.855993, -106.462669) " x="96.3559835" y="105.31413" width="1" height="2.29707792"></rect>
                    <rect id="Rectangle-path" fill="#004E82" fill-rule="nonzero" transform="translate(97.591307, 106.235222) rotate(-17.620000) translate(-97.591307, -106.235222) " x="97.0912973" y="105.086683" width="1" height="2.29707792"></rect>
                    <rect id="Rectangle-path" fill="#004E82" fill-rule="nonzero" transform="translate(98.110438, 106.082768) rotate(-17.620000) translate(-98.110438, -106.082768) " x="97.6104285" y="104.934228" width="1" height="2.29707792"></rect>
                    <path d="M20.7704545,123.425325 L135.159318,123.425325" id="Shape" stroke="#4DD6B7" stroke-width="1.5" stroke-linecap="round" stroke-linejoin="round"></path>
                </g>
            </g>
        </g>
    </g>
</svg>