<?xml version="1.0" encoding="utf-8"?>
<!-- Generator: Adobe Illustrator 19.2.1, SVG Export Plug-In . SVG Version: 6.00 Build 0)  -->
<svg version="1.1" id="Layer_1" xmlns="http://www.w3.org/2000/svg" xmlns:xlink="http://www.w3.org/1999/xlink" x="0px" y="0px"
	 viewBox="0 0 1077.8 277.1" style="enable-background:new 0 0 1077.8 277.1;" xml:space="preserve">
<style type="text/css">
	.st0{fill:#53BAD3;}
	.st1{fill:#676767;}
</style>
<g>
	<path class="st0" d="M208.7,97.1l-70-40.4c-0.4-0.2-0.9-0.3-1.3-0.3s-0.9,0.1-1.3,0.3L66.3,97h-0.1c-0.1,0-0.2,0.1-0.2,0.1h-0.1
		l-0.4,0.1c-0.8,0.5-1.5,1.3-1.5,2.2v81.1c0,0.9,0.7,1.7,1.5,2.2l70.5,40.5c0.4,0.2,0.9,0.3,1.3,0.3s1.2-0.1,1.8-0.3l70.6-40.5
		c0.8-0.4,2-1.3,2-2.2V99.4c0-0.9-1.2-1.7-2-2.2L208.7,97.1z M137.3,61.7l22.9,13.2l-64.8,37.4L72.5,99.1L137.3,61.7z M136.1,216.5
		l-65.2-37.6H71v-75.4L91.6,117v26.2l3.6-1.5l6.2,6.3h5.3l2,3v-25.4l27.4,15.4V216.5z M137.3,136.5l-28-16.1L174.2,83l27.9,16.1
		L137.3,136.5z M204.7,178.9l-65.2,37.6V141l65.2-37.6V178.9z"/>
	<path class="st0" d="M224.2,228.2c-48.3,48.3-126.9,48.3-175.2,0S0.7,101.3,49,53c39-39,98.2-47.2,145.7-21.9l-11.9,19.6
		c-0.2,0.4-0.2,0.8,0,1.1c0.2,0.2,0.5,0.4,0.8,0.4c0,0,0.1,0,0.2,0.1l47.7-6.3c0.3-0.1,0.5-0.2,0.7-0.5s0.2-0.6,0.1-0.9L215,0.6
		c-0.2-0.3-0.5-0.6-0.9-0.6c-0.3-0.1-0.7,0.2-0.9,0.5l-11.9,19.6C148.8-8.3,83.1,0.7,40,43.9c-53.3,53.3-53.3,139.9,0,193.2
		c26.6,26.7,61.6,40,96.6,40c34.9,0,69.9-13.4,96.6-39.9L224.2,228.2z"/>
</g>
<g>
	<path class="st1" d="M336.3,141.4h35.4c3.1,0,6-0.7,8.6-2.1c2.6-1.4,4.8-3.2,6.6-5.6c1.8-2.3,3.3-5,4.3-7.9c1-3,1.5-6.1,1.5-9.3
		s-0.6-6.4-1.8-9.4s-2.7-5.6-4.7-7.8s-4.3-4-7-5.4c-2.7-1.3-5.5-2-8.5-2h-34.4L336.3,141.4L336.3,141.4z M325.7,190.8V82.6h45.7
		c4.7,0,9,1,12.9,3s7.3,4.6,10.1,7.8s5.1,6.8,6.6,10.9c1.6,4.1,2.4,8.2,2.4,12.3c0,4-0.6,7.8-1.8,11.4c-1.2,3.6-2.8,6.9-4.9,9.7
		c-2.1,2.9-4.6,5.3-7.5,7.3s-6.2,3.3-9.9,4l26.5,41.8h-12l-25.4-39.9h-32v39.9L325.7,190.8L325.7,190.8z"/>
	<path class="st1" d="M490.7,146.9c-0.3-4.3-1.3-8.2-3-11.6c-1.7-3.5-3.8-6.5-6.4-9.1s-5.6-4.5-9-6c-3.4-1.4-7-2.1-10.9-2.1
		s-7.5,0.7-11,2.1c-3.5,1.4-6.5,3.4-9.1,6c-2.6,2.5-4.7,5.6-6.2,9.1c-1.6,3.6-2.5,7.4-2.8,11.6H490.7z M461.5,192.3
		c-5.8,0-11.1-1.1-15.9-3.3s-9-5.2-12.6-9s-6.3-8.2-8.3-13.2s-3-10.3-3-16c0-5.6,1-10.8,3-15.8c2-4.9,4.7-9.2,8.2-12.9
		s7.7-6.7,12.6-8.8c4.9-2.2,10.1-3.3,15.8-3.3c5.8,0,11.1,1.1,15.9,3.3c4.8,2.2,9,5.1,12.4,8.9c3.5,3.8,6.1,8.1,8.1,13
		c1.9,4.9,2.9,10.1,2.9,15.6v2.4c0,0.8-0.1,1.4-0.1,1.7h-68c0.3,4.3,1.3,8.2,3,11.8s3.8,6.7,6.5,9.4c2.6,2.6,5.7,4.7,9.1,6.2
		c3.4,1.5,7,2.2,10.9,2.2c2.5,0,5.1-0.3,7.6-1.1c2.5-0.7,4.9-1.7,7-2.9s4.1-2.7,5.8-4.5s3.1-3.7,4-5.9l9,2.4c-1.2,3-2.9,5.6-5.2,8
		c-2.2,2.4-4.8,4.5-7.8,6.3s-6.2,3.2-9.8,4.1C469,191.8,465.3,192.3,461.5,192.3"/>
</g>
<g>
	<path class="st1" d="M574.3,177.7c-21.4,0-38.7-17.4-38.7-38.7c0-21.4,17.4-38.7,38.7-38.7c14.4,0,26.8,7.9,33.4,19.6l15.8-8.5
		c-9.8-17.3-28.1-29.1-49.3-29.1c-31.3,0-56.8,25.5-56.8,56.8s25.5,56.8,56.8,56.8c19.9,0,37.4-10.4,47.6-25.9l-15.2-9.7
		C599.7,170.6,587.8,177.7,574.3,177.7z"/>
	<path class="st1" d="M715.4,190.8H695V146c0-6.3-1.2-10.9-3.5-13.9s-5.6-4.5-9.9-4.5c-1.8,0-3.8,0.4-5.8,1.2s-4,1.9-5.8,3.4
		s-3.5,3.2-5,5.3c-1.5,2-2.6,4.3-3.4,6.7v46.6h-20.4V79.5h20.4v46.2c2.9-5.2,6.9-9.2,12-12c5-2.8,10.6-4.2,16.7-4.2
		c5.2,0,9.4,0.9,12.6,2.7s5.8,4.1,7.6,7.1c1.8,2.9,3.1,6.3,3.8,10c0.7,3.8,1.1,7.6,1.1,11.6L715.4,190.8L715.4,190.8z"/>
	<path class="st1" d="M766.7,177.4c3.4,0,6.7-0.6,9.8-1.8s5.5-2.9,7.2-4.9c2.2-1.7,3.4-3.7,3.4-5.8v-9.1c-2.4-0.9-5.1-1.7-7.9-2.2
		c-2.9-0.6-5.6-0.8-8.2-0.8c-5.3,0-9.6,1.2-13,3.6c-3.4,2.4-5,5.4-5,9.1c0,3.5,1.3,6.3,4,8.6C759.6,176.2,762.9,177.4,766.7,177.4
		 M760.9,192.3c-3.9,0-7.5-0.6-10.8-1.9c-3.3-1.3-6.2-3.1-8.7-5.3c-2.5-2.3-4.4-5-5.7-8c-1.4-3-2.1-6.4-2.1-10.1
		c0-3.8,0.8-7.2,2.5-10.4s4-5.9,7-8.1c3-2.3,6.6-4,10.8-5.3s8.7-1.9,13.7-1.9c3.5,0,7,0.3,10.4,0.9c3.4,0.6,6.4,1.5,9.1,2.6v-4.6
		c0-5.3-1.5-9.3-4.5-12.2c-3-2.8-7.5-4.3-13.3-4.3c-4.3,0-8.4,0.7-12.5,2.3c-4.1,1.5-8.2,3.8-12.5,6.7l-6.2-12.9
		c10.3-6.8,21.4-10.2,33.2-10.2c11.5,0,20.4,2.8,26.7,8.4c6.4,5.6,9.5,13.8,9.5,24.5v24.8c0,2.1,0.4,3.7,1.1,4.6
		c0.8,0.9,2,1.4,3.8,1.5v17.4c-3.5,0.7-6.5,1.1-9,1.1c-3.9,0-6.8-0.9-8.9-2.6c-2.1-1.7-3.4-4-3.9-6.9l-0.5-4.4
		c-3.6,4.7-7.9,8.2-13,10.7C772.2,191.1,766.7,192.3,760.9,192.3"/>
	<path class="st1" d="M880.2,128.6c-6.2,0.1-11.7,1.3-16.6,3.6s-8.4,5.7-10.5,10.3v48.3h-20.4V111h18.7v17.1c1.4-2.7,3.1-5.2,5-7.4
		s4-4.1,6.2-5.7c2.2-1.6,4.5-2.9,6.8-3.7c2.3-0.9,4.5-1.3,6.6-1.3h2.5c0.5,0,1.1,0,1.6,0.2v18.4L880.2,128.6L880.2,128.6z"/>
	<path class="st1" d="M934.8,174.9c2.2,0,4.4-0.4,6.4-1.1c2-0.7,3.9-1.7,5.6-2.9s3.3-2.6,4.6-4.3c1.3-1.6,2.3-3.4,3-5.2v-18.9
		c-1.8-4.7-4.7-8.4-8.6-11.3c-3.9-2.8-8-4.3-12.3-4.3c-3.2,0-6,0.7-8.5,2.1c-2.5,1.4-4.7,3.2-6.6,5.5c-1.8,2.3-3.2,4.9-4.2,7.9
		c-0.9,2.9-1.4,6-1.4,9.1c0,3.3,0.6,6.3,1.7,9.1s2.7,5.3,4.7,7.5s4.3,3.8,6.9,5C928.8,174.3,931.7,174.9,934.8,174.9 M928,191.2
		c-5.4,0-10.3-1.1-14.6-3.2c-4.4-2.1-8.2-5.1-11.3-8.8c-3.2-3.7-5.7-8-7.4-12.9c-1.7-4.9-2.6-10.1-2.6-15.6c0-5.8,0.9-11.2,2.8-16.1
		c1.8-5,4.4-9.4,7.6-13.1c3.2-3.8,7.2-6.7,11.7-8.8c4.6-2.2,9.6-3.2,15.1-3.2c6.2,0,11.6,1.4,16.3,4.2s8.5,6.5,11.6,11.2v-14H975v76
		c0,5.9-1.1,11.2-3.3,15.9c-2.3,4.7-5.3,8.6-9.2,11.9c-3.9,3.2-8.6,5.7-14,7.5c-5.4,1.7-11.3,2.6-17.7,2.6c-8.7,0-16.1-1.5-22-4.4
		s-11-7-15.3-12.3l11.1-10.8c3.1,3.8,6.9,6.7,11.5,8.8c4.6,2.2,9.5,3.2,14.7,3.2c3.1,0,6.2-0.4,9.1-1.3c2.9-0.9,5.5-2.2,7.7-4
		s4-4.2,5.2-7c1.3-2.8,1.9-6.2,1.9-10.1v-10c-2.6,4.6-6.3,8.1-11.1,10.6C938.6,190,933.5,191.2,928,191.2"/>
	<path class="st1" d="M1057,144.1c-0.5-6-2.7-10.8-6.6-14.4c-3.9-3.6-8.7-5.4-14.3-5.4c-2.7,0-5.3,0.5-7.7,1.5c-2.4,1-4.5,2.3-6.3,4
		s-3.3,3.8-4.5,6.2s-1.9,5.1-2.1,8.1L1057,144.1L1057,144.1z M1036.2,192.3c-6.4,0-12.2-1.1-17.4-3.3c-5.2-2.2-9.6-5.2-13.3-8.9
		c-3.6-3.8-6.5-8.1-8.5-13.1s-3-10.2-3-15.7c0-5.7,1-11,2.9-16.1c1.9-5,4.7-9.5,8.4-13.3c3.7-3.8,8.1-6.8,13.3-9.1
		c5.2-2.2,11.1-3.4,17.6-3.4s12.3,1.1,17.5,3.4c5.1,2.2,9.5,5.2,13.1,9s6.3,8.1,8.2,13.1c1.9,5,2.8,10.1,2.8,15.5
		c0,1.3,0,2.6-0.1,3.8s-0.2,2.2-0.4,3h-61.7c0.3,3.2,1.1,6,2.3,8.4c1.2,2.4,2.8,4.5,4.7,6.2c1.9,1.7,4.1,3.1,6.5,4s5,1.4,7.6,1.4
		c4.1,0,7.9-1,11.5-3s6.1-4.6,7.4-7.9l17.5,4.9c-2.9,6.1-7.7,11.1-14.1,15C1052.9,190.4,1045.2,192.3,1036.2,192.3"/>
</g>
</svg>
