<?xml version="1.0" encoding="UTF-8" standalone="no"?>
<svg width="281px" height="32px" viewBox="0 0 281 32" version="1.1" xmlns="http://www.w3.org/2000/svg" xmlns:xlink="http://www.w3.org/1999/xlink">
    <!-- Generator: Sketch 46 (44423) - http://www.bohemiancoding.com/sketch -->
    <title>Eastside Co</title>
    <desc>Created with Sketch.</desc>
    <defs></defs>
    <g id="Design" stroke="none" stroke-width="1" fill="none" fill-rule="evenodd">
        <g id="Partner-Page-v2" transform="translate(-843.000000, -3554.000000)" fill-rule="nonzero" fill="#000000">
            <g id="You'll-Be-in-Good-Company" transform="translate(322.000000, 3463.000000)">
                <g id="Logos" transform="translate(0.000000, 72.000000)">
                    <g id="Eastside-Co" transform="translate(521.889861, 19.363457)">
                        <polygon id="Shape" points="2.44626913 14.9105928 2.44626913 24.9286473 14.8523483 24.9286473 14.8523483 27.1419385 0.0582445031 27.1419385 0.0582445031 0.757178541 14.7358593 0.757178541 14.7358593 2.97046966 2.44626913 2.97046966 2.44626913 12.6390572 8.96965348 12.6390572 8.96965348 14.8523483 2.44626913 14.8523483"></polygon>
                        <path d="M34.7719684,0.757178541 L36.461059,0.757178541 L48.9253826,30.9278312 L46.3626245,30.9278312 L42.8679543,22.4823782 L28.0738505,22.4823782 L26.1517819,27.1419385 L23.6472683,27.1419385 L34.7719684,0.757178541 Z M29.0640071,20.2690871 L41.9360423,20.2690871 L35.5873914,4.77604926 L29.0640071,20.2690871 Z" id="Shape"></path>
                        <path d="M59.9335937,25.2198699 C62.9623079,25.1616254 65.3503325,23.8220018 66.0492665,22.3076447 C66.5152226,21.2592436 66.5152226,20.1525981 66.5152226,20.1525981 C66.5152226,18.1140405 65.408577,16.1337274 62.3216183,14.9105928 L59.0016817,13.6292137 C55.3905225,12.1731012 53.4102094,10.2510326 53.4102094,6.98934038 C53.4102094,3.14520317 56.613657,0.465956025 60.6907723,0.465956025 C63.0205524,0.465956025 64.7678875,1.10664556 65.408577,1.45611258 C66.3404891,1.8638241 66.9811786,2.38802463 67.4471346,2.73749165 C67.1559121,3.49467019 66.8064451,4.31009323 66.5152226,5.06727177 C65.0008655,3.61115919 63.1370414,2.73749165 60.6907723,2.73749165 C57.9532806,2.73749165 55.798234,4.36833773 55.798234,6.98934038 C55.798234,8.85316448 56.730146,10.2510326 59.9335937,11.4741671 L63.2535304,12.8137907 C67.3306456,14.4446368 68.9032472,17.0073949 68.9032472,20.2108426 C68.9032472,20.6767986 68.8450027,22.5406227 67.7383571,24.2297133 C65.5833105,27.54965 61.1567283,27.54965 60.8655058,27.54965" id="Shape"></path>
                        <polygon id="Shape" points="77.8729007 0.757178541 98.0254988 0.757178541 98.0254988 3.02871416 89.1723343 3.02871416 89.1723343 27.1419385 86.7843097 27.1419385 86.7843097 3.02871416 77.8729007 3.02871416"></polygon>
                        <path d="M104.840106,23.9384908 C105.247817,23.1813122 105.713773,22.4823782 106.121485,21.7251997 C107.752331,23.5890238 110.606311,25.1616254 113.518537,25.1616254 C117.129696,25.1616254 119.51772,23.0065787 119.51772,20.1525981 C119.51772,18.1140405 118.411075,16.1337274 115.324116,14.9105928 L112.00418,13.6292137 C108.39302,12.1731012 106.412707,10.2510326 106.412707,6.98934038 C106.412707,3.14520317 109.616155,0.465956025 113.69327,0.465956025 C116.02305,0.465956025 117.82863,1.16489006 118.411075,1.45611258 C119.284742,1.8638241 119.925432,2.32978013 120.391388,2.67924714 C120.100165,3.49467019 119.808943,4.25184873 119.51772,5.06727177 C118.003363,3.61115919 116.139539,2.73749165 113.69327,2.73749165 C110.955778,2.73749165 108.800732,4.36833773 108.800732,6.98934038 C108.800732,8.85316448 109.732644,10.2510326 112.936092,11.4741671 L116.256028,12.8137907 C120.333143,14.4446368 121.905745,17.0073949 121.905745,20.2108426 C121.905745,21.7251997 121.498034,23.1230677 120.740855,24.2297133 C118.644053,27.316672 114.508693,27.4914055 113.518537,27.54965 C108.742487,27.6078945 105.53904,24.6374248 104.840106,23.9384908 Z" id="Shape"></path>
                        <polygon id="Shape" points="133.554646 0.757178541 135.94267 0.757178541 135.94267 27.1419385 133.554646 27.1419385"></polygon>
                        <path d="M149.280662,0.757178541 L155.978779,0.757178541 C163.026364,0.757178541 169.200282,6.46513985 169.200282,13.9204362 C169.200282,21.3174881 163.375831,27.1419385 156.037024,27.1419385 L149.280662,27.1419385 L149.280662,0.757178541 L149.280662,0.757178541 Z M151.610442,3.02871416 L151.610442,24.8704028 L156.095268,24.8704028 C162.152697,24.8704028 166.754012,19.9196201 166.754012,13.9204362 C166.754012,7.80476342 161.686741,3.02871416 155.920535,3.02871416 L151.610442,3.02871416 Z" id="Shape"></path>
                        <polygon id="Shape" points="181.256894 14.9105928 181.256894 24.9286473 193.662973 24.9286473 193.662973 27.1419385 178.868869 27.1419385 178.868869 0.757178541 193.546484 0.757178541 193.546484 2.97046966 181.256894 2.97046966 181.256894 12.6390572 187.780278 12.6390572 187.780278 14.8523483 181.256894 14.8523483"></polygon>
                        <path d="M221.853312,13.9786808 C221.853312,6.40689534 227.968985,0.291222516 235.540771,0.291222516 C239.093685,0.291222516 242.355378,1.63084609 244.801647,3.90238171 L243.112556,5.5914723 C241.073998,3.7276482 238.452996,2.62100264 235.540771,2.62100264 C229.250364,2.62100264 224.299582,7.63002991 224.299582,13.9786808 C224.299582,20.2690871 229.308609,25.2781144 235.540771,25.2781144 C238.569485,25.2781144 241.306976,24.0549798 243.345534,22.1329112 L245.034625,23.7637573 C242.588356,26.1517819 239.210174,27.6078945 235.540771,27.6078945 C227.968985,27.6078945 221.853312,21.4922217 221.853312,13.9786808 Z" id="Shape"></path>
                        <path d="M252.315188,13.9786808 C252.315188,6.40689534 258.43086,0.291222516 266.002646,0.291222516 C273.516187,0.291222516 279.690104,6.40689534 279.690104,13.9786808 C279.690104,21.4922217 273.574431,27.6078945 266.002646,27.6078945 C258.43086,27.6078945 252.315188,21.4922217 252.315188,13.9786808 Z M277.243835,13.9786808 C277.243835,7.63002991 272.234808,2.62100264 266.002646,2.62100264 C259.712239,2.62100264 254.761457,7.63002991 254.761457,13.9786808 C254.761457,20.2690871 259.770484,25.2781144 266.002646,25.2781144 C272.234808,25.2781144 277.243835,20.2690871 277.243835,13.9786808 Z" id="Shape"></path>
                    </g>
                </g>
            </g>
        </g>
    </g>
</svg>