<?xml version="1.0" encoding="UTF-8" standalone="no"?>
<svg width="127px" height="70px" viewBox="0 0 127 70" version="1.1" xmlns="http://www.w3.org/2000/svg" xmlns:xlink="http://www.w3.org/1999/xlink">
    <!-- Generator: Sketch 46 (44423) - http://www.bohemiancoding.com/sketch -->
    <title>RocketCode</title>
    <desc>Created with Sketch.</desc>
    <defs></defs>
    <g id="Design" stroke="none" stroke-width="1" fill="none" fill-rule="evenodd">
        <g id="Partner-Page-v2" transform="translate(-615.000000, -3535.000000)" fill-rule="nonzero">
            <g id="You'll-Be-in-Good-Company" transform="translate(322.000000, 3463.000000)">
                <g id="Logos" transform="translate(0.000000, 72.000000)">
                    <g id="RocketCode" transform="translate(293.604892, 0.000000)">
                        <path d="M84.846149,17.793134 L83.916169,16.7105791 C78.2309865,10.0691545 69.7651376,6.4712861 61.0379864,6.9876687 C52.3108352,7.5040513 44.3283419,12.0751626 39.4660285,19.3406789 L24.9350902,32.1569666 L17.2118965,38.9647112 L27.4852699,40.0690625 L30.6384835,40.4105395 L16.4417567,52.914412 L35.9495415,52.914412 L33.944272,55.3192823 L27.7468268,62.7518572 L58.5814779,62.7518572 C59.9471114,62.9617461 61.326599,63.0686078 62.7082644,63.0715379 C78.0055679,62.9908981 90.4377624,50.7071284 90.7021172,35.4118968 L90.7021172,34.0387231 L109.120082,17.793134 L84.846149,17.793134 Z" id="Shape" fill="#F8BD16"></path>
                        <path d="M62.221478,58.2182045 L64.7571267,47.6832742 L64.8007196,47.6832742 C64.8007196,47.6832742 84.9115382,41.2751304 93.208704,24.1068267 L93.208704,24.1068267 C87.9280228,21.9474915 82.26827,20.867914 76.5635141,20.9318167 C69.5132666,20.9603142 62.5259251,22.2598268 55.9368472,24.7679844 L55.3047513,25.0004794 L48.8094219,17.1755691 L27.9575254,35.5499407 L41.718324,37.0030345 L45.9904199,47.9666275 L37.4607591,58.1964081 L62.2069471,58.1964081 L62.221478,58.2182045 Z" id="Shape" fill="#000000"></path>
                        <polygon id="Shape" fill="#000000" points="30.6239526 40.4032741 27.4707389 40.061797 22.2541321 39.5023559 0 59.1336536 30.7619965 59.1336536 33.9370065 55.3265478 35.942276 52.914412 16.4417567 52.914412"></polygon>
                        <path d="M87.6578856,11.5738924 C78.8856047,2.14988916 65.5584485,-1.53898445 53.1889314,2.0331012 C40.8194144,5.60518685 31.510538,15.8309242 29.112735,28.4806392 L39.473294,19.3552099 C43.7356973,12.9833038 50.4299141,8.64362302 57.9866852,7.35347609 C65.5434563,6.06332917 73.298318,7.9361582 79.4333745,12.5329343 L75.6698614,17.8221959 L88.4861491,17.8221959 L88.4861491,17.8221959 L109.141878,17.8221959 L90.7239136,34.067785 L90.7239136,35.4409586 C90.4595589,50.7361903 78.0273643,63.01996 62.7300608,63.1005998 C61.3483954,63.0976697 59.9689078,62.990808 58.6032744,62.7809191 L42.6846314,62.7809191 C52.8161606,70.1447118 66.1660001,71.3709968 77.4695057,65.9761763 C88.7730113,60.5813558 96.2159927,49.4312878 96.863235,36.9231143 L125.576369,11.5956888 L87.6578856,11.5956888 L87.6578856,11.5738924 Z" id="Shape" fill="#000000"></path>
                        <g id="Ellipse_1" transform="translate(57.397206, 29.788424)" fill="#FFFFFF">
                            <ellipse id="Oval" cx="5.39097813" cy="4.97684638" rx="4.75888231" ry="4.76614778"></ellipse>
                        </g>
                    </g>
                </g>
            </g>
        </g>
    </g>
</svg>