<?xml version="1.0" encoding="UTF-8" standalone="no"?>
<svg width="192px" height="44px" viewBox="0 0 192 44" version="1.1" xmlns="http://www.w3.org/2000/svg" xmlns:xlink="http://www.w3.org/1999/xlink">
    <!-- Generator: Sketch 46 (44423) - http://www.bohemiancoding.com/sketch -->
    <title>Simplistic</title>
    <desc>Created with Sketch.</desc>
    <defs></defs>
    <g id="Design" stroke="none" stroke-width="1" fill="none" fill-rule="evenodd">
        <g id="Partner-Page-v2" transform="translate(-322.000000, -3549.000000)" fill-rule="nonzero" fill="#0089FF">
            <g id="You'll-Be-in-Good-Company" transform="translate(322.000000, 3463.000000)">
                <g id="Logos" transform="translate(0.000000, 72.000000)">
                    <g id="Simplistic" transform="translate(0.000000, 14.000000)">
                        <path d="M14.6679507,28.2510727 C14.6679507,27.3050216 14.3076545,26.5275174 13.5870621,25.9168088 C12.8673453,25.3056624 11.5040862,24.7741927 9.49597128,24.3241508 C6.63023766,23.6985576 4.47327622,22.8536346 3.02596254,21.7854418 C1.57821108,20.7176868 0.85499202,19.2620552 0.85499202,17.416796 C0.85499202,15.5001779 1.66883235,13.8663683 3.29913971,12.5149293 C4.92857151,11.1643658 7.05182358,10.4888652 9.67064707,10.4888652 C12.4199302,10.4888652 14.6053476,11.1945729 16.2282126,12.6055505 C17.8497643,14.0165282 18.624204,15.733079 18.5519697,17.7547652 L18.5081913,17.8856626 L14.4057181,17.8856626 C14.4057181,16.853368 13.9727498,15.9252661 13.1076887,15.1031079 C12.2417521,14.2818252 11.0960715,13.8703083 9.67020928,13.8703083 C8.14278114,13.8703083 7.0076074,14.205213 6.26643921,14.8750225 C5.52439544,15.5439563 5.15315467,16.3516677 5.15315467,17.2959676 C5.15315467,18.2275718 5.48105483,18.9630488 6.1359796,19.5006475 C6.79046657,20.0386839 8.12045416,20.5189329 10.1285691,20.9409566 C13.1103154,21.5814345 15.32988,22.4508734 16.7841982,23.5483977 C18.239392,24.6472354 18.9665511,26.1199405 18.9665511,27.9682643 C18.9665511,30.0626226 18.1190014,31.7572842 16.4247776,33.0526869 C14.7288026,34.347214 12.5140537,34.9942586 9.77965526,34.9942586 C6.76857738,34.9942586 4.39666403,34.2307635 2.66566636,32.7033353 C0.934668696,31.176345 0.113386038,29.3941266 0.200505041,27.3566801 L0.24384565,27.2266583 L4.34675666,27.2266583 C4.4194288,28.7457686 4.98592121,29.857302 6.04886059,30.5586318 C7.11048663,31.2608373 8.35423078,31.6115022 9.78009305,31.6115022 C11.307959,31.6115022 12.5035469,31.3028645 13.3699213,30.6847136 C14.2354201,30.0661249 14.6679507,29.2549113 14.6679507,28.2510727 Z M28.9602827,10.9257736 L24.6616823,10.9257736 L24.6616823,34.5363366 L28.9602827,34.5363366 L28.9602827,10.9257736 Z M39.4132496,10.9257736 L39.718385,14.0244083 C40.4893225,12.9041192 41.4677696,12.0355559 42.6537263,11.4169672 C43.839683,10.7988163 45.2178268,10.489303 46.7890333,10.489303 C48.3598021,10.489303 49.7094899,10.8535393 50.8367836,11.5802606 C51.9640772,12.3082953 52.8125025,13.3992528 53.3794327,14.853571 C54.1210386,13.5148278 55.1034258,12.4532017 56.3252807,11.6678174 C57.5466979,10.8819952 58.9725602,10.489303 60.601992,10.489303 C63.0023613,10.489303 64.9010302,11.3149635 66.2975609,12.9662845 C67.6936539,14.6171677 68.3919193,17.100716 68.3919193,20.4178048 L68.3919193,34.5363366 L64.0937566,34.5363366 L64.0937566,20.3744642 C64.0937566,18.046767 63.6936221,16.3989483 62.8937909,15.431008 C62.0926463,14.4643811 60.899685,13.9806299 59.3149072,13.9806299 C57.8448288,13.9806299 56.6558076,14.4902104 55.7469682,15.508058 C54.8376909,16.5267812 54.302719,17.8143038 54.1433656,19.3706257 L54.1433656,19.5444259 L54.1433656,34.5363366 L49.8220004,34.5363366 L49.8220004,20.3744642 C49.8220004,18.1632176 49.4109213,16.5438548 48.5896386,15.5190026 C47.7679182,14.4928371 46.585026,13.9801921 45.043151,13.9801921 C43.7333015,13.9801921 42.6572286,14.249867 41.8140567,14.7874657 C40.9700093,15.3255021 40.3220891,16.0828683 39.8716094,17.0569376 L39.8716094,34.5363366 L35.573009,34.5363366 L35.573009,10.9257736 L39.4132496,10.9257736 Z M94.7530787,23.6254477 C94.7530787,27.0292178 93.9383628,29.7749986 92.3089311,31.8623524 C90.6794993,33.9510195 88.4314788,34.9938208 85.5653074,34.9938208 C84.1114269,34.9938208 82.834849,34.7508508 81.7368869,34.2631595 C80.6380492,33.7759059 79.7029427,33.0448068 78.9328808,32.0694242 L78.9328808,43.6129109 L74.6334048,43.6129109 L74.6334048,10.9257736 L77.9290422,10.9257736 L78.6049806,13.9806299 C79.3763559,12.8463317 80.3359783,11.9803951 81.4855989,11.3841334 C82.6347817,10.7874339 83.973525,10.489303 85.5005153,10.489303 C88.424912,10.489303 90.6974484,11.6498682 92.3198757,13.9692475 C93.9414273,16.2903779 94.7530787,19.3566166 94.7530787,23.1670879 L94.7530787,23.6254477 Z M90.4544783,23.1561433 C90.4544783,20.4825968 89.9260731,18.2853593 88.8718894,16.5626795 C87.8168301,14.8408753 86.2644483,13.9801921 84.2129928,13.9801921 C82.976691,13.9801921 81.9220695,14.2603738 81.0486905,14.8194239 C80.1757494,15.378474 79.4696039,16.1445959 78.932443,17.1186651 L78.932443,28.5172454 C79.4700417,29.4913146 80.1757494,30.2504319 81.0486905,30.7941596 C81.9220695,31.3392006 82.9898245,31.6115022 84.2558956,31.6115022 C86.2929043,31.6115022 87.8343415,30.8668317 88.8823962,29.3774908 C89.9300132,27.8885876 90.4540405,25.9671539 90.4540405,23.6136275 L90.4540405,23.1561433 L90.4544783,23.1561433 Z M104.680267,34.5363366 L100.381667,34.5363366 L100.381667,0.495133627 L104.680267,0.495133627 L104.680267,34.5363366 Z M115.941383,10.9257736 L111.64147,10.9257736 L111.64147,34.5363366 L115.941383,34.5363366 L115.941383,10.9257736 Z M136.278636,28.2510727 C136.278636,27.3050216 135.917902,26.5275174 135.197747,25.9168088 C134.477593,25.3061002 133.114334,24.7741927 131.106656,24.3241508 C128.240047,23.6985576 126.083524,22.8536346 124.637086,21.7854418 C123.188896,20.7176868 122.464364,19.2620552 122.464364,17.416796 C122.464364,15.5001779 123.279518,13.8663683 124.908949,12.5149293 C126.538381,11.1643658 128.662071,10.4888652 131.281332,10.4888652 C134.030615,10.4888652 136.215595,11.1945729 137.838898,12.6055505 C139.460012,14.0165282 140.234889,15.733079 140.162655,17.7547652 L140.118877,17.8856626 L136.016403,17.8856626 C136.016403,16.853368 135.583873,15.9252661 134.717498,15.1031079 C133.851562,14.2818252 132.707195,13.8703083 131.280894,13.8703083 C129.754342,13.8703083 128.61873,14.205213 127.876249,14.8750225 C127.135081,15.5439563 126.764278,16.3516677 126.764278,17.2959676 C126.764278,18.2275718 127.090427,18.9630488 127.746665,19.5006475 C128.400276,20.0386839 129.731139,20.5189329 131.738379,20.9409566 C134.721001,21.5814345 136.93969,22.4508734 138.394883,23.5483977 C139.848764,24.6472354 140.576799,26.1199405 140.576799,27.9682643 C140.576799,30.0626226 139.728811,31.7572842 138.033712,33.0526869 C136.339488,34.347214 134.124301,34.9942586 131.389465,34.9942586 C128.378387,34.9942586 126.006911,34.2307635 124.275476,32.7033353 C122.544916,31.176345 121.72232,29.3941266 121.809877,27.3566801 L121.854093,27.2266583 L125.956129,27.2266583 C126.028363,28.7457686 126.596169,29.857302 127.658232,30.5586318 C128.720296,31.2608373 129.963603,31.6115022 131.389465,31.6115022 C132.916893,31.6115022 134.113794,31.3028645 134.979293,30.6847136 C135.845668,30.0661249 136.278636,29.2549113 136.278636,28.2510727 Z M151.597133,5.23020464 L151.597133,10.9257736 L156.07041,10.9257736 L156.07041,14.1115273 L151.597133,14.1115273 L151.597133,28.4471999 C151.597133,29.5534799 151.826094,30.3318598 152.284454,30.7823394 C152.742814,31.2336947 153.350458,31.4591534 154.106073,31.4591534 C154.353421,31.4591534 154.62616,31.4298219 154.924729,31.3720344 C155.223298,31.3138091 155.488595,31.2402614 155.721934,31.1531424 L156.288864,34.0989905 C155.968406,34.3616608 155.498664,34.576175 154.880513,34.7434084 C154.2628,34.9106419 153.640271,34.9942586 153.014678,34.9942586 C151.269233,34.9942586 149.880145,34.4671668 148.846537,33.4125453 C147.815118,32.3579238 147.297657,30.7035383 147.297657,28.4476377 L147.297657,14.1110895 L143.544098,14.1110895 L143.544098,10.9253358 L147.297657,10.9253358 L147.297657,5.22976686 L151.597133,5.22976686 L151.597133,5.23020464 Z M166.020801,10.9257736 L161.722638,10.9257736 L161.722638,34.5363366 L166.020801,34.5363366 L166.020801,10.9257736 Z M182.235004,31.6115022 C183.660429,31.6115022 184.915117,31.1724049 185.99907,30.2920214 C187.083023,29.4116379 187.625438,28.3311872 187.625438,27.051107 L191.487568,27.051107 L191.530908,27.1824421 C191.60358,29.219013 190.698681,31.0305629 188.814897,32.6157785 C186.929799,34.2014319 184.736502,34.9942586 182.235442,34.9942586 C178.801027,34.9942586 176.176075,33.8744073 174.357958,31.6333914 C172.538966,29.3941266 171.630126,26.5783003 171.630126,23.1889771 L171.630126,22.2722576 C171.630126,18.9122659 172.542906,16.1073842 174.36934,13.8602393 C176.194899,11.6130944 178.816787,10.4888652 182.23588,10.4888652 C185.000047,10.4888652 187.258575,11.3040189 189.011462,12.9330129 C190.763911,14.5624447 191.61146,16.5622417 191.553673,18.9332795 L191.509019,19.0641769 L187.626313,19.0641769 C187.626313,17.6238678 187.116295,16.3985105 186.098885,15.3867919 C185.0806,14.3763866 183.792202,13.8703083 182.236318,13.8703083 C179.981292,13.8703083 178.36981,14.6806464 177.402307,16.3004469 C176.434805,17.9211231 175.951929,19.9073488 175.951929,22.261313 L175.951929,23.1762814 C175.951929,25.5880331 176.43174,27.5978991 177.391363,29.2032528 C178.350985,30.8090442 179.964657,31.6115022 182.235004,31.6115022 Z M26.8107636,0.165044542 C25.2290502,0.165044542 23.9467811,1.44731368 23.9467811,3.02946481 C23.9467811,4.61161594 25.2290502,5.89388508 26.8107636,5.89388508 C28.3924769,5.89388508 29.6747461,4.61161594 29.6747461,3.02946481 C29.6751839,1.44731368 28.3924769,0.165044542 26.8107636,0.165044542 Z M113.791864,0.165044542 C112.210151,0.165044542 110.927444,1.44731368 110.927444,3.02946481 C110.927444,4.61161594 112.210151,5.89388508 113.791864,5.89388508 C115.373578,5.89388508 116.655847,4.61161594 116.655847,3.02946481 C116.655847,1.44731368 115.373578,0.165044542 113.791864,0.165044542 Z M163.871282,0.165044542 C162.290444,0.165044542 161.007737,1.44731368 161.007737,3.02946481 C161.007737,4.61161594 162.290444,5.89388508 163.871282,5.89388508 C165.453433,5.89388508 166.735702,4.61161594 166.735702,3.02946481 C166.735702,1.44731368 165.45387,0.165044542 163.871282,0.165044542 Z" id="Shape"></path>
                    </g>
                </g>
            </g>
        </g>
    </g>
</svg>