<?xml version="1.0" encoding="UTF-8" standalone="no"?>
<svg width="60px" height="60px" viewBox="0 0 60 60" version="1.1" xmlns="http://www.w3.org/2000/svg" xmlns:xlink="http://www.w3.org/1999/xlink">
    <!-- Generator: Sketch 46 (44423) - http://www.bohemiancoding.com/sketch -->
    <title>Exclusive Access</title>
    <desc>Created with Sketch.</desc>
    <defs></defs>
    <g id="Design" stroke="none" stroke-width="1" fill="none" fill-rule="evenodd">
        <g id="Partner-Page-v2" transform="translate(-155.000000, -2567.000000)" fill-rule="nonzero">
            <g id="Benefits" transform="translate(0.000000, 1322.000000)">
                <g id="Exclusive-Access" transform="translate(153.000000, 1245.000000)">
                    <g transform="translate(2.000000, 0.000000)">
                        <circle id="Oval" fill="#BDF0E4" opacity="0.4" cx="30" cy="30" r="30"></circle>
                        <path d="M30,28.9114286 L25.7142857,29.2928571 L25.7142857,22.26 C25.7142857,19.8824142 27.6416999,17.955 30.0192857,17.955 C32.3968716,17.955 34.3242857,19.8824142 34.3242857,22.26 L34.3242857,25.9928571 L36.6,25.9928571 L36.6,22.26 C36.6000001,19.9020471 35.3420472,17.7232087 33.3000001,16.5442322 C31.2579529,15.3652557 28.7420471,15.3652557 26.6999999,16.5442322 C24.6579528,17.7232087 23.3999999,19.9020471 23.4,22.26 L23.4,29.4942857 L21.39,29.67 L21.39,43.5985714 L30,44.3614286 L38.61,43.6028571 L38.61,29.67 L30,28.9114286 Z" id="Shape" fill="#17CC9D"></path>
                        <polygon id="Shape" fill="#7BE0CA" points="30 28.9114286 30 44.3614286 38.61 43.5985714 38.61 29.67"></polygon>
                        <path d="M32.1685714,35.7557143 C32.1731649,34.7021435 31.4198403,33.7977098 30.3828026,33.6117387 C29.3457649,33.4257675 28.3251071,34.0120742 27.9633155,35.001589 C27.601524,35.9911037 28.0032923,37.0974853 28.9157143,37.6242857 L28.9157143,39.0557143 C28.9157143,39.6545488 29.4011655,40.14 30,40.14 C30.5988345,40.14 31.0842857,39.6545488 31.0842857,39.0557143 L31.0842857,37.6242857 C31.7562175,37.2425192 32.1705315,36.5285235 32.1685714,35.7557143 L32.1685714,35.7557143 Z" id="Shape" stroke="#004E82" fill="#FFFFFF"></path>
                    </g>
                </g>
            </g>
        </g>
    </g>
</svg>