<?xml version="1.0" encoding="utf-8"?>
<!-- Generator: Adobe Illustrator 16.0.0, SVG Export Plug-In . SVG Version: 6.00 Build 0)  -->
<!DOCTYPE svg PUBLIC "-//W3C//DTD SVG 1.1//EN" "http://www.w3.org/Graphics/SVG/1.1/DTD/svg11.dtd">
<svg version="1.1" id="Layer_1" xmlns="http://www.w3.org/2000/svg" xmlns:xlink="http://www.w3.org/1999/xlink" x="0px" y="0px"
	 width="572.363px" height="368.093px" viewBox="0 0 572.363 368.093" enable-background="new 0 0 572.363 368.093"
	 xml:space="preserve">
<g>
	<path fill="#623E19" d="M0.205,362.134c0-2.877-0.205-16.029-0.205-18.906v-26.51c0.205-13.77,3.288-18.291,17.468-18.291
		c10.48,0,19.935,1.027,27.538,9.248c2.877,3.287,4.727,8.836,4.727,13.152c0,18.496-15.824,23.223-28.154,23.428l-8.837,0.205
		v16.441c0,3.287-2.672,6.576-6.371,6.576c-2.877,0-5.548-1.85-6.165-5.139V362.134z M21.783,331.925
		c8.015,0,15.208-2.262,15.208-10.893c0-9.043-11.92-10.07-19.523-10.07c-3.083,0-4.932,0-4.932,2.467v18.496H21.783L21.783,331.925
		z"/>
	<path fill="#623E19" d="M72.955,322.472v18.701c0,5.549,0.205,14.18,8.015,14.18c7.604,0,7.604-8.221,7.81-14.797l0.41-18.291
		c0.206-3.287,3.083-5.959,6.371-5.959c2.877,0,5.549,2.262,6.165,5.344v12.33c-0.205,14.592-0.411,33.908-20.756,33.908
		c-16.646,0-20.346-11.303-20.346-25.482v-19.729c0-3.289,3.288-5.959,6.166-5.959C69.256,316.923,72.955,319.183,72.955,322.472z"
		/>
	<path fill="#623E19" d="M118.988,347.542c3.083,0,4.521,1.85,6.165,3.699l1.027,1.234c2.672,2.055,5.96,3.082,9.248,3.082
		c2.261,0,6.371-0.822,6.371-2.877c0-6.371-27.127-4.521-27.127-21.783c0-10.275,9.042-14.387,17.674-14.387
		c2.26,0,4.521,0.207,6.987,1.027c3.698,1.234,13.152,5.961,13.152,11.098c0,3.699-2.672,6.166-6.165,6.166
		c-2.467,0-4.11-1.234-5.549-2.467l-1.233-0.822l0,0c-2.466-1.643-4.521-2.26-7.398-2.26c-1.85,0-5.138,0.205-5.138,1.85
		c0,1.232,3.699,2.465,8.015,3.904l2.878,1.027c7.809,2.672,16.234,6.166,16.234,16.646s-10.48,15.412-19.112,15.412
		c-7.604,0-15.002-3.082-20.14-9.041c-1.027-1.234-2.261-2.877-2.261-5.139C112.823,350.421,115.084,347.542,118.988,347.542z"/>
	<path fill="#623E19" d="M165.433,353.708c0-6.576,0.411-34.73,0.411-45.211c0-4.316,1.85-8.221,6.371-8.221
		c2.466,0,6.37,2.467,6.37,5.549v12.742c2.878-1.234,6.166-2.057,9.248-2.057c9.864,0,17.674,7.811,19.317,17.264
		c0.411,2.877,0.617,6.576,0.617,9.863v5.961c0,1.232,0,3.082,0,4.314v0.617c0,0.822,0,1.645,0,2.672
		c0,4.314-0.617,10.275-6.371,10.275c-3.904,0-6.37-2.877-6.37-6.576c0-5.139,0.41-10.275,0.41-15.414v-6.576
		c-0.205-4.932-1.849-9.863-7.192-9.863c-4.315,0-8.22,2.877-9.453,6.986c-0.411,2.055-0.616,15.414-0.616,24.455
		c0,3.699-1.85,6.988-6.371,6.988c-3.494,0-5.754-2.467-6.165-5.549v-8.221H165.433z"/>
	<path fill="#623E19" d="M241.882,315.896c10.069,0,22.812,8.219,22.812,19.521c0,7.193-6.371,11.92-12.947,11.92h-20.14
		c1.232,4.932,6.165,8.426,11.714,8.426c2.055,0,5.96-0.205,7.809-1.645c2.467-1.848,3.289-3.287,6.371-3.287
		c3.699,0,5.344,2.467,5.344,6.166c0,7.604-12.125,11.096-19.523,11.096c-14.797,0-24.661-11.096-24.661-25.277
		C218.659,329.458,227.085,315.896,241.882,315.896z M232.634,334.802c1.233,0,2.672,0,3.904,0c2.672,0,5.344,0,6.371,0
		c4.521,0,5.96,0,7.192,0c0.822,0,1.438,0,1.85,0c-0.411-3.904-6.37-6.371-10.069-6.371
		C237.977,328.431,234.483,331.103,232.634,334.802z"/>
	<path fill="#623E19" d="M299.013,315.896c10.07,0,22.812,8.219,22.812,19.521c0,7.193-6.371,11.92-12.947,11.92h-20.14
		c1.233,4.932,6.165,8.426,11.714,8.426c2.055,0,5.96-0.205,7.81-1.645c2.466-1.848,3.288-3.287,6.37-3.287
		c3.699,0,5.344,2.467,5.344,6.166c0,7.604-12.125,11.096-19.523,11.096c-14.797,0-24.661-11.096-24.661-25.277
		C275.79,329.458,284.216,315.896,299.013,315.896z M289.765,334.802c1.233,0,2.672,0,3.904,0c2.672,0,5.344,0,6.371,0
		c4.521,0,5.96,0,7.193,0c0.821,0,1.438,0,1.85,0c-0.411-3.904-6.371-6.371-10.07-6.371
		C294.902,328.431,291.409,331.103,289.765,334.802z"/>
	<path fill="#623E19" d="M374.229,337.884v14.797c0,7.398,0.411,14.797-6.576,14.797c-4.11,0-6.371-2.877-6.371-6.576
		c0-5.344,0.206-10.48,0.206-16.029v-5.549c-0.206-4.727-2.672-9.865-7.604-9.865c-7.192,0-8.426,6.576-8.631,12.947l-0.411,19.523
		c0,3.494-3.493,5.549-6.165,5.549c-3.083,0-6.165-2.467-6.165-5.961v-16.852c0-13.975,4.11-27.742,21.372-27.742
		C366.419,316.923,374.022,327.198,374.229,337.884z"/>
	<path fill="#9F706D" d="M461.774,317.538c0,4.521-1.645,9.043-4.933,12.537l-0.41,0.41c5.138,2.877,7.604,10.07,7.604,16.029v2.672
		c-0.206,2.467-1.645,5.549-2.877,7.811c-5.755,9.453-18.496,10.686-28.36,10.686h-5.549c-1.232,0-2.672,0-4.11,0
		c-4.727,0-10.069-0.617-10.069-6.166v-50.348c0-2.262,0-4.934,1.233-7.398l0,0c2.877-5.754,11.097-5.549,16.234-5.549h1.233
		C444.307,298.427,461.774,300.481,461.774,317.538z M427.044,310.962c-0.411,0-1.233,0-1.233,0v14.387c2.466,0,2.672,0,5.138-0.205
		l3.699-0.207c4.521-0.205,14.591-0.615,14.591-7.398c0-6.781-11.508-6.576-17.263-6.576H427.044L427.044,310.962z M425.605,354.94
		h6.165c7.604,0,19.729,0,19.729-8.631c0-5.549-4.727-8.221-10.069-8.631h-6.577c-0.821,0-2.671,0-4.932,0.205h-1.027
		c-1.645,0-2.672,0-3.494,0v17.057H425.605z"/>
	<path fill="#9F706D" d="M498.149,316.718c14.796,0,23.633,11.918,23.633,25.893s-7.398,25.482-22.812,25.482
		c-15.412,0-23.633-10.068-23.633-24.865C475.338,330.075,483.559,316.718,498.149,316.718z M499.177,355.558
		c7.398,0,10.069-6.166,10.069-12.947c0-7.398-3.904-13.357-11.303-13.357c-6.781,0-9.864,7.604-9.864,13.975
		C487.874,351.036,491.162,355.558,499.177,355.558z"/>
	<path fill="#9F706D" d="M552.608,353.091l-8.22,11.715c-1.439,1.85-3.083,2.877-5.549,2.877c-3.699,0-6.166-2.672-6.166-5.959
		c0-1.85,0.617-3.289,1.645-4.727l10.48-14.592l-10.48-15.002c-1.027-1.439-1.438-2.055-1.438-4.316c0-3.492,2.261-6.164,5.96-6.164
		c2.466,0,4.315,1.438,5.549,3.287c2.877,4.316,4.932,7.193,8.015,11.51c1.027-1.439,2.261-3.084,3.493-4.727l4.727-6.988
		c1.85-2.26,3.083-2.877,5.549-2.877c3.699,0,5.96,2.672,5.96,6.166c0,2.055-0.411,2.877-1.645,4.52l0,0
		c-3.493,4.934-8.015,11.51-10.275,14.592l10.07,13.975l0.616,1.027c0.616,1.232,1.645,2.467,1.438,4.109
		c0,3.494-2.671,6.166-5.959,6.166c-3.083,0-4.316-1.439-5.755-3.699L552.608,353.091z"/>
</g>
<g>
	<path fill="#FAF1E5" d="M214.845,24.486c-1.233,0-2.261,0.206-3.494,0.206c-11.714,0-23.428,0-35.142,0
		c-4.316-5.549-8.426-11.508-13.358-16.646c-8.22-8.426-17.468-8.426-25.688,0c-2.466,2.466-4.315,5.138-5.959,8.22
		c-6.371,10.892-11.303,22.195-15.002,34.32c-0.616,2.261-1.438,2.877-3.904,2.466c-4.727-0.822-9.454-1.438-14.18-2.055
		c-5.138-0.411-10.275-0.822-15.413-1.028c-2.466-0.205-4.315,1.028-4.521,3.699c-0.206,2.877,1.644,4.316,4.315,4.521
		c0.822,0,1.644,0.205,2.466,0.205c8.426,0.411,17.057,1.028,25.483,2.467c1.85,0.411,2.466,0.616,2.055,2.877
		c-0.617,3.082-2.055,4.11-5.138,3.904c-9.042-0.205-18.085,0.411-26.921,1.438c-2.877,0.411-4.727,1.645-4.521,4.727
		c0.411,3.083,2.672,3.905,5.549,3.494c7.809-1.027,15.824-1.233,23.839-1.645c3.494-0.205,3.699,0.617,2.877,3.699
		c-7.398,29.799-11.097,60.008-6.576,90.629c4.727,30.415,18.701,55.282,45.417,72.133c1.438,1.027,2.055,1.85,2.055,3.699
		c0.411,7.191,4.727,12.33,11.097,13.357c5.96,1.027,11.714-2.672,13.975-9.248c0.617-1.645,1.233-2.055,2.877-2.055
		c11.509,0.205,22.812,0.205,34.32,0.205c2.261,0,2.672,1.027,3.083,2.672c1.438,6.576,6.576,10.07,13.153,9.453
		c5.959-0.617,9.659-3.904,11.303-9.453c0.411-1.645,0.822-2.672,2.877-2.672c20.345,0,40.69,0,61.036,0
		c1.438,0,2.261,0.412,2.877,1.85c2.056,5.139,5.754,8.016,11.509,8.016c5.343,0,9.042-2.877,11.097-8.426
		c0.617-1.439,1.233-1.85,2.672-1.85c12.125,0,24.25,0,36.375,0c1.438,0,2.055,0.41,2.672,1.643
		c3.082,5.549,7.604,8.016,12.741,6.988c6.165-1.232,9.659-4.932,10.069-11.715c0.206-2.055,0.822-3.082,2.467-4.314
		c8.426-6.166,15.002-13.975,20.551-22.813c12.946-21.371,20.345-44.594,21.989-69.46c0.205-2.055,0.205-3.494,2.877-4.315
		c25.482-7.81,42.129-25.277,53.432-48.705c1.85-3.905,2.672-8.016,2.261-12.331c-0.617-7.192-4.933-12.125-11.714-14.18
		c-6.371-1.85-11.714,0-16.44,5.754c-3.288,3.905-5.549,8.426-8.426,12.536c-5.344,7.81-11.098,15.002-19.523,19.729
		c-4.727,2.672-4.933,2.672-6.371-2.466c-5.343-17.263-12.536-33.498-24.866-47.062c-23.223-25.482-53.021-36.375-86.724-37.402
		c-17.879-0.617-35.759,2.261-53.227,5.959c-2.261,0.411-3.288,0-4.521-1.85c-3.083-4.727-6.577-9.453-9.865-13.974
		c-2.055-2.877-4.727-5.138-7.604-7.193c-5.549-3.494-10.687-3.288-16.03,0.411c-2.26,1.644-4.315,3.494-5.959,5.959
		C221.626,14.21,218.338,19.348,214.845,24.486z"/>
	<path fill="#4E2F17" d="M214.845,24.486c3.494-5.138,6.782-10.275,10.275-15.413c1.644-2.466,3.699-4.315,5.959-5.959
		c5.138-3.905,10.481-3.905,16.03-0.411c3.083,1.85,5.549,4.11,7.604,7.193c3.288,4.727,6.782,9.248,9.865,13.974
		c1.233,1.85,2.466,2.261,4.521,1.85c17.468-3.904,35.142-6.576,53.227-5.959c33.703,1.027,63.501,11.919,86.724,37.402
		c12.33,13.563,19.523,29.799,24.866,47.061c1.645,5.138,1.645,5.344,6.371,2.467c8.426-4.727,14.18-12.125,19.523-19.729
		c2.877-4.11,5.138-8.632,8.426-12.536c4.727-5.755,10.069-7.604,16.44-5.755c6.781,2.056,10.892,7.193,11.714,14.181
		c0.411,4.315-0.411,8.426-2.261,12.33c-11.303,23.428-27.949,41.102-53.432,48.705c-2.672,0.822-2.672,2.466-2.877,4.315
		c-1.645,24.867-8.837,48.089-21.989,69.462c-5.344,8.836-12.125,16.645-20.551,22.811c-1.438,1.027-2.261,2.26-2.467,4.316
		c-0.616,6.576-3.904,10.48-10.069,11.713c-5.138,1.027-9.864-1.438-12.741-6.986c-0.617-1.234-1.438-1.645-2.672-1.645
		c-12.125,0-24.25,0-36.375,0c-1.644,0-2.261,0.41-2.671,1.85c-2.056,5.754-5.755,8.426-11.098,8.426
		c-5.755,0-9.453-2.877-11.509-8.016c-0.616-1.438-1.232-1.85-2.877-1.85c-20.345,0-40.69,0-61.036,0
		c-2.055,0-2.466,1.027-2.877,2.672c-1.644,5.754-5.343,9.043-11.303,9.453c-6.576,0.617-11.714-2.877-13.153-9.453
		c-0.411-1.85-0.822-2.672-3.083-2.672c-11.508,0-22.811,0-34.319-0.205c-1.644,0-2.261,0.412-2.877,2.055
		c-2.26,6.576-8.015,10.07-13.975,9.248c-6.371-1.027-10.892-6.164-11.097-13.357c0-1.645-0.617-2.672-2.055-3.699
		c-26.51-16.852-40.69-41.512-45.417-72.133c-4.727-30.62-1.027-60.83,6.576-90.628c0.822-3.083,0.617-3.905-2.877-3.699
		c-8.015,0.411-15.824,0.411-23.839,1.644c-2.671,0.411-5.138-0.616-5.549-3.493c-0.411-3.083,1.644-4.315,4.521-4.727
		c8.836-1.233,17.879-1.645,26.921-1.438c3.083,0,4.521-0.822,5.138-3.905c0.411-2.261-0.206-2.466-2.055-2.877
		c-8.426-1.438-16.852-2.055-25.483-2.466c-0.822,0-1.644,0-2.466-0.206c-2.671-0.205-4.521-1.644-4.315-4.521
		c0.206-2.672,2.055-3.905,4.521-3.699c5.138,0.205,10.275,0.616,15.413,1.027c4.727,0.411,9.454,1.027,14.18,2.055
		c2.466,0.411,3.288-0.205,3.904-2.466c3.699-11.919,8.631-23.428,15.002-34.319c1.644-2.877,3.699-5.754,5.959-8.221
		c8.22-8.426,17.468-8.426,25.688,0c4.932,5.138,9.042,11.098,13.358,16.646c0.617,1.233,1.644,1.027,2.671,1.027
		c11.098,0,21.989,0,33.087,0C213.201,25.924,214.434,25.924,214.845,24.486z M468.852,88.809
		c-2.261,3.494-5.754,6.371-6.782,10.687c-4.521,2.877-7.604,7.398-11.303,10.893c-3.082,1.232-5.959,3.082-8.426,5.343
		c-1.85,0-3.493,0.616-4.932,1.438c-2.672,1.438-5.549,1.645-8.221,0.616c-1.85-6.165-3.493-12.535-5.549-18.701
		c-7.809-23.222-21.578-41.718-42.334-54.665c-1.645-1.027-3.083-2.466-5.344-2.261c-1.232-2.055-3.699-2.26-5.754-3.083
		c-8.426-3.699-16.852-7.192-26.1-8.22c-2.877-1.85-6.37-0.617-9.453-1.85c-1.438-0.206-3.083-0.411-4.521-0.411
		c-10.069-0.617-20.14-0.617-30.209,1.233c-1.644-0.411-3.288,0-4.932,0.206c-8.837,1.027-17.674,2.877-26.511,4.727
		c-5.138,1.027-6.371,0.617-9.248-3.905c-3.699-5.343-7.193-10.686-11.098-15.824c-6.165-8.221-10.892-8.015-16.852,0.411
		c-3.083,4.521-6.165,9.042-9.042,13.769c-1.028,1.644-2.261,3.288-4.11,4.11c-3.699,0.206-7.398,0.411-11.097,0.616
		c-2.261-0.411-4.316-0.616-6.576,0c-3.699,0.411-7.398-0.822-10.892,0c-2.055-0.616-3.905-0.616-5.96,0
		c-3.699-1.233-7.398-0.205-11.097-0.616c-1.027-0.822-1.85-1.85-2.671-2.877c-4.11-5.549-8.015-10.892-12.742-15.824
		c-4.932-5.138-8.837-5.138-13.769-0.206c-3.904,3.905-6.371,9.042-8.836,13.769c-9.042,17.468-13.975,36.375-18.701,55.281
		c-7.398,29.799-10.892,59.803-5.138,90.423c4.932,26.305,17.879,47.883,41.101,61.858c3.905,2.467,6.166,4.727,5.549,9.658
		c-0.411,3.289,1.644,5.754,4.11,5.754c2.671,0.207,4.521-1.85,4.727-5.342c0.411-4.934,1.438-5.961,6.576-5.961
		c13.152,0,26.51,0.207,39.663,0.412c8.426,0,8.426,0,10.07,8.221c0,0.41,0.205,0.615,0.205,1.027
		c0.411,1.643,1.439,2.672,3.083,2.877s3.288-0.205,4.315-1.85c0.822-1.234,1.027-2.877,1.233-4.316
		c0.411-4.727,1.438-5.754,6.371-5.754c23.017,0,46.033,0,69.05,0c4.521,0,5.549,0.822,6.371,5.139
		c0.411,2.26,1.027,4.52,3.904,4.52c3.083,0,3.288-2.26,3.699-4.52c0.822-4.729,1.85-5.756,6.782-5.756c14.18,0,28.359,0,42.334,0
		c5.96,0,5.96,0,8.015,5.961c0.617,1.643,1.438,2.672,3.288,2.672s3.083-0.822,3.494-2.877c0.205-1.029,0.411-2.057,0.205-3.084
		c-0.411-2.877,0.822-4.932,3.083-6.576c8.015-5.549,14.591-12.33,19.729-20.551c12.536-19.729,19.729-41.306,21.784-64.529
		c0.411-3.904,0-8.015,1.438-11.714c1.644-1.438,3.699-2.261,5.959-2.672c3.699-0.821,6.987-2.26,10.275-3.904
		c4.727-2.261,9.864-4.11,13.358-8.221c5.343-3.493,10.275-7.604,13.152-13.563c4.727-3.082,6.987-7.604,9.248-12.535
		c3.082-3.699,4.727-8.221,5.343-12.947c0.411-3.699-1.85-7.192-4.932-8.426c-3.288-1.233-5.549-0.411-8.221,3.083
		C472.345,82.644,470.085,85.521,468.852,88.809z"/>
	<path fill="#4D2F17" d="M214.845,24.486c-0.411,1.438-1.644,1.438-2.877,1.438c-11.098,0-21.989,0-33.087,0
		c-1.027,0-2.055,0.206-2.671-1.027c11.714,0,23.428,0,35.142,0C212.584,24.897,213.817,24.691,214.845,24.486z"/>
	<path fill="#B4A699" d="M430.422,138.954c-1.438,3.904-1.027,7.809-1.438,11.714c-2.056,23.222-9.248,44.8-21.784,64.529
		c-5.138,8.221-11.919,15.002-19.729,20.551c-2.466,1.645-3.493,3.494-3.083,6.576c0.206,1.027,0,2.055-0.205,3.082
		c-0.411,1.85-1.645,2.877-3.494,2.877c-1.644,0-2.671-1.027-3.288-2.67c-1.85-5.961-1.85-5.961-8.015-5.961
		c-14.18,0-28.359,0-42.334,0c-4.933,0-5.96,0.822-6.782,5.754c-0.411,2.262-0.821,4.727-3.699,4.521
		c-2.877,0-3.493-2.26-3.904-4.521c-0.822-4.314-1.85-5.137-6.371-5.137c-23.017,0-46.033,0-69.05,0
		c-4.932,0-5.96,1.027-6.371,5.754c-0.205,1.645-0.411,3.082-1.233,4.316c-1.027,1.643-2.466,2.055-4.315,1.85
		c-1.644-0.207-2.672-1.029-3.083-2.879c0-0.41-0.206-0.615-0.206-1.027c-1.644-8.219-1.644-8.219-10.07-8.219
		c-13.153-0.207-26.511-0.207-39.663-0.412c-5.138,0-6.165,1.027-6.576,5.961c-0.206,3.492-2.055,5.547-4.727,5.342
		c-2.466-0.205-4.727-2.465-4.11-5.754c0.617-4.932-1.644-7.193-5.548-9.658c-23.428-14.18-36.375-35.553-41.102-61.858
		c-5.549-30.415-2.261-60.625,5.138-90.423c4.727-18.907,9.659-37.813,18.701-55.282c2.466-4.932,4.932-9.864,8.837-13.769
		c4.932-4.932,8.631-5.138,13.769,0.206c4.727,4.932,8.631,10.481,12.742,15.824c0.822,1.027,1.438,2.055,2.671,2.877
		c0,2.055-0.206,4.11,0,6.165c0.411,3.083,2.672,5.138,5.754,4.932s4.932-2.055,5.343-5.138c0.206-1.85,0-3.699,0-5.548
		c2.055-0.617,3.904-0.617,5.959,0c0,2.26-0.411,4.727,0.411,6.987c1.027,2.672,3.083,4.11,5.959,3.699
		c2.672-0.411,4.316-2.26,4.521-4.932c0.206-1.85,0-3.699,0-5.548c2.26-0.617,4.315-0.411,6.576,0c0,1.849,0,3.699,0.411,5.548
		c0.616,3.083,2.671,4.727,5.754,4.521c3.083-0.205,4.727-2.26,4.932-5.343c0-1.644,0-3.494,0-5.343
		c1.85-0.822,3.083-2.466,4.11-4.11c2.877-4.521,5.959-9.248,9.042-13.769c5.96-8.426,10.687-8.631,16.852-0.411
		c3.905,5.138,7.398,10.48,11.098,15.824c3.083,4.316,4.11,4.932,9.248,3.905c8.837-1.85,17.674-3.699,26.511-4.727
		c1.644-0.206,3.288-0.617,4.932-0.206c0,11.508,10.687,19.729,21.578,16.646c7.81-2.261,12.125-7.809,12.947-17.468
		c3.082,1.233,6.576,0,9.453,1.85c-0.822,1.85-0.616,3.905-0.411,5.96c0.616,7.398,6.782,13.975,14.797,15.207
		c7.398,1.027,15.207-3.083,17.673-9.659c2.261-0.206,3.699,1.233,5.344,2.261c20.756,12.947,34.73,31.443,42.334,54.665
		c2.056,6.166,3.699,12.536,5.549,18.701C429.395,124.773,429.805,131.76,430.422,138.954z M268.071,62.093
		c0.411,0,0.822-0.205,1.438-0.205c9.453-3.083,19.112-4.933,29.182-5.96c3.288-0.411,5.138-2.466,4.521-4.932
		c-0.616-2.877-2.877-3.905-5.549-3.494c-5.549,0.822-11.098,1.438-16.646,2.466c-4.727,1.028-9.454,2.467-14.18,3.905
		c-2.26,0.616-3.494,2.466-3.083,4.932C264.167,60.861,265.811,61.888,268.071,62.093z M278.963,74.629
		c6.782-0.411,13.358,0.411,19.935,1.85c3.288,0.822,5.549-0.616,5.959-3.083c0.411-3.082-1.438-4.521-4.109-5.137
		c-10.275-2.672-20.551-2.467-31.032-2.056c-2.672,0.206-4.521,1.645-4.316,4.521s2.261,3.904,4.932,3.904
		C273.209,74.629,276.086,74.629,278.963,74.629z M199.432,66.82c0-0.41,0-1.027,0-1.438c0-2.877-1.233-4.727-4.315-4.932
		c-2.466-0.206-4.316,1.85-4.521,4.727c0,0.822,0,1.644,0,2.466c-0.205,3.494-0.822,4.11-4.11,2.877
		c-2.261-0.821-4.316-0.41-5.549,1.645s-0.617,4.11,1.233,5.549c2.672,2.261,5.754,2.877,8.837,1.85
		c2.672-0.822,4.932-1.028,7.604,0c3.494,1.232,6.987,0.411,9.659-2.467c1.438-1.438,1.644-3.288,0.617-5.138
		c-1.233-1.849-2.877-2.26-4.932-1.644C199.637,71.547,199.432,71.341,199.432,66.82z M233.135,60.244
		c-4.932,0-8.631,3.905-8.426,8.837c0.206,4.727,3.905,8.426,8.631,8.426s8.631-3.904,8.631-8.631
		C241.766,63.943,237.861,60.039,233.135,60.244z M165.523,68.669c0-4.727-3.904-8.631-8.837-8.631
		c-4.727,0-8.426,3.699-8.426,8.426c0,4.933,3.699,8.631,8.426,8.837C161.413,77.301,165.523,73.602,165.523,68.669z"/>
	<path fill="#5E554B" d="M334.244,28.801c-1.027,9.659-5.138,15.208-12.946,17.468c-10.893,3.083-21.578-5.138-21.578-16.646
		c10.069-1.644,20.139-1.85,30.209-1.233C331.367,28.391,332.806,28.596,334.244,28.801z"/>
	<path fill="#5E554B" d="M375.552,41.954c-2.467,6.576-10.275,10.686-17.674,9.659c-7.81-1.233-14.181-7.604-14.797-15.208
		c-0.205-2.055-0.411-3.905,0.411-5.959c9.248,1.027,17.674,4.727,26.1,8.22C371.853,39.693,374.318,39.899,375.552,41.954z"/>
	<path fill="#5E554B" d="M450.562,110.388c3.904-3.699,6.781-8.016,11.303-10.893c4.521,3.083,8.426,6.576,11.098,11.303
		c-2.877,5.96-7.81,9.865-13.152,13.563C456.727,119.635,454.261,114.704,450.562,110.388z"/>
	<path fill="#5E554B" d="M430.422,138.954c-0.411-6.987-1.027-13.975-1.438-21.168c2.877,1.233,5.549,0.822,8.22-0.616
		c1.438-0.822,3.083-1.438,4.933-1.438c2.466,5.343,3.082,11.098,4.521,16.646c-3.288,1.644-6.781,2.877-10.274,3.904
		C434.121,136.693,432.065,137.309,430.422,138.954z"/>
	<path fill="#5E554B" d="M468.852,88.809c1.438-3.288,3.493-5.959,5.549-8.836c2.671-3.494,4.932-4.316,8.22-3.083
		c3.083,1.233,5.344,4.727,4.933,8.426c-0.616,4.727-2.261,9.248-5.344,12.947C478.1,94.769,473.578,91.687,468.852,88.809z"/>
	<path fill="#B4A699" d="M468.852,88.809c4.727,2.878,9.248,5.96,13.563,9.454c-2.261,4.932-4.521,9.453-9.248,12.535
		c-2.877-4.727-6.781-8.22-11.098-11.303C463.098,95.18,466.591,92.303,468.852,88.809z"/>
	<path fill="#B4A699" d="M446.656,132.377c-1.232-5.549-2.055-11.304-4.521-16.646c2.466-2.261,5.343-3.904,8.426-5.343
		c3.699,4.315,6.165,9.247,9.453,13.769C456.315,128.267,451.384,130.117,446.656,132.377z"/>
	<path fill="#5E554B" d="M183.197,33.528c0,1.849,0.206,3.699,0,5.548c-0.411,3.083-2.055,4.932-5.343,5.138
		c-2.877,0.206-5.343-1.85-5.754-4.932c-0.206-2.055,0-4.11,0-6.165C175.798,33.323,179.703,32.295,183.197,33.528z"/>
	<path fill="#5E554B" d="M200.048,33.528c0,1.849,0.206,3.699,0,5.548c-0.206,2.672-1.85,4.521-4.521,4.932
		c-2.877,0.411-4.933-0.822-5.96-3.699c-0.822-2.261-0.411-4.521-0.411-6.987C192.855,32.706,196.349,33.939,200.048,33.528z"/>
	<path fill="#5E554B" d="M217.722,32.912c0,1.85,0,3.494,0,5.343c-0.206,3.083-1.85,5.138-4.932,5.343s-5.138-1.438-5.754-4.521
		c-0.411-1.85-0.206-3.699-0.411-5.548C210.324,33.323,214.023,33.117,217.722,32.912z"/>
	<path fill="#503017" d="M268.071,62.093c-2.261-0.205-3.905-1.027-4.316-3.288c-0.411-2.466,0.822-4.11,3.083-4.932
		c4.727-1.438,9.454-2.877,14.18-3.905c5.548-1.232,11.097-1.644,16.646-2.466c2.877-0.411,4.933,0.411,5.549,3.494
		c0.616,2.466-1.233,4.727-4.521,4.932c-9.864,1.027-19.729,2.877-29.182,5.96C269.099,61.888,268.482,61.888,268.071,62.093z"/>
	<path fill="#4D2F17" d="M278.963,74.629c-2.877,0-5.754,0-8.837,0c-2.671,0-4.727-1.027-4.932-3.904s1.644-4.315,4.316-4.521
		c10.481-0.411,20.756-0.616,31.031,2.056c2.672,0.616,4.521,2.055,4.11,5.138c-0.411,2.671-2.671,3.904-5.959,3.082
		C292.321,75.041,285.745,74.218,278.963,74.629z"/>
	<path fill="#4D2F17" d="M199.432,66.82c0,4.521,0.411,4.728,4.727,3.494c2.055-0.616,3.699,0,4.932,1.644
		c1.233,1.85,0.822,3.699-0.616,5.138c-2.672,2.878-6.166,3.494-9.659,2.467c-2.672-1.028-4.933-0.822-7.604,0
		c-3.083,1.027-6.165,0.411-8.837-1.85c-1.85-1.645-2.466-3.494-1.233-5.549s3.083-2.466,5.549-1.645
		c3.288,1.233,4.11,0.822,4.11-2.877c0-0.822,0-1.644,0-2.466c0.206-2.877,2.055-4.933,4.521-4.727
		c2.877,0.205,4.315,2.055,4.315,4.932C199.432,65.999,199.432,66.41,199.432,66.82z"/>
	<path fill="#4D2F17" d="M233.135,60.244c4.932,0,8.837,3.699,8.837,8.426c0,4.728-3.905,8.632-8.631,8.632
		s-8.426-3.699-8.631-8.426S228.203,60.244,233.135,60.244z"/>
	<path fill="#4D2F17" d="M165.523,68.669c0,4.728-3.904,8.632-8.631,8.632c-4.727,0-8.631-3.904-8.426-8.837
		c0-4.727,3.699-8.426,8.426-8.426C161.413,60.244,165.523,63.943,165.523,68.669z"/>
</g>
</svg>
