<?xml version="1.0" encoding="utf-8"?>
<!-- Generator: Adobe Illustrator 16.0.0, SVG Export Plug-In . SVG Version: 6.00 Build 0)  -->
<!DOCTYPE svg PUBLIC "-//W3C//DTD SVG 1.1//EN" "http://www.w3.org/Graphics/SVG/1.1/DTD/svg11.dtd">
<svg version="1.1" id="Layer_1" xmlns="http://www.w3.org/2000/svg" xmlns:xlink="http://www.w3.org/1999/xlink" x="0px" y="0px"
	 width="611.809px" height="74.496px" viewBox="0 358.751 611.809 74.496" enable-background="new 0 358.751 611.809 74.496"
	 xml:space="preserve">
<g>
	<path fill="#FFFFFF" d="M0.22,426.875C0,423.798,0,409.515,0,406.438V378.31c0.22-14.723,3.516-19.558,18.679-19.558
		c11.207,0,21.315,1.099,29.446,9.889c3.077,3.516,5.054,9.449,5.054,14.064c0,19.777-16.921,24.832-30.105,25.052l-9.449,0.22
		v17.58c0,3.516-2.857,7.031-6.813,7.031c-3.076,0-5.933-1.978-6.592-5.493V426.875z M23.293,394.572
		c8.57,0,16.261-2.417,16.261-11.647c0-9.669-12.745-10.768-20.876-10.768c-3.296,0-5.274,0-5.274,2.637v19.777H23.293z"/>
	<path fill="#FFFFFF" d="M78.011,384.463v19.997c0,5.934,0.22,15.163,8.57,15.163c8.131,0,8.131-8.79,8.351-15.822l0.439-19.557
		c0.22-3.516,3.296-6.373,6.812-6.373c3.077,0,5.933,2.417,6.592,5.713v13.186c-0.22,15.602-0.439,36.258-22.194,36.258
		c-17.8,0-21.755-12.086-21.755-27.248v-21.096c0-3.516,3.516-6.373,6.593-6.373C74.055,378.53,78.011,380.947,78.011,384.463z"/>
	<path fill="#FFFFFF" d="M127.234,411.272c3.296,0,4.834,1.978,6.593,3.955l1.099,1.319c2.856,2.197,6.373,3.296,9.889,3.296
		c2.417,0,6.812-0.879,6.812-3.076c0-6.813-29.007-4.835-29.007-23.294c0-10.987,9.669-15.382,18.898-15.382
		c2.417,0,4.834,0.22,7.472,1.099c3.956,1.318,14.064,6.373,14.064,11.866c0,3.956-2.857,6.593-6.593,6.593
		c-2.637,0-4.395-1.318-5.933-2.637l-1.318-1.099l0,0c-2.637-1.758-4.834-2.417-7.911-2.417c-1.978,0-5.494,0.22-5.494,1.978
		c0,1.319,3.956,2.637,8.57,4.176l3.076,1.099c8.351,2.856,17.36,6.592,17.36,17.8c0,11.207-11.207,16.48-20.437,16.48
		c-8.131,0-16.042-3.296-21.536-9.669c-1.099-1.318-2.417-3.076-2.417-5.493C120.642,414.349,123.059,411.272,127.234,411.272z"/>
	<path fill="#FFFFFF" d="M176.897,417.865c0-7.032,0.439-37.138,0.439-48.345c0-4.615,1.978-8.79,6.813-8.79
		c2.637,0,6.812,2.637,6.812,5.933v13.625c3.077-1.318,6.593-2.198,9.889-2.198c10.548,0,18.898,8.351,20.657,18.459
		c0.439,3.076,0.659,7.031,0.659,10.548v6.372c0,1.318,0,3.297,0,4.615v0.659c0,0.879,0,1.758,0,2.856
		c0,4.615-0.659,10.987-6.813,10.987c-4.175,0-6.812-3.076-6.812-7.031c0-5.494,0.439-10.988,0.439-16.481v-7.032
		c-0.659-5.054-2.417-10.328-8.131-10.328c-4.615,0-8.79,3.077-10.108,7.472c-0.439,2.197-0.659,16.481-0.659,26.149
		c0,3.956-1.978,7.472-6.812,7.472c-3.736,0-6.153-2.637-6.593-5.933v-9.01H176.897z"/>
	<path fill="#FFFFFF" d="M258.644,377.431c10.768,0,24.392,8.79,24.392,20.876c0,7.691-6.812,12.745-13.844,12.745h-21.535
		c1.318,5.274,6.592,9.01,12.526,9.01c2.197,0,6.373-0.22,8.35-1.758c2.637-1.978,3.516-3.517,6.813-3.517
		c3.956,0,5.713,2.638,5.713,6.593c0,8.131-12.965,11.866-20.876,11.866c-15.822,0-26.37-11.866-26.37-27.028
		C233.813,391.935,242.822,377.431,258.644,377.431z M248.755,397.648c1.319,0,2.857,0,4.175,0c2.857,0,5.713,0,6.813,0
		c4.834,0,6.373,0,7.691,0c0.879,0,1.538,0,1.978,0c-0.44-4.176-6.813-6.813-10.768-6.813
		C254.469,390.836,250.733,393.692,248.755,397.648z"/>
	<path fill="#FFFFFF" d="M319.734,377.431c10.768,0,24.392,8.79,24.392,20.876c0,7.691-6.812,12.745-13.844,12.745h-21.535
		c1.318,5.274,6.592,9.01,12.525,9.01c2.197,0,6.373-0.22,8.351-1.758c2.637-1.978,3.516-3.517,6.813-3.517
		c3.955,0,5.713,2.638,5.713,6.593c0,8.131-12.965,11.866-20.876,11.866c-15.822,0-26.37-11.866-26.37-27.028
		C294.903,391.935,303.913,377.431,319.734,377.431z M309.846,397.648c1.318,0,2.856,0,4.175,0c2.857,0,5.714,0,6.813,0
		c4.835,0,6.373,0,7.691,0c0.879,0,1.538,0,1.978,0c-0.439-4.176-6.813-6.813-10.768-6.813
		C315.339,390.836,311.604,393.692,309.846,397.648z"/>
	<path fill="#FFFFFF" d="M400.162,400.944v15.822c0,7.91,0.439,15.821-7.031,15.821c-4.396,0-6.813-3.076-6.813-7.031
		c0-5.714,0.22-11.208,0.22-17.141v-5.934c-0.22-5.054-2.856-10.548-8.131-10.548c-7.691,0-9.01,7.032-9.229,13.845l-0.439,20.876
		c0,3.735-3.735,5.933-6.593,5.933c-3.296,0-6.592-2.637-6.592-6.372v-18.02c0-14.943,4.395-29.667,22.854-29.667
		C391.812,378.53,399.942,389.518,400.162,400.944z"/>
	<path fill="#FFFFFF" d="M493.775,379.189c0,4.834-1.758,9.669-5.274,13.404l-0.439,0.439c5.494,3.076,8.131,10.768,8.131,17.141
		v2.856c-0.22,2.638-1.758,5.934-3.076,8.351c-6.153,10.108-19.777,11.427-30.325,11.427h-5.934c-1.318,0-2.856,0-4.395,0
		c-5.055,0-10.768-0.659-10.768-6.592v-53.839c0-2.417,0-5.274,1.318-7.911l0,0c3.076-5.933,11.866-5.713,17.359-5.713h1.319
		C475.097,358.752,493.775,360.95,493.775,379.189z M456.638,372.157c-0.439,0-1.318,0-1.318,0v15.382c2.637,0,2.856,0,5.493-0.22
		l3.956-0.22c4.834-0.22,15.603-0.659,15.603-7.911c0-7.252-12.307-7.032-18.459-7.032H456.638z M455.1,419.184h6.593
		c8.13,0,21.096,0,21.096-9.229c0-5.934-5.055-8.79-10.768-9.229h-7.032c-0.879,0-2.856,0-5.274,0.22h-1.099
		c-1.758,0-2.856,0-3.735,0v18.239H455.1z"/>
	<path fill="#FFFFFF" d="M532.671,378.31c15.821,0,25.271,12.746,25.271,27.689c0,14.942-7.91,27.248-24.392,27.248
		s-25.271-10.768-25.271-26.589C508.278,392.594,517.068,378.31,532.671,378.31z M533.77,419.843
		c7.911,0,10.768-6.593,10.768-13.844c0-7.911-4.175-14.284-12.086-14.284c-7.252,0-10.548,8.131-10.548,14.943
		C521.684,415.008,525.199,419.843,533.77,419.843z"/>
	<path fill="#FFFFFF" d="M590.904,417.206l-8.79,12.525c-1.538,1.978-3.296,3.076-5.934,3.076c-3.955,0-6.592-2.856-6.592-6.372
		c0-1.979,0.659-3.517,1.758-5.055l11.207-15.602l-11.427-16.042c-1.099-1.539-1.538-2.198-1.538-4.615
		c0-3.736,2.417-6.593,6.372-6.593c2.637,0,4.615,1.539,5.934,3.516c3.076,4.615,5.273,7.691,8.57,12.306
		c1.099-1.539,2.417-3.296,3.735-5.054l5.055-7.472c1.978-2.417,3.296-3.077,5.933-3.077c3.956,0,6.373,2.857,6.373,6.593
		c0,2.197-0.439,3.076-1.758,4.834l0,0c-3.736,5.274-8.57,12.306-10.987,15.603l10.768,14.942l0.659,1.099
		c0.659,1.318,1.758,2.637,1.538,4.396c0,3.735-2.856,6.592-6.373,6.592c-3.296,0-4.614-1.538-6.152-3.955L590.904,417.206z"/>
</g>
</svg>
