<?xml version="1.0" encoding="utf-8"?>
<!-- Generator: Adobe Illustrator 21.1.0, SVG Export Plug-In . SVG Version: 6.00 Build 0)  -->
<svg version="1.1" id="Layer_1" xmlns="http://www.w3.org/2000/svg" xmlns:xlink="http://www.w3.org/1999/xlink" x="0px" y="0px"
	 viewBox="0 0 300 67.3" style="enable-background:new 0 0 300 67.3;" xml:space="preserve">
<style type="text/css">
	.st0{fill:#FFFFFF;}
</style>
<g>
	<g>
		<g>
			<g>
				<g>
					<g>
						<path class="st0" d="M90.3,21.9l0,9.6l9,0l0,4l-9,0l0,13.7l-4,0l-0.1-31.3l13,0l0,4L90.3,21.9z"/>
						<path class="st0" d="M111.4,49.1c-1.5,0-2.7-0.3-3.6-0.8c-0.9-0.5-1.6-1.1-2-1.7c-1.2-1.5-1.8-3.7-1.8-6.5l0-13.5
							c0-2.8,0.6-4.9,1.8-6.5c0.2-0.3,0.5-0.6,0.8-0.8c0.3-0.3,0.7-0.5,1.2-0.8c0.5-0.2,1-0.4,1.6-0.6c0.6-0.2,1.3-0.2,2-0.2
							c1.5,0,2.7,0.3,3.6,0.8c0.9,0.5,1.6,1.1,2,1.7c1.2,1.5,1.8,3.7,1.8,6.5l0,13.5c0,2.8-0.6,4.9-1.8,6.5c-0.5,0.6-1.1,1.1-2,1.7
							C114.1,48.9,112.9,49.1,111.4,49.1z M111.3,21.9c-0.3,0-0.7,0-1,0.1c-0.4,0.1-0.8,0.2-1.1,0.5c-0.4,0.3-0.7,0.8-0.9,1.4
							c-0.2,0.7-0.4,1.6-0.4,2.8l0,13.5c0,1.2,0.1,2.2,0.4,2.9c0.2,0.7,0.5,1.1,0.9,1.4c0.4,0.3,0.7,0.5,1.1,0.5
							c0.4,0.1,0.7,0.1,1,0.1c0.3,0,0.6,0,1-0.1c0.4-0.1,0.8-0.2,1.1-0.5c0.4-0.3,0.7-0.8,0.9-1.4c0.2-0.7,0.4-1.6,0.4-2.9l0-13.5
							c0-1.2-0.1-2.2-0.4-2.8c-0.2-0.7-0.5-1.1-0.9-1.4c-0.4-0.3-0.8-0.5-1.1-0.5C111.9,21.9,111.6,21.9,111.3,21.9z"/>
						<path class="st0" d="M132,49.1c-1.5,0-2.7-0.3-3.6-0.8c-0.9-0.5-1.6-1.1-2-1.7c-1.2-1.5-1.8-3.7-1.8-6.5l0-13.5
							c0-2.8,0.6-4.9,1.8-6.5c0.2-0.3,0.5-0.6,0.8-0.8c0.3-0.3,0.7-0.5,1.2-0.8c0.5-0.2,1-0.4,1.6-0.6c0.6-0.2,1.3-0.2,2-0.2
							c1.5,0,2.7,0.3,3.6,0.8c0.9,0.5,1.6,1.1,2,1.7c1.2,1.5,1.8,3.7,1.8,6.5l0,13.5c0,2.8-0.6,4.9-1.8,6.5c-0.5,0.6-1.1,1.1-2,1.7
							C134.7,48.8,133.5,49.1,132,49.1z M131.9,21.8c-0.3,0-0.7,0-1,0.1c-0.4,0.1-0.8,0.2-1.1,0.5c-0.4,0.3-0.7,0.8-0.9,1.4
							c-0.2,0.7-0.4,1.6-0.4,2.8l0,13.5c0,1.2,0.1,2.2,0.4,2.9c0.2,0.7,0.5,1.1,0.9,1.4c0.4,0.3,0.7,0.5,1.1,0.5
							c0.4,0.1,0.7,0.1,1,0.1c0.3,0,0.6,0,1-0.1c0.4-0.1,0.8-0.2,1.1-0.5c0.4-0.3,0.7-0.8,0.9-1.4c0.2-0.7,0.4-1.6,0.4-2.9l0-13.5
							c0-1.2-0.1-2.2-0.4-2.8c-0.2-0.7-0.5-1.1-0.9-1.4c-0.4-0.3-0.8-0.5-1.2-0.5C132.5,21.8,132.2,21.8,131.9,21.8z"/>
						<path class="st0" d="M160.3,21.8l-6.8,0l0.1,27.3l-4,0l-0.1-27.3l-6.8,0l0-4l17.7,0L160.3,21.8z"/>
						<path class="st0" d="M171,49.1c-0.8,0-1.6-0.1-2.3-0.3c-0.8-0.2-1.5-0.6-2.2-1.3c-0.7-0.6-1.2-1.5-1.6-2.5
							c-0.4-1.1-0.6-2.5-0.6-4.2l0-14.8c0-1.7,0.2-3.1,0.6-4.2c0.4-1.1,0.9-1.9,1.6-2.5c0.6-0.6,1.4-1,2.2-1.2
							c0.8-0.2,1.6-0.3,2.3-0.3c0.7,0,1.5,0.1,2.3,0.3c0.8,0.2,1.5,0.6,2.2,1.2c0.7,0.6,1.2,1.4,1.6,2.5c0.4,1.1,0.6,2.5,0.6,4.2
							l0,0.7l-1.5,0l0-0.7c0-2.4-0.4-4.1-1.3-5.2c-0.9-1.1-2.2-1.6-3.9-1.6c-1.7,0-3,0.5-3.9,1.6c-0.9,1.1-1.3,2.8-1.3,5.2l0,14.8
							c0,2.4,0.5,4.1,1.4,5.3c0.8,1.1,2.1,1.6,3.9,1.6c1.7,0,3-0.6,3.9-1.6c0.9-1.2,1.3-2.9,1.3-5.3l0-0.7l1.5,0l0,0.7
							c0,1.7-0.2,3.1-0.6,4.2c-0.4,1.1-0.9,1.9-1.6,2.5c-0.6,0.6-1.4,1-2.2,1.3C172.5,49,171.7,49.1,171,49.1z"/>
						<path class="st0" d="M182.8,49l-1.5,0l2.4-10.9l0-0.1l4.7-20.3l1.2,0l7.2,31.4l-1.5,0l-2.2-9.6l-8.3,0L182.8,49z M189,21.6
							L185.3,38l7.6,0L189,21.6z"/>
						<path class="st0" d="M212.3,34.7c1.4,1.3,2.1,3.2,2.1,5.5l0,8.7l-1.5,0l0-8.7c0-1.9-0.5-3.4-1.5-4.4c-1-1-2.5-1.6-4.3-1.6
							l-0.7,0l-3.5,0l0,14.7l-1.4,0l-0.1-31.4l5.6,0c2.5,0,4.4,0.7,5.5,2c1.2,1.3,1.8,3.4,1.8,6.3c0,2.8-0.6,4.9-1.7,6.2
							c-0.5,0.6-1.1,1.1-1.9,1.4C211.3,33.9,211.8,34.2,212.3,34.7z M207,32.8c2.1,0,3.6-0.5,4.4-1.6c0.9-1.1,1.4-2.9,1.4-5.3
							c0-2.5-0.5-4.2-1.4-5.3c-0.9-1.1-2.4-1.6-4.5-1.6l-4.2,0l0,13.7l3.5,0L207,32.8z"/>
						<path class="st0" d="M225.8,49l-5.4,0l-0.1-31.4l5.4,0c2.5,0,4.3,0.7,5.5,2.2c1.1,1.4,1.7,3.4,1.7,6.2l0,14.4
							c0,2.8-0.6,4.9-1.7,6.2C230.1,48.2,228.3,48.9,225.8,49z M221.9,47.5l3.9,0c2,0,3.5-0.6,4.4-1.7c0.9-1.1,1.4-2.9,1.4-5.3
							l0-14.4c0-2.4-0.5-4.2-1.4-5.3c-0.9-1.1-2.4-1.7-4.4-1.7l-3.9,0L221.9,47.5z"/>
						<path class="st0" d="M240,48.9l-0.1-31.4l1.4,0l0.1,31.4L240,48.9z"/>
						<path class="st0" d="M254.9,48.9c-2.2,0-3.9-0.7-5.1-2.1c-1.1-1.4-1.6-3.5-1.6-6.1l0-14.8c0-2.7,0.5-4.7,1.6-6.1
							c1.1-1.4,2.8-2.1,5.1-2.2c2.2,0,3.9,0.7,5,2.1c1.1,1.4,1.7,3.4,1.7,6.1l0,0.7l-1.5,0l0-0.7c0-1.5-0.2-2.7-0.5-3.6
							c-0.3-0.9-0.8-1.6-1.3-2c-0.5-0.5-1.1-0.8-1.7-0.9c-0.6-0.1-1.2-0.2-1.7-0.2c-0.6,0-1.2,0.1-1.8,0.2c-0.6,0.1-1.2,0.4-1.7,0.9
							c-0.5,0.5-0.9,1.2-1.3,2.1c-0.3,0.9-0.5,2.1-0.5,3.6l0,14.8c0,2.3,0.5,4.1,1.4,5.2c0.8,1.1,2.1,1.6,3.9,1.6
							c1.7,0,3-0.6,3.9-1.6c0.9-1.2,1.3-2.9,1.3-5.2l0-4.1l-6.8,0l0-1.5l8.3,0l0,5.6c0,2.7-0.5,4.7-1.7,6.1
							C258.8,48.2,257.1,48.9,254.9,48.9z"/>
						<path class="st0" d="M267,48.9l-1.5,0l2.4-10.9l0-0.1l4.7-20.3l1.2,0l7.2,31.4l-1.5,0l-2.2-9.6l-8.3,0L267,48.9z M273.2,21.4
							l-3.7,16.4l7.6,0L273.2,21.4z"/>
						<path class="st0" d="M288,48.8l-1.5,0l-0.1-31.4l1.3,0l10.9,26.8l-0.1-26.9l1.5,0l0.1,31.4l-1.2,0L287.9,22L288,48.8z"/>
					</g>
				</g>
			</g>
		</g>
	</g>
	<path class="st0" d="M67.3,33.6C67.2,15,52.1,0,33.6,0C15,0,0,15.1,0,33.7v0c0,18.6,15.1,33.6,33.7,33.6
		C52.3,67.2,67.3,52.1,67.3,33.6L67.3,33.6z M33.6,16.6l0,2.1l-13.6,0l0,20.7l-2.1,0l0-22.8L33.6,16.6z M19,50.9c-0.5,0-3.5,0-4.8,0
		c-0.3,0-0.6-0.1-0.6-0.4c0-0.5,0.4-0.9,1.8-1.1c2.3-0.4,2.1-1.1,2.1-3.9c0,0,0-3.8,0-4.1c0-0.4,0.2-0.6,0.6-0.6c0.2,0,0.8,0,1.3,0
		c0.3,0,0.6,0.2,0.6,0.6c0,0.2,0,8.5,0,8.5C20,50.6,19.7,50.9,19,50.9z M27.4,50.9c-1.3,0-4.3,0-4.8,0c-0.7,0-1-0.3-1-1
		c0,0,0-8.3,0-8.5c0-0.4,0.2-0.6,0.5-0.6c0.5,0,1.1,0,1.3,0c0.4,0,0.6,0.2,0.6,0.6c0,0.3,0,4.1,0,4.1c0,2.8-0.2,3.5,2.1,3.9
		c1.4,0.2,1.8,0.5,1.8,1.1C28,50.7,27.7,50.9,27.4,50.9z M23.7,36.6l0,2.8l-2.1,0l0-4.8l11.6,0l0,2.1L23.7,36.6z M23.7,22.4l0,8.4
		l9.5,0l0,2.1l-11.6,0l0-12.6l12.1,0l0,2.1L23.7,22.4z M51.3,47.8c-0.5,0.6-1.3,1.3-2.3,1.9c-1,0.6-2.4,1-4.2,1
		c-0.9,0-1.6-0.1-2.3-0.3c-0.7-0.2-1.3-0.4-1.8-0.7c-0.5-0.3-1-0.6-1.4-0.9c-0.4-0.3-0.7-0.7-0.9-1c-1.3-1.7-2-4.1-2-7.2l0-14.4
		c0-3.1,0.7-5.5,2-7.2c0.3-0.3,0.6-0.7,0.9-1c0.4-0.3,0.8-0.7,1.4-0.9c0.5-0.3,1.1-0.5,1.8-0.7c0.7-0.2,1.5-0.3,2.3-0.3
		c1.7,0,3.1,0.3,4.2,1c1,0.6,1.8,1.3,2.3,1.9c1.4,1.7,2.1,4.1,2.1,7.2l0,2.7l-2,0l0-2.7c0-2.6-0.5-4.7-1.6-6
		c-1.1-1.4-2.7-2.1-4.9-2.1c-2.2,0-3.8,0.7-4.9,2.1c-1.1,1.4-1.6,3.4-1.6,6l0,14.4c0,1.7,0.2,3,0.6,4.1c0.4,1.1,0.9,1.9,1.6,2.5
		c0.6,0.6,1.4,1,2.1,1.2c0.8,0.2,1.5,0.3,2.3,0.3c0.7,0,1.5-0.1,2.3-0.3c0.8-0.2,1.5-0.6,2.1-1.2c0.6-0.6,1.1-1.4,1.5-2.5
		c0.4-1.1,0.6-2.4,0.6-4.1l0-2.7l2,0l0,2.7C53.4,43.6,52.7,46.1,51.3,47.8z M41.8,40.6c0,1.8,0.3,3.1,0.9,3.9l0,0.1
		c0.1,0.1,0.2,0.3,0.6,0.5c0.2,0.1,0.6,0.3,1.5,0.3c0.9,0,1.3-0.1,1.5-0.3c0.3-0.2,0.5-0.4,0.7-0.6c0.6-0.8,0.9-2.1,0.9-3.9l0-2.7
		l2,0l0,2.7c0,4.5-1.6,6.6-5,6.6c-3.4,0-5-2.2-5.1-6.6l0-14.4c0-4.5,1.6-6.6,5-6.6c3.4,0,5,2.2,5.1,6.6l0,2.7l-2,0l0-2.7
		c0-1.2-0.1-2.2-0.4-2.8c-0.2-0.6-0.5-1-0.8-1.3c-0.3-0.2-0.6-0.4-0.9-0.4c-0.4-0.1-0.7-0.1-1-0.1c-0.3,0-0.6,0-1,0.1
		c-0.3,0-0.6,0.2-0.9,0.4c-0.3,0.3-0.6,0.7-0.8,1.3c-0.2,0.6-0.3,1.6-0.3,2.8L41.8,40.6z"/>
</g>
</svg>
