<?xml version="1.0" encoding="UTF-8" standalone="no"?>
<svg width="39px" height="39px" viewBox="0 0 39 39" version="1.1" xmlns="http://www.w3.org/2000/svg" xmlns:xlink="http://www.w3.org/1999/xlink">
    <!-- Generator: Sketch 47.1 (45422) - http://www.bohemiancoding.com/sketch -->
    <title>Page 1</title>
    <desc>Created with Sketch.</desc>
    <defs>
        <polygon id="path-1" points="19.4999 0 0 0 0 39 19.4999 39 38.9998 39 38.9998 0"></polygon>
    </defs>
    <g id="Features" stroke="none" stroke-width="1" fill="none" fill-rule="evenodd">
        <g transform="translate(-541.000000, -1251.000000)" id="Group-2">
            <g transform="translate(150.000000, 1250.000000)">
                <g id="Group-30">
                    <g id="Page-1" transform="translate(391.000000, 1.000000)">
                        <g id="Group-3">
                            <mask id="mask-2" fill="white">
                                <use xlink:href="#path-1"></use>
                            </mask>
                            <g id="Clip-2"></g>
                            <path d="M38.9998,19.5 C38.9998,30.27 30.2698,39 19.4998,39 C8.7298,39 -0.0002,30.27 -0.0002,19.5 C-0.0002,8.73 8.7298,0 19.4998,0 C30.2698,0 38.9998,8.73 38.9998,19.5" id="Fill-1" fill="#BDF0E4" mask="url(#mask-2)"></path>
                        </g>
                        <path d="M19.4998,15.5 C21.6968,15.5 23.4998,17.303 23.4998,19.5 C23.4998,21.697 21.6968,23.5 19.4998,23.5 C17.3028,23.5 15.4998,21.697 15.4998,19.5 C15.4998,17.303 17.3028,15.5 19.4998,15.5 L19.4998,15.5 Z M18.2918,10.833 L17.6878,12.937 C17.1408,13.088 16.6178,13.309 16.1358,13.583 L14.2288,12.521 L12.5208,14.229 L13.5828,16.136 C13.3088,16.618 13.0888,17.141 12.9378,17.688 L10.8328,18.292 L10.8328,20.708 L12.9378,21.312 C13.0888,21.859 13.3088,22.382 13.5828,22.864 L12.5208,24.771 L14.2288,26.479 L16.1358,25.417 C16.6178,25.691 17.1408,25.912 17.6878,26.063 L18.2918,28.167 L20.7078,28.167 L21.3118,26.063 C21.8598,25.912 22.3818,25.691 22.8638,25.417 L24.7708,26.479 L26.4788,24.771 L25.4168,22.864 C25.6908,22.382 25.9118,21.859 26.0618,21.312 L28.1668,20.708 L28.1668,18.292 L26.0618,17.688 C25.9118,17.141 25.6908,16.618 25.4168,16.136 L26.4788,14.229 L24.7708,12.521 L22.8638,13.583 C22.3818,13.309 21.8598,13.088 21.3118,12.937 L20.7078,10.833 L18.2918,10.833 Z" id="Fill-4" fill="#17CC9D"></path>
                        <path d="M19.4998,17.5 C18.3838,17.5 17.4998,18.384 17.4998,19.5 C17.4998,20.616 18.3838,21.5 19.4998,21.5 C20.6158,21.5 21.4998,20.616 21.4998,19.5 C21.4998,18.384 20.6158,17.5 19.4998,17.5" id="Fill-6" fill="#004E82"></path>
                    </g>
                </g>
            </g>
        </g>
    </g>
</svg>