<?xml version="1.0" encoding="UTF-8" standalone="no"?>
<svg width="39px" height="39px" viewBox="0 0 39 39" version="1.1" xmlns="http://www.w3.org/2000/svg" xmlns:xlink="http://www.w3.org/1999/xlink">
    <!-- Generator: Sketch 47.1 (45422) - http://www.bohemiancoding.com/sketch -->
    <title>Page 1</title>
    <desc>Created with Sketch.</desc>
    <defs>
        <polygon id="path-1" points="19.49995 0 0 0 0 39 19.49995 39 38.9999 39 38.9999 0"></polygon>
    </defs>
    <g id="Features" stroke="none" stroke-width="1" fill="none" fill-rule="evenodd">
        <g transform="translate(-929.000000, -1466.000000)" id="Group-2">
            <g transform="translate(150.000000, 1250.000000)">
                <g id="Group-28" transform="translate(0.000000, 216.000000)">
                    <g id="Page-1" transform="translate(779.000000, 0.000000)">
                        <g id="Group-3">
                            <mask id="mask-2" fill="white">
                                <use xlink:href="#path-1"></use>
                            </mask>
                            <g id="Clip-2"></g>
                            <path d="M38.9999,19.5 C38.9999,30.27 30.2699,39 19.4999,39 C8.7299,39 -0.0001,30.27 -0.0001,19.5 C-0.0001,8.73 8.7299,0 19.4999,0 C30.2699,0 38.9999,8.73 38.9999,19.5" id="Fill-1" fill="#BDF0E4" mask="url(#mask-2)"></path>
                        </g>
                        <polygon id="Fill-4" fill="#17CC9D" points="26.1981 22.8506 28.8211 15.1626 14.9501 15.1626 14.1911 12.8386 10.1781 12.8386 10.5741 14.2226 13.1871 14.2226 16.0051 22.8506"></polygon>
                        <polygon id="Fill-6" fill="#004E82" points="13.1874 14.2226 13.4894 15.1486 14.9454 15.1486 14.1914 12.8386 10.1784 12.8386 10.5754 14.2226"></polygon>
                        <path d="M25.1073,23.955 C24.4983,23.955 24.0033,24.449 24.0033,25.059 C24.0033,25.667 24.4983,26.161 25.1073,26.161 C25.7163,26.161 26.2113,25.667 26.2113,25.059 C26.2113,24.448 25.7163,23.955 25.1073,23.955" id="Fill-8" fill="#004E82"></path>
                        <path d="M17.1268,23.955 C16.5178,23.955 16.0228,24.449 16.0228,25.059 C16.0228,25.667 16.5178,26.161 17.1268,26.161 C17.7358,26.161 18.2308,25.667 18.2308,25.059 C18.2308,24.448 17.7358,23.955 17.1268,23.955" id="Fill-10" fill="#004E82"></path>
                    </g>
                </g>
            </g>
        </g>
    </g>
</svg>