<?xml version="1.0" encoding="UTF-8" standalone="no"?>
<svg width="39px" height="39px" viewBox="0 0 39 39" version="1.1" xmlns="http://www.w3.org/2000/svg" xmlns:xlink="http://www.w3.org/1999/xlink">
    <!-- Generator: Sketch 47.1 (45422) - http://www.bohemiancoding.com/sketch -->
    <title>Page 1</title>
    <desc>Created with Sketch.</desc>
    <defs>
        <polygon id="path-1" points="19.49995 0 0 0 0 39 19.49995 39 38.9999 39 38.9999 0"></polygon>
    </defs>
    <g id="Features" stroke="none" stroke-width="1" fill="none" fill-rule="evenodd">
        <g transform="translate(-541.000000, -1466.000000)" id="Group-2">
            <g transform="translate(150.000000, 1250.000000)">
                <g id="Group-28" transform="translate(0.000000, 216.000000)">
                    <g id="Page-1" transform="translate(391.000000, 0.000000)">
                        <g id="Group-3">
                            <mask id="mask-2" fill="white">
                                <use xlink:href="#path-1"></use>
                            </mask>
                            <g id="Clip-2"></g>
                            <path d="M38.9999,19.5 C38.9999,30.27 30.2699,39 19.4999,39 C8.7299,39 -0.0001,30.27 -0.0001,19.5 C-0.0001,8.73 8.7299,0 19.4999,0 C30.2699,0 38.9999,8.73 38.9999,19.5" id="Fill-1" fill="#BDF0E4" mask="url(#mask-2)"></path>
                        </g>
                        <path d="M16.5379,19.0058 L16.5379,14.1688 C16.5379,12.5358 17.8669,11.2068 19.4999,11.2068 C21.1329,11.2068 22.4619,12.5358 22.4619,14.1688 L22.4619,19.3618 L24.0409,19.3618 L24.0409,14.1688 C24.0409,11.6648 22.0039,9.6278 19.4999,9.6278 C16.9959,9.6278 14.9589,11.6648 14.9589,14.1688 L14.9589,19.1458 L16.5379,19.0058 Z" id="Fill-4" fill="#004E82"></path>
                        <polygon id="Fill-6" fill="#17CC9D" points="19.4999 18.7451 16.5379 19.0061 14.9589 19.1451 13.5769 19.2671 13.5769 28.8491 19.4999 29.3721 25.4239 28.8491 25.4239 19.2671"></polygon>
                        <path d="M20.993,23.4531 C20.993,22.6291 20.324,21.9601 19.5,21.9601 C18.676,21.9601 18.008,22.6291 18.008,23.4531 C18.008,24.0041 18.309,24.4801 18.754,24.7381 L18.754,25.7231 C18.754,26.1331 19.09,26.4691 19.5,26.4691 C19.91,26.4691 20.246,26.1331 20.246,25.7231 L20.246,24.7381 C20.69,24.4801 20.993,24.0041 20.993,23.4531" id="Fill-8" fill="#004E82"></path>
                        <path d="M20.993,23.4531 C20.993,22.6291 20.324,21.9601 19.5,21.9601 C18.676,21.9601 18.008,22.6291 18.008,23.4531 C18.008,24.0041 18.309,24.4801 18.754,24.7381 L18.754,25.7231 C18.754,26.1331 19.09,26.4691 19.5,26.4691 C19.91,26.4691 20.246,26.1331 20.246,25.7231 L20.246,24.7381 C20.69,24.4801 20.993,24.0041 20.993,23.4531 Z" id="Stroke-10" stroke="#004E82" stroke-width="0.25"></path>
                    </g>
                </g>
            </g>
        </g>
    </g>
</svg>