<?xml version="1.0" encoding="utf-8"?>
<!-- Generator: Adobe Illustrator 21.1.0, SVG Export Plug-In . SVG Version: 6.00 Build 0)  -->
<svg version="1.1" id="Layer_1" xmlns="http://www.w3.org/2000/svg" xmlns:xlink="http://www.w3.org/1999/xlink" x="0px" y="0px"
	 viewBox="0 0 1366 768" style="enable-background:new 0 0 1366 768;" xml:space="preserve">
<style type="text/css">
	.st0{fill:#FFFFFF;}
</style>
<g>
	<path class="st0" d="M277.2,561.7c-2.3,0.9-4.4,1.5-6.3,2.5c-9,4.7-18.2,4.6-27.4,0.9c-14.8-5.9-26.9-15.5-37.7-27
		c-6.3-6.7-11.4-14.2-15.5-22.5c-4-8.1-5.4-16.7-5.4-25.7c0-9.7,0.3-19.4-0.7-29c-1.3-12.7-3.8-25.2-5.7-37.8
		c-0.6-4-1.1-8.1-1.4-12.1c-0.5-7.6-0.9-15.3-1.1-22.9c-0.4-13-1.2-26.1-0.9-39.1c0.3-16.2,1.2-32.5,2.5-48.7
		c1.7-21.7,5.9-43.1,13-63.7c9.1-26.5,22.9-50.3,42.7-70.3c16.9-17.1,36.7-29.7,58.8-38.9c19.1-7.9,39-12.6,59.3-16
		c17.7-2.9,35.5-2.9,53.3-2.3c10.7,0.4,21.4,2.4,32,4.1c19.4,3.2,38.5,7.9,57.1,14.5c20.7,7.4,40.3,17.1,57.9,30.4
		c27.5,20.7,46.1,47.6,56.7,80.3c4.9,15,8.3,30.4,10.5,46c2.2,15.1,3.7,30.3,3.6,45.7c-0.1,11.9,0.1,23.8-0.7,35.7
		c-1.9,28.4-6.7,56.3-16.7,83.1c-2.5,6.6-5.4,13-8.5,19.3c-1,2.1-1,3.7,0,5.7c3.2,6.3,6.3,12.6,9.2,19c3.3,7.3,3.5,14.7,0.5,22.4
		c-4.8,12.4-10.6,24.1-18.8,34.4c-6.8,8.5-16.3,13.3-26.3,17.3c-10.9,4.4-21.8,3-32.7,0.3c-6.5-1.6-12.9-3.5-19.2-5.4
		c-2.5-0.8-3.9-0.3-4.6,2.2c-2.3,7.6-5.1,15.1-6.7,22.9c-2.3,11-3.5,22.2-5.4,33.3c-0.9,5.3-4,9.6-7.5,13.6
		c-7.7,8.9-17.8,13.7-28.6,17.4c-5.7,1.9-11.6,2.6-17.6,2.9c-9.2,0.5-18.3,1.8-27.5,2.2c-5.5,0.2-11.1-0.8-16.6-0.9
		c-8.9-0.2-17.8,0.2-26.6-0.1c-18.1-0.7-36.1-2.7-52.5-10.6c-18.6-8.9-32.6-22.6-37.3-43.6c-0.9-4,0-8.5,0.3-12.7
		c0.6-8.2,1.8-16.4-0.8-24.5C277.8,563.3,277.5,562.6,277.2,561.7z M493.6,150.2c0.3,1.8,0.4,2.8,0.6,3.7c0.7,6.1,0.3,12-3.1,17.3
		c-5,7.8-16.6,7.7-21.5-0.1c-3.3-5.3-3.7-11.1-3-17.1c0.6-4.7,2.4-8.8,6.2-12.4c-52.3-16.9-103.8-14.9-155.4,1.8
		c4.4,7,5.6,13.9,3.9,21.5c-2.1,9.2-9.7,14.2-17.7,11.5c-5.8-2-8.2-6.7-9.3-12.3c-0.6-3.1-0.6-6.3-0.9-9.8
		c-4.3,2.6-8.4,4.9-12.5,7.5c-3.7,2.3-4.1,3.5-2.8,8.1c1.4,0,2.9-0.1,4.4,0c1.9,0.2,3.4,1,3.3,3.3c-0.1,2.2-1.5,2.9-3.5,2.9
		c-6.4-0.2-12.8-0.3-19.3-0.4c-0.5,0-1.1,0.3-1.6,0.7c-3.1,2.7-6.1,5.5-9.2,8.2c0.9,0.8,1.7,1.5,2.4,2.2c6.4,6.7,6.7,22.4,0.5,29.3
		c-5.8,6.6-16.2,5.6-20.7-2c-1-1.7-1.7-3.5-2.8-6c-0.4,0.8-0.5,1.2-0.7,1.5c-8.5,12-15.8,24.6-20.8,38.4c-1.1,3-0.9,6.6-1.3,10.2
		c2.3,0,3.8-0.1,5.4,0c2,0.2,3.3,1.2,3.1,3.4c-0.2,2.1-1.5,2.7-3.4,2.7c-3.1,0-6.3,0-9.4,0c-3.6,12.4-6.5,24.8-8.2,37.6
		c1.9,0.1,3.3,0.1,4.8,0.3c1.8,0.3,2.8,1.4,2.6,3.3c-0.1,1.9-1.2,2.8-3.1,2.8c-1.7,0-3.4,0-5.1,0c-6.5,32.7,1.8,108,13.4,122.8
		c0.4-2.8,0.6-5.6,1.1-8.3c2-9.8,4.6-19.4,8.9-28.4c0.9-1.9,2.4-3.7,3.9-5.1c0.6-0.6,2.4-0.8,3.2-0.3c0.7,0.4,1.3,2,1.2,3
		c-0.2,1.7-1,3.3-1.5,4.9c-6.8,24.8-13.8,49.6-15.5,75.5c-0.8,12.1-0.4,24.1,2.9,35.9c5.9,21.5,20.2,32.2,42.5,32.3
		c10,0,19.7-1.7,29.1-4.9c2.6-0.9,4-0.2,5.5,1.6c4.8,5.8,6.1,12.7,7,19.8c1,8.6,1.7,17.3,2.7,25.9c0.4,3.4,1.6,6.7,2.4,10
		c0.2-0.1,0.5-0.1,0.7-0.2c0-2-0.3-4.1,0.1-6c0.8-4.1,1.4-8.4,3-12.3c1.7-4.4,5.6-5.7,10.2-4.5c3.9,1.1,4.6,1.7,3.6,5.7
		c-1.5,6.3-3.4,12.5-5.2,18.7c-1.6,5.4-3.4,10.8-2.8,16.6c0.5,4.6,3.9,8.4,8.3,9.1c0-2.5,0.1-5,0-7.5c-0.4-7.9-1.5-15.8-1.2-23.7
		c0.3-8.6,4.1-13.9,13.5-13.4c1.5,0.1,2.3,0.5,2.6,2.2c1.2,6.9-0.3,13.6-1.5,20.4c-1.3,7.5-3.3,14.9-2.9,22.7
		c0.3,5.6,3.8,9.6,9.2,10.2c2,0.2,4,0,6,0.1c1.6,0.1,2-0.6,2.2-2.2c0.5-6.3-0.9-12.4-1.9-18.6c-0.9-5.7-1.6-11.5-1.8-17.3
		c-0.1-5.3,2.6-9.4,7.4-12c1.3-0.7,2.3-0.8,3.1,0.5c1.7,2.8,3.9,5.4,4.9,8.4c2.1,6,1.9,12.3,1.5,18.6c-0.5,8.7-0.9,17.3-1.3,26
		c0,1.1,0.3,2.1,0.4,3c1.8,0.3,3.1,0.6,4.5,0.7c8.9,0.1,11.9,1.6,14.5-10c1-4.5,1.2-9.3,1.4-13.9c0.2-5.6-0.2-11.2,0.2-16.7
		c0.3-4,1-8.1,2.2-12c1.1-3.6,3.6-6.2,8.4-6.7c0,6.5,0.1,12.8,0,19c-0.2,8.2-0.9,16.3-0.8,24.5c0.2,11,7.8,16.6,17.9,13.9
		c3.7-1,6-3.3,7.2-6.9c1.5-4.3,1.1-8.6,0.2-12.8c-1.3-6.7-2.9-13.4-4.1-20.1c-0.8-4.5-0.5-9,2.7-12.6c4.2-4.7,6.2-5,9.6,0.9
		c1.9,3.3,2.7,7.7,2.8,11.7c0.3,7.4-0.4,14.8-0.2,22.2c0.1,3.5,1.2,7,2,10.4c0.2,0.9,1.3,2,2.2,2.2c4,0.7,7.9,0.8,11.8-0.8
		c1.6-0.7,2.5-1.7,2.4-3.6c-0.5-5.4-0.7-10.7-1.5-16c-1.1-7.9-3-15.6-2.4-23.7c0.5-6.4,4.5-11.4,10.4-12.4
		c2.3,14.8,0.9,30.4,8.7,44.5c2.1-4,4-7.7,6-11.4c1.7-3.2,3.8-5.8,8.1-5.1c1.4,0.2,2.1-0.6,1.9-2c-0.1-1,0-1.9-0.1-2.9
		c-1-7.1-0.6-14.1,0.8-21c4.2-21.2,17.1-34.7,37.1-42.1c1.6-0.6,2.4-0.3,3.4,1.1c8.8,12.1,21.3,16.1,34.6,10.4
		c18.3-7.9,29.9-22.1,36.1-40.9c0.6-1.9,0.2-3.4-0.8-5.1c-15-23.9-23.7-49.9-24.7-78.2c-0.2-6.1,0.5-12.3,1-18.5
		c0.4-3.8,1.4-7.5,2.1-11.2c8.3,16.4,10,34.2,13,51.7c2.4-5.1,4.5-10.2,6.5-15.4c9.8-25.4,15.6-51.8,16.8-79
		c0.6-13.1-0.5-26.2-0.9-39.4c0-0.7-0.9-1.4-1.5-2c-1.9-1.8-4.6-3.2-5.8-5.4c-4.5-8.3-4.3-16.8,0-25.2c0.4-0.8,1.1-1.8,0.9-2.6
		c-0.9-3.7-2.1-7.3-3.1-10.9c-5.4,0-10.5,0-15.5,0c-2.1,0-3.7-0.5-3.7-2.9c-0.1-2.4,1.5-3.1,3.6-3.2c1.7-0.1,3.4,0,5.3,0
		c0-6.5,0.1-12.6,0-18.6c-0.1-3-1.4-3.8-4.3-3.7c-0.9,0-2.5-0.7-2.7-1.3c-0.3-1,0.2-2.4,0.7-3.5c0.2-0.5,1.1-0.7,1.9-1.1
		c-2.8-4.5-5.4-9-8.4-13.8c-0.5,2.7-1.9,3.4-4.1,3.3c-5.5-0.1-11-0.1-16.5,0c-2.1,0-3.7-0.5-3.7-2.9c-0.1-2.4,1.6-3.1,3.6-3.2
		c1.7-0.1,3.4,0,5.3,0c0-5.3,0.1-10.3-0.1-15.3c0-1.1-0.5-2.4-1.3-3.2c-1.7-1.8-3.9-3.1-5.6-4.9c-1.9-2-3.4-4.5-5.4-6.5
		c-4.4-4.1-8.9-7.9-13.7-12c-0.4,4.1-0.9,4.5-4.4,4.5c-5.3,0-10.6,0-15.9,0c-2.1,0-3.7-0.5-3.8-2.9c-0.1-2.4,1.5-3.2,3.5-3.3
		c1.7-0.1,3.4,0,5.3,0c0-2.9,0-5.4,0-7.9c0-0.5-0.4-1.2-0.8-1.5C505.7,157,499.9,153.8,493.6,150.2z M487.1,158.2
		c-0.7-3-1.2-5.9-2.1-8.6c-0.7-2-2.2-3.5-4.6-3.5c-2.4,0-3.9,1.5-4.7,3.5c-2.3,5.8-2.3,11.7,0.1,17.4c0.8,1.9,2.2,3.2,4.6,3.3
		c2.3,0,3.9-1.3,4.6-3.2C485.8,164.2,486.3,161.2,487.1,158.2z M314.5,158.3c-0.7-3-1.1-5.9-2.1-8.7c-1.1-3.1-2.1-3.4-5.1-2
		c-1.7,0.8-4.2,1.7-4.7,3.1c-1.9,5.3-1.8,10.8,0.4,16c0.9,2,2.3,3.5,4.8,3.4c2.3,0,3.9-1.4,4.5-3.3
		C313.3,164.1,313.8,161.2,314.5,158.3z M252.2,201.7c-0.2,0-0.3-0.1-0.5-0.1c0-0.7,0.2-1.4,0-2.1c-0.8-2.7-1.4-5.5-2.5-8.1
		c-0.7-1.7-2.1-2.1-3.5-0.2c-1.7,2.2-3.7,4.2-5.5,6.3c-0.4,0.5-1,1.2-1,1.7c0.4,3.7,0.8,7.4,1.6,10.9c0.5,2,2.1,3.3,4.5,3.3
		c2.5,0,4-1.3,4.7-3.4C251.1,207.5,251.6,204.6,252.2,201.7z M566.9,213c-2-2.7-3.9-5.3-6.2-8.3c0,3.2,0,5.7,0,8.3
		C562.8,213,564.6,213,566.9,213z M519.3,169.5c1.7,0,3.2,0,5.4,0c-2.1-1.5-3.6-2.6-5.4-3.9C519.3,167.3,519.3,168.3,519.3,169.5z"
		/>
	<path class="st0" d="M508,618.6c0-11.2,0-22.3,0-33.5c0-5,1.6-6.6,6.6-6.6c21.3,0,42.5,0.4,63.8-0.1c18.1-0.4,27.6,15.9,21.5,31.6
		c-1.7,4.5-1.4,8.3,0.1,12.6c2.7,7.6,2.7,15.3-1,22.6c-4.4,8.6-11.8,13.6-21.6,13.7c-21.3,0.3-42.5,0.1-63.8,0.1
		c-3.9,0-5.6-1.8-5.6-6C508,641.6,508,630.1,508,618.6z M554.1,594.8C554.1,594.8,554.1,594.8,554.1,594.8c-6.7,0-13.4-0.1-20.1,0
		c-7.8,0.1-9.5,1.8-9.5,9.5c0,9.7-0.1,19.3-0.1,29c0,1.2,0.1,2.4,0.3,3.6c0.5,3.3,2.1,4.9,5.4,5.4c1.7,0.2,3.5,0.4,5.2,0.4
		c7.8,0,15.7,0.1,23.5,0c5.3-0.1,10.6-0.2,15.9-0.5c4.6-0.3,8.7-3.6,9.8-7.4c1.5-5.6-3.2-11.6-9.7-11.8c-11.3-0.4-22.6-0.4-33.9-0.5
		c-8-0.1-9-1-8.9-9c0.1-5.8,1.5-7.2,7.3-7.2c11.5,0,23,0,34.5-0.1c2,0,4-0.2,5.9-0.7c2.4-0.6,4-2.1,4.2-4.7c0.1-2.5-1.1-4.3-3.4-5
		c-2.1-0.6-4.2-1-6.4-1C567.3,594.7,560.7,594.8,554.1,594.8z"/>
	<path class="st0" d="M1191,528.4c0,11.2,0,22.3,0,33.5c0,5.2-1.5,6.7-6.7,6.7c-1.3,0-2.6,0-3.9,0c-4-0.1-5.7-1.8-5.7-5.8
		c-0.1-16.2-0.1-32.4-0.1-48.6c0-8.2-1.6-9.8-9.8-9.8c-13.1,0-26.1-0.1-39.2,0c-2.3,0-4.7,0.4-6.9,1.1c-2.3,0.7-3.6,2.5-3.4,5
		c0.2,2.6,1.8,4.1,4.2,4.7c1.9,0.5,4,0.7,6,0.7c11.5,0.1,23,0.1,34.5,0.1c5.7,0,6.9,1.4,7.3,7c0.5,6.5-1.6,11.4-6.9,15.6
		c-10.8,8.4-21.1,17.4-31.6,26.1c-3.3,2.7-6.9,4.2-11.3,4c-4.2-0.2-8.4,0.1-12.5-0.1c-1.2-0.1-2.5-0.9-3.7-1.4
		c0.6-1.3,0.8-2.9,1.8-3.7c8.4-7.2,17-14.2,25.4-21.3c1.5-1.2,2.9-2.5,4-4c1.9-2.5,1.1-4.4-1.9-5.2c-1.1-0.3-2.2-0.3-3.4-0.4
		c-3.3-0.2-6.6-0.2-9.9-0.5c-12.1-1-20.1-10.1-19.8-22.5c0.3-12.1,8.7-21.1,20.7-21.2c22.5-0.2,45-0.1,67.4-0.1
		c3.9,0,5.5,1.9,5.5,6.1C1191,505.6,1191,517,1191,528.4z"/>
	<path class="st0" d="M946.9,578.6c11,0,22,0,32.9,0c5,0,6.6,1.6,6.6,6.6c0,1.8,0,3.7-0.2,5.5c-0.3,2.6-2,3.9-4.6,4.1
		c-0.9,0.1-1.7,0-2.6,0c-18.3,0-36.6,0-54.9,0c-3,0-5.9,0.2-8.9,0.6c-2.9,0.4-4.8,2.4-5,4.9c-0.2,2.4,1.4,4.4,4.3,5.2
		c1.8,0.5,3.8,0.8,5.7,0.8c13,0.1,26,0.1,39,0.1c7.7,0,14.7,1.9,20,7.8c7.9,8.7,9.3,18.9,5,29.4c-4.2,10.3-12.7,15.4-23.9,15.5
		c-20.5,0.1-41,0-61.4,0c-4.5,0-6.1-1.6-6.3-6.1c-0.1-1.7-0.1-3.3,0-5c0.3-3.7,1.8-5.1,5.5-5.2c0.8,0,1.6,0,2.4,0
		c16.4,0,32.8,0,49.2,0c3.2,0,6.4-0.3,9.7-0.4c3.5-0.2,6.1-1.9,8.2-4.5c2.8-3.6,2.6-8.7-1.1-11.5c-2.2-1.7-5.1-3.2-7.7-3.3
		c-14-0.4-28.1-0.3-42.1-0.5c-3.2-0.1-6.5-0.2-9.5-1.1c-10.2-3-16.2-13.5-14.5-24.5c1.8-11.3,10-18.3,22.1-18.4
		C925.4,578.5,936.1,578.6,946.9,578.6z"/>
	<path class="st0" d="M657.6,578.1c6.5,0.5,13.1,0.4,19.5,1.5c16,2.8,29.3,18.6,30.2,34.7c0.6,9.3-0.4,18.1-5.6,26.1
		c-7.7,11.7-18.4,18.4-32.6,18.6c-9.7,0.2-19.4,0.5-29-0.6c-17.9-1.9-32-17.5-33.3-35.6c-1.1-16.6,4.8-29.8,19-38.8
		c5.7-3.6,12.1-5.3,18.8-5.5c4.3-0.1,8.5,0,12.8,0C657.6,578.4,657.6,578.3,657.6,578.1z M658.7,642.8c2-0.1,5.1-0.3,8.3-0.4
		c4.1-0.1,7.8-1.2,11.4-3.2c8.7-4.9,13.7-14.7,12.1-24.4c-1.5-8.9-10-18-19.2-19c-8.2-0.9-16.5-0.7-24.7-0.7
		c-6.2,0-11.2,2.8-15.6,6.9c-12.3,11.4-8.4,32.2,7.3,38.4C644.5,642.8,651,642.7,658.7,642.8z"/>
	<path class="st0" d="M708.8,529.1c0,11.2,0,22.3,0,33.5c0,5-1.6,6.5-6.6,6.6c-9,0.1-9.5-0.4-9.5-9.6c0-5.8,0-11.7,0-17.5
		c-0.1-7.5-1.8-9.2-9.3-9.3c-7.9-0.1-15.9-0.1-23.8,0c-7.1,0-14.3,0-21.4,0.4c-4.8,0.3-6.2,1.7-6.4,6.5c-0.3,7.5-0.2,15-0.3,22.5
		c0,5.7-1.4,7.1-7,7.1c-8.6,0-9.2-0.6-9.2-9.1c0-21.4,0-42.9,0-64.3c0-5.7,1.4-7.1,7.1-7.1c8.6,0,9.2,0.5,9.2,9.1
		c0,4.3,0.1,8.7,0.5,13c0.3,3.4,1.5,4.6,4.8,5.2c1.7,0.3,3.5,0.4,5.2,0.4c13.4,0,26.8,0,40.3,0c8.8,0,10.4-1.5,10.4-10.3
		c0-3.8-0.1-7.7,0-11.5c0.1-4.3,1.8-5.9,6.1-6c1.3,0,2.6,0,3.9,0c4.4,0.1,6,1.7,6,6C708.9,506.1,708.8,517.6,708.8,529.1z"/>
	<path class="st0" d="M777.9,659.1c-1.5,0-3-0.1-4.4,0c-4.3,0.2-7.7-1.6-10.5-4.8c-5-5.7-10.1-11.3-15.3-16.8
		c-2.7-2.9-5.2-3.1-8.2-0.5c-2,1.7-3.6,3.8-5.4,5.7c-4,4.4-8.1,8.7-12,13.1c-2,2.2-4.5,3.2-7.4,3.3c-4,0.1-8,0.1-12-0.1
		c-1.2-0.1-2.8-0.7-3.3-1.5c-0.4-0.8,0.1-2.6,0.7-3.5c2.1-2.8,4.5-5.3,6.8-7.9c6.5-7.4,13.1-14.7,19.6-22.1
		c3.1-3.5,3.2-6.3,0.3-10.1c-2.7-3.5-5.8-6.7-8.7-10c-5.5-6.2-11.1-12.3-16.7-18.4c-0.3-0.3-0.7-0.6-0.9-1c-0.5-1.4-1.7-3.1-1.3-4.2
		c0.4-1,2.5-1.7,3.9-1.7c3.6-0.2,7.3-0.1,11-0.1c3.6,0,6.5,1.5,8.9,4.2c5,5.7,10.1,11.3,15.2,16.9c3.2,3.5,6,3.8,9.5,0.6
		c2.9-2.7,5.4-5.9,8.1-8.9c2.9-3.2,6-6.3,8.9-9.6c2-2.3,4.5-3.2,7.4-3.2c3.9-0.1,7.8-0.1,11.8,0c3.7,0.1,4.7,2.1,2.6,5.1
		c-1.6,2.3-3.6,4.3-5.4,6.3c-6.8,7.7-13.6,15.4-20.5,23.1c-3.9,4.4-4,7,0,11.6c5.8,6.6,11.7,13.1,17.6,19.7c2.8,3.1,5.6,6.2,8.2,9.5
		c0.7,0.9,1.3,2.6,0.9,3.4c-0.5,0.9-2.1,1.6-3.3,1.8C781.9,659.3,779.9,659.1,777.9,659.1C777.9,659.1,777.9,659.1,777.9,659.1z"/>
	<path class="st0" d="M863.9,569.1c-7.3,0-14.6-0.2-22,0c-22.1,0.6-43.4-18.1-39.8-45.9c2.6-20.6,18.8-34.6,39.6-34.6
		c15.7,0,31.4,0,47.1,0c5.2,0,6.7,1.5,6.7,6.7c0,9-0.5,9.5-9.4,9.5c-12.7,0-25.4-0.1-38.2,0.1c-5.1,0-10.2,0.2-15.1,2.4
		c-9.1,4.2-15.4,14.7-14.2,24.4c1,8.3,8.8,18.7,19.6,20.2c3.5,0.5,7.1,0.9,10.6,0.9c13.2,0.1,26.3,0,39.5,0c5.8,0,7.1,1.3,7.2,7
		c0,8.7-0.6,9.3-9.4,9.3C878.8,569.1,871.3,569.1,863.9,569.1z"/>
	<path class="st0" d="M800.2,569.1c-7,1.4-10.2-2.4-13-8.2c-7-14.7-14.4-29.2-21.7-43.7c-0.5-0.9-1.1-1.8-1.9-2.5
		c-1.7-1.6-3.6-1.6-5,0.1c-1.5,1.8-2.8,3.8-3.8,5.9c-7,14.2-14,28.4-21,42.6c-1.9,4-4.7,6-9.3,5.7c-2.3-0.2-4.5,0.1-6.8-0.1
		c-3.1-0.2-4.4-2.1-3.3-4.9c1.4-3.5,3.1-6.8,4.8-10.1c9.8-19.8,19.7-39.6,29.3-59.4c2.1-4.3,5.1-6.4,9.9-6c2.3,0.2,4.7,0,7.1,0
		c3.5,0.1,6,1.6,7.5,4.7c11.4,23.2,22.9,46.3,34.2,69.5c2.1,4.3,0.8,6.2-4,6.3C802.3,569.1,801.2,569.1,800.2,569.1z"/>
	<path class="st0" d="M925.2,529c0-1.3,0-2.6,0-3.9c0-3.7,1.9-6.2,5.2-7.7c6.2-2.9,12.5-5.8,18.7-8.7c13-6,25.9-11.9,38.9-17.9
		c4.8-2.2,6.7-0.9,6.7,4.3c0,1.7-0.1,3.5,0,5.2c0.4,4.7-1.9,7.5-6.1,9.3c-9.1,3.9-18.2,7.9-27.2,12c-2.5,1.1-5.1,2.2-7.6,3.5
		c-3.8,1.9-4.1,5.1-0.5,7.3c2.3,1.4,4.8,2.4,7.3,3.5c9.8,4.4,19.5,8.8,29.3,13.1c3,1.3,4.7,3.6,4.8,6.9c0.1,2.7,0.1,5.4,0,8.1
		c-0.2,3.7-2.2,5.1-5.6,3.6c-9.4-4.2-18.8-8.6-28.2-12.9c-9.9-4.6-19.6-9.4-29.6-13.7c-4.6-2-6.5-5.2-6.2-10
		C925.1,530.2,925.1,529.6,925.2,529C925.1,529,925.2,529,925.2,529z"/>
	<path class="st0" d="M839.9,642.8c13.3,0,26.7,0,40,0c5.4,0,6.8,1.5,6.8,6.9c0,8.9-0.5,9.4-9.5,9.4c-25.5,0-51.1,0-76.6,0
		c-6.3,0-7.6-1.2-7.6-7.4c0-8.2,0.7-8.9,8.9-8.9C814.6,642.8,827.2,642.8,839.9,642.8z"/>
	<path class="st0" d="M1047.2,552.8c13.2,0,26.5,0,39.7,0c5.4,0,6.8,1.4,6.8,6.8c0,8.9-0.5,9.5-9.4,9.5c-25.7,0-51.4,0-77.1,0
		c-5.7,0-7.1-1.4-7.1-7.1c0-8.6,0.5-9.2,9.2-9.2C1021.9,552.8,1034.5,552.8,1047.2,552.8z"/>
	<path class="st0" d="M840,578.6c13.3,0,26.7,0,40,0c5.2,0,6.7,1.5,6.7,6.7c0,9-0.5,9.5-9.4,9.5c-25.7,0-51.4,0-77.1,0
		c-5.7,0-7.1-1.4-7.1-7.1c0-8.4,0.6-9.1,9-9.1C814.7,578.6,827.3,578.6,840,578.6z"/>
	<path class="st0" d="M1047.2,504.8c-13.3,0-26.7,0-40,0c-5.6,0-7-1.5-7.1-6.9c0-8.7,0.5-9.3,9.3-9.3c25.7,0,51.4,0,77.1,0
		c5.9,0,7.2,1.3,7.2,7.3c0,8.2-0.7,8.9-8.9,8.9C1072.3,504.8,1059.7,504.8,1047.2,504.8z"/>
	<path class="st0" d="M1046.7,532.6c-13.2,0-26.5,0-39.7,0c-5.6,0-6.9-1.4-6.9-7c0-8.7,0.6-9.3,9.4-9.3c25.7,0,51.4,0,77.1,0
		c1.8,0,3.8,0.3,5.2,1.1c3.2,1.9,2.9,12.4-0.3,14.2c-1.3,0.7-3,0.8-4.5,0.8C1073.6,532.7,1060.2,532.6,1046.7,532.6z"/>
	<path class="st0" d="M839.8,622.6c-13.3,0-26.6,0-40,0c-5.4,0-6.8-1.4-6.8-6.8c0-8.9,0.5-9.4,9.5-9.4c25.6,0,51.2,0,76.8,0
		c6,0,7.4,1.3,7.4,7.4c0,8.2-0.7,8.9-8.9,8.9C865.1,622.6,852.5,622.6,839.8,622.6z"/>
	<path class="st0" d="M917.5,528.9c0,11.5,0,23,0,34.5c0,4-1.7,5.7-5.8,5.8c-1.7,0-3.5,0.1-5.2,0c-3.4-0.2-5-1.8-5.2-5.3
		c0-0.6,0-1.2,0-1.8c0-22.1,0-44.2,0-66.4c0-5.8,1.3-7.1,7.1-7.1c8.5,0,9.1,0.6,9.1,9.2C917.5,508.2,917.5,518.5,917.5,528.9z"/>
	<path class="st0" d="M504.6,500.3c-25.3-1.2-46.8-8.1-64.3-25.1c-8.1-7.8-11.9-17.7-13.4-28.7c-1.1-7.8-1.4-15.6,0.8-23.2
		c3.5-12.1,12.1-19.9,23.1-25.1c9.1-4.2,18.7-6.1,28.7-6.4c16.6-0.5,32.4,2.6,47.4,9.5c16.8,7.7,27.8,20.2,30.9,38.9
		c3.9,23.1-6.3,52.1-39.2,58.3C513.6,499.4,508.4,499.8,504.6,500.3z"/>
	<path class="st0" d="M299,389.9c21.1,0.4,39.4,7,54,22.6c5.6,6,9.9,13,12.7,20.8c0.3,0.8,0.3,2.1-0.1,2.9
		c-12.3,21.7-28.6,39.3-51.2,50.5c-12,5.9-24.7,9.6-37.9,11.4c-4.4,0.6-8.8,1.2-13.2,1.5c-1.4,0.1-3.1-0.5-4.3-1.3
		c-10-6.7-17-16.1-22.3-26.7c-2.4-4.7-4.5-9.6-6.4-14.5c-4-10-2.5-19.5,2.6-28.7c11.5-21,29.8-32.4,52.8-36.9
		C290,390.5,294.5,390.4,299,389.9z"/>
	<path class="st0" d="M405.2,560.6c-10.4-1.5-15.6-8.1-17.8-17.4c-1-4.3-1.6-8.9-1.7-13.4c-0.1-9.4,0.4-18.7,0.4-28.1
		c0-8-0.3-15.9-0.5-24.2c2.3,3.1,4.6,6.1,6.8,9.3c7.8,11.6,14.1,23.9,17,37.7c2.3,10.9,1.9,21.7-2.4,32.2
		C406.4,558,405.8,559.3,405.2,560.6z"/>
	<path class="st0" d="M379.2,482.9c0.9,4.2,2.2,8.6,2.6,13.1c0.7,7.9,1.2,16,1,23.9c-0.1,8.1-1.2,16.3-4.6,23.8
		c-1.9,4.2-4.7,7.7-8.7,10.2c-5.2,3.2-9.6,1.8-11.6-3.9c-3.1-9.2-2.5-18.4,1.3-27.2c3.2-7.3,7.5-14.1,11.1-21.2
		C373.5,495.6,376.3,489.3,379.2,482.9z"/>
	<path class="st0" d="M430.6,333.9c-0.7,5.6-1.6,10.9-5.6,15c-5.5,5.7-15.5,4.9-19.7-1.9c-4.8-7.9-4.7-16.4-1-24.7
		c2.2-4.9,6.4-7.3,11.7-7.2c5.7,0.1,9.8,3,11.9,8.2C429.3,326.7,429.8,330.3,430.6,333.9z M422.7,333.9c-0.7-3-1.2-5.9-2.1-8.6
		c-0.7-2-2.2-3.5-4.6-3.5c-2.4,0-3.9,1.5-4.7,3.5c-2.4,5.8-2.3,11.7,0.1,17.4c0.8,1.9,2.2,3.3,4.6,3.3c2.3,0,3.9-1.3,4.6-3.2
		C421.5,339.9,422,336.9,422.7,333.9z"/>
	<path class="st0" d="M309.3,290.5c-0.6,4.7-1.4,9.1-4,13c-5.1,7.7-16.8,7.7-21.5-0.2c-4.6-7.9-4.5-16.3-0.8-24.5
		c2.2-4.9,6.5-7.3,11.8-7.2c5.6,0.1,9.8,3,11.8,8.3C307.9,283.4,308.4,287,309.3,290.5z M301.4,290.5c-0.7-3-1.2-5.9-2.1-8.6
		c-0.7-2-2.2-3.5-4.6-3.5c-2.4,0-3.9,1.4-4.7,3.5c-2.3,5.8-2.3,11.7,0.1,17.4c0.8,1.9,2.2,3.3,4.6,3.3c2.3,0,3.9-1.3,4.6-3.2
		C300.2,296.5,300.7,293.5,301.4,290.5z"/>
	<path class="st0" d="M499.6,333.7c-0.5,4.8-1.3,9.3-4,13.3c-5.1,7.7-16.8,7.7-21.5-0.3c-4.6-7.9-4.5-16.3-0.7-24.5
		c2.2-4.9,6.5-7.2,11.8-7.1c5.6,0.1,9.8,3.1,11.8,8.3C498.3,326.7,498.8,330.3,499.6,333.7z M491.8,334c-0.7-3-1.3-6.1-2.3-9
		c-0.7-1.9-2.2-3.3-4.6-3.3c-2.3,0-3.8,1.4-4.6,3.3c-2.4,5.9-2.4,11.8,0,17.7c0.8,1.9,2.3,3.2,4.6,3.2c2.3,0,3.9-1.3,4.6-3.3
		C490.5,339.9,491.1,337,491.8,334z"/>
	<path class="st0" d="M327.1,333.8c-0.6,4.7-1.3,9.1-3.9,13.1c-5.1,7.9-16.9,7.9-21.6-0.2c-4.6-7.8-4.4-16.1-0.8-24.2
		c2.2-5,6.5-7.4,11.9-7.3c5.5,0.2,9.7,3,11.7,8.2C325.7,326.6,326.2,330.3,327.1,333.8z M319.2,334.1c-0.7-3-1.1-5.9-2-8.6
		c-0.7-2.2-2.2-3.7-4.8-3.7c-2.6,0-4,1.6-4.8,3.8c-2.2,5.6-2.1,11.3,0.1,17c0.8,2,2.3,3.5,4.7,3.4c2.5,0,4-1.5,4.6-3.5
		C318,339.7,318.5,336.9,319.2,334.1z"/>
	<path class="st0" d="M292.6,333.8c-0.6,4.7-1.4,9.1-3.9,13c-5.1,7.8-16.9,7.9-21.6-0.2c-4.5-7.8-4.4-16.1-0.8-24.2
		c2.2-4.9,6.4-7.3,11.7-7.3c5.6,0.1,9.9,2.9,11.9,8.2C291.2,326.6,291.7,330.3,292.6,333.8z M284.7,333.8c-0.7-3-1.3-6-2.2-8.8
		c-0.7-1.9-2.2-3.3-4.6-3.3c-2.3,0-3.8,1.4-4.6,3.3c-2.4,5.9-2.4,11.8,0,17.7c0.8,1.9,2.3,3.2,4.6,3.2c2.3,0,3.9-1.3,4.6-3.3
		C283.4,339.8,284,336.9,284.7,333.8z"/>
	<path class="st0" d="M211,290.5c0.6-4.6,1.3-9,3.8-12.8c5-8,16.7-8.2,21.6-0.1c4.8,7.8,4.7,16.2,0.8,24.4c-2.3,5-6.6,7.4-12.2,7.2
		c-5.4-0.2-9.3-3.1-11.2-8C212.3,297.8,211.8,294.1,211,290.5z M232.4,290.5c-0.7-3-1.2-6-2.2-8.8c-0.7-1.9-2.2-3.3-4.5-3.3
		c-2.4,0-3.9,1.4-4.7,3.4c-2.4,5.8-2.3,11.7,0,17.4c0.8,1.9,2.2,3.3,4.5,3.3c2.5,0,4-1.3,4.7-3.4
		C231.2,296.4,231.7,293.5,232.4,290.5z"/>
	<path class="st0" d="M568.7,333.6c-0.5,4.7-1.3,9.1-3.8,13.1c-5.1,8-17,8.1-21.7-0.1c-4.5-7.8-4.4-16.1-0.7-24.2
		c2.2-4.9,6.4-7.3,11.7-7.2c5.7,0.1,9.8,3,11.9,8.3C567.3,326.6,567.8,330.2,568.7,333.6z M560.8,334.1c-0.7-3-1.2-5.9-2-8.7
		c-0.7-2.2-2.3-3.7-4.8-3.7c-2.4,0-3.8,1.6-4.6,3.6c-2.3,5.7-2.2,11.5,0.1,17.2c0.8,1.9,2.2,3.3,4.5,3.4c2.5,0.1,4.1-1.3,4.8-3.3
		C559.6,339.9,560.1,337,560.8,334.1z"/>
	<path class="st0" d="M418.1,290.7c0.8-3.7,1.2-7.1,2.4-10.4c2-5.4,6-8.5,11.8-8.7c5.4-0.1,9.7,2.3,12,7.3
		c3.6,7.6,3.6,15.5-0.1,23.1c-2.4,5-6.7,7.4-12.3,7.1c-5.4-0.3-9.2-3.1-11.1-8C419.5,297.8,418.9,294.2,418.1,290.7z M439.5,290.6
		c-0.7-3-1.2-6-2.1-8.8c-0.7-2-2.2-3.5-4.7-3.5c-2.4,0-3.9,1.5-4.7,3.5c-2.3,5.7-2.3,11.5,0,17.2c0.8,2,2.3,3.5,4.7,3.4
		c2.5,0,4-1.5,4.7-3.5C438.3,296.3,438.8,293.5,439.5,290.6z"/>
	<path class="st0" d="M481.9,290.3c-0.5,4.8-1.3,9.3-4,13.3c-5.1,7.7-16.8,7.7-21.5-0.3c-4.6-7.9-4.5-16.3-0.7-24.5
		c2.2-4.9,6.5-7.3,11.8-7.1c5.6,0.1,9.8,3.1,11.8,8.3C480.5,283.3,481,286.9,481.9,290.3z M474,290.7c-0.7-3-1.2-6-2.1-8.9
		c-0.7-2-2.2-3.5-4.7-3.5c-2.4,0-3.9,1.5-4.7,3.5c-2.3,5.8-2.3,11.7,0.1,17.4c0.8,1.9,2.3,3.2,4.6,3.2c2.3,0,3.9-1.3,4.6-3.3
		C472.8,296.5,473.3,293.6,474,290.7z"/>
	<path class="st0" d="M516.4,290.5c-0.7,5.6-1.6,10.9-5.6,15c-5.5,5.7-15.5,4.9-19.7-1.9c-4.8-7.9-4.7-16.4-1-24.7
		c2.2-4.9,6.4-7.3,11.7-7.2c5.7,0.1,9.8,3,11.9,8.3C515,283.3,515.5,287,516.4,290.5z M508.5,290.6c-0.7-3-1.2-6-2.2-8.8
		c-0.7-1.9-2.2-3.3-4.5-3.4c-2.4-0.1-3.9,1.4-4.8,3.4c-2.4,5.8-2.4,11.6,0,17.4c0.8,1.9,2.2,3.3,4.5,3.3c2.5,0,4-1.3,4.7-3.4
		C507.3,296.4,507.8,293.5,508.5,290.6z"/>
	<path class="st0" d="M223.5,333.7c-0.5,4.8-1.3,9.3-4,13.3c-5.1,7.7-16.8,7.6-21.5-0.3c-4.6-7.8-4.5-16.1-0.8-24.2
		c2.2-5,6.5-7.5,11.9-7.3c5.7,0.1,9.8,3.1,11.8,8.4C222.2,326.7,222.7,330.3,223.5,333.7z M215.7,333.9c-0.7-3-1.2-5.9-2.1-8.6
		c-0.7-2-2.2-3.5-4.6-3.5c-2.4,0-3.9,1.5-4.7,3.5c-2.3,5.8-2.3,11.7,0.1,17.4c0.8,1.9,2.2,3.3,4.6,3.3c2.3,0,3.9-1.3,4.6-3.2
		C214.4,339.9,214.9,336.9,215.7,333.9z"/>
	<path class="st0" d="M495.5,246.6c-0.7,5.5-1.6,10.7-5.4,14.8c-5.6,6-15.8,5.1-20-2c-4.6-7.9-4.5-16.2-0.8-24.5
		c2.2-4.9,6.5-7.3,11.7-7.2c5.6,0.1,9.8,3,11.8,8.3C494.1,239.4,494.6,243,495.5,246.6z M487.6,246.6c-0.7-2.9-1.2-5.8-2.1-8.6
		c-0.7-2-2.2-3.5-4.6-3.6c-2.6,0-4,1.5-4.8,3.7c-2.2,5.6-2.2,11.3,0,17c0.8,2,2.2,3.5,4.7,3.5c2.6,0,4.1-1.5,4.8-3.6
		C486.4,252.3,486.9,249.4,487.6,246.6z"/>
	<path class="st0" d="M397.1,246.8c0.8-3.7,1.2-7.1,2.4-10.4c2-5.4,6-8.5,11.8-8.7c5.4-0.1,9.7,2.3,12,7.3
		c3.6,7.6,3.6,15.5-0.1,23.1c-2.4,5-6.7,7.4-12.3,7.1c-5.4-0.3-9.2-3.1-11.1-8C398.5,253.9,398,250.2,397.1,246.8z M418.6,246.7
		c-0.7-3-1.2-5.9-2-8.7c-0.7-2.2-2.3-3.7-4.8-3.7c-2.4,0-3.8,1.6-4.6,3.6c-2.3,5.7-2.2,11.5,0.1,17.2c0.8,1.9,2.2,3.3,4.5,3.4
		c2.5,0.1,4.1-1.3,4.8-3.3C417.3,252.5,417.8,249.6,418.6,246.7z"/>
	<path class="st0" d="M362.6,246.6c0.6-4.6,1.3-9,3.7-12.8c5-8,16.7-8.2,21.6-0.2c4.8,7.8,4.7,16.2,0.9,24.4
		c-2.4,5.1-6.8,7.6-12.5,7.2c-5.4-0.3-9.2-3.2-11.1-8.1C364,253.8,363.5,250.1,362.6,246.6z M384,246.6c-0.7-3-1.2-5.9-2.1-8.6
		c-0.7-2-2.2-3.5-4.6-3.5c-2.4,0-3.9,1.5-4.7,3.5c-2.4,5.8-2.3,11.7,0.1,17.4c0.8,1.9,2.2,3.3,4.6,3.3c2.3,0,3.9-1.3,4.6-3.2
		C382.8,252.6,383.3,249.6,384,246.6z"/>
	<path class="st0" d="M288.4,246.5c-0.7,5.6-1.6,10.9-5.6,15c-5.5,5.7-15.5,4.9-19.7-1.9c-4.8-7.9-4.7-16.4-1-24.7
		c2.2-4.9,6.4-7.3,11.7-7.2c5.7,0.1,9.8,3,11.9,8.2C287,239.4,287.5,243,288.4,246.5z M280.5,246.6c-0.7-3-1.2-5.9-2.1-8.6
		c-0.7-2-2.2-3.5-4.7-3.5c-2.4,0-3.9,1.5-4.7,3.5c-2.3,5.8-2.3,11.7,0.1,17.4c0.8,1.9,2.2,3.2,4.6,3.3c2.3,0,3.9-1.3,4.6-3.2
		C279.3,252.5,279.8,249.6,280.5,246.6z"/>
	<path class="st0" d="M253.8,246.4c-0.5,4.8-1.3,9.3-4,13.3c-5.1,7.7-16.8,7.6-21.5-0.4c-4.6-7.8-4.4-16.1-0.8-24.2
		c2.2-5,6.5-7.4,11.9-7.3c5.7,0.2,9.8,3.1,11.8,8.4C252.5,239.4,253,243,253.8,246.4z M246,246.5c-0.7-3-1.2-5.9-2.1-8.6
		c-0.7-2-2.2-3.5-4.7-3.5c-2.4,0-3.9,1.5-4.7,3.5c-2.3,5.8-2.3,11.7,0.1,17.4c0.8,1.9,2.3,3.2,4.6,3.2c2.3,0,3.9-1.3,4.6-3.2
		C244.7,252.5,245.3,249.5,246,246.5z"/>
	<path class="st0" d="M536.3,201.5c-0.6,4.7-1.4,9.1-3.9,13c-5.1,7.8-16.9,7.8-21.6-0.3c-4.5-7.8-4.4-16.1-0.7-24.2
		c2.2-4.9,6.4-7.3,11.7-7.2c5.7,0.1,9.8,3,11.9,8.2C534.9,194.4,535.4,198,536.3,201.5z M528.4,201.7c-0.7-3-1.3-6.1-2.3-9
		c-0.7-1.9-2.2-3.3-4.6-3.3c-2.3,0-3.8,1.4-4.6,3.3c-2.4,5.9-2.4,11.8,0,17.7c0.8,1.9,2.3,3.2,4.6,3.2c2.3,0,3.9-1.3,4.6-3.3
		C527.1,207.6,527.7,204.7,528.4,201.7z"/>
	<path class="st0" d="M467.2,201.5c-0.6,4.7-1.4,9.1-3.9,13c-5.1,7.8-16.9,7.8-21.6-0.3c-4.5-7.8-4.4-16.1-0.7-24.2
		c2.2-4.9,6.4-7.3,11.7-7.2c5.6,0.1,9.9,2.9,11.9,8.2C465.9,194.4,466.4,198,467.2,201.5z M459.4,201.6c-0.7-3-1.2-5.9-2.1-8.6
		c-0.7-2-2.2-3.5-4.6-3.5c-2.4,0-3.9,1.4-4.7,3.5c-2.3,5.8-2.3,11.7,0.1,17.4c0.8,1.9,2.2,3.3,4.6,3.3c2.3,0,3.9-1.3,4.6-3.2
		C458.1,207.6,458.6,204.6,459.4,201.6z"/>
	<path class="st0" d="M432.7,201.5c-0.7,5.6-1.6,10.9-5.6,15c-5.5,5.7-15.5,4.9-19.7-1.9c-4.8-7.9-4.7-16.4-1-24.7
		c2.2-4.9,6.4-7.3,11.7-7.2c5.7,0.1,9.8,3,11.9,8.2C431.4,194.4,431.9,198,432.7,201.5z M424.8,201.6c-0.7-2.9-1.2-5.8-2.1-8.6
		c-0.7-2-2.2-3.5-4.6-3.6c-2.6,0-4,1.5-4.8,3.7c-2.2,5.6-2.2,11.3,0,17c0.8,2,2.2,3.5,4.7,3.5c2.6,0,4.1-1.5,4.8-3.6
		C423.7,207.3,424.1,204.5,424.8,201.6z"/>
	<path class="st0" d="M329.1,201.3c-0.5,4.8-1.3,9.3-3.9,13.3c-5.1,7.7-16.8,7.8-21.5-0.2c-4.7-7.9-4.5-16.2-0.8-24.5
		c2.2-4.9,6.5-7.3,11.8-7.2c5.6,0.1,9.8,3,11.8,8.3C327.8,194.4,328.3,197.9,329.1,201.3z M321.3,201.7c-0.7-3-1.2-6-2.2-8.8
		c-0.7-1.9-2.2-3.3-4.5-3.4c-2.4-0.1-3.9,1.4-4.8,3.4c-2.4,5.8-2.4,11.6,0,17.4c0.8,1.9,2.2,3.3,4.5,3.3c2.5,0,4-1.3,4.7-3.4
		C320.1,207.5,320.6,204.6,321.3,201.7z"/>
	<path class="st0" d="M425.9,157.9c-0.5,4.8-1.3,9.3-3.9,13.3c-5.1,7.7-16.8,7.7-21.5-0.2c-4.7-7.9-4.5-16.2-0.8-24.5
		c2.2-4.9,6.5-7.3,11.8-7.2c5.6,0.1,9.8,3,11.8,8.3C424.5,151,425.1,154.5,425.9,157.9z M418,158.2c-0.7-2.9-1.2-5.8-2.1-8.6
		c-0.7-2-2.2-3.5-4.6-3.6c-2.6,0-4,1.5-4.8,3.7c-2.2,5.6-2.2,11.3,0,17c0.8,2,2.2,3.5,4.7,3.5c2.6,0,4.1-1.5,4.8-3.6
		C416.9,163.9,417.3,161.1,418,158.2z"/>
	<path class="st0" d="M356.9,158c-0.5,4.8-1.3,9.3-4,13.3c-5.1,7.7-16.8,7.7-21.5-0.2c-4.6-7.9-4.5-16.3-0.7-24.5
		c2.2-4.9,6.5-7.3,11.8-7.1c5.6,0.1,9.8,3,11.8,8.3C355.5,151,356,154.5,356.9,158z M349,158.2c-0.7-2.9-1.2-5.8-2.1-8.6
		c-0.7-2-2.2-3.5-4.6-3.6c-2.6,0-4,1.5-4.8,3.7c-2.2,5.6-2.2,11.3,0,17c0.8,2,2.2,3.5,4.7,3.5c2.6,0,4.1-1.5,4.8-3.6
		C347.8,163.9,348.3,161.1,349,158.2z"/>
	<path class="st0" d="M374,169.7c0-7.9,0-15.5,0-23.2c-1.5,0.3-2.8,0.9-4.2,0.8c-1-0.1-2.6-0.7-2.8-1.5c-0.3-1,0.2-3.1,0.9-3.3
		c3.6-1.3,7.2-2.3,11-3.1c0.5-0.1,1.8,1.2,2,2c0.4,1.8,0.2,3.6,0.3,5.5c0,7.5,0,14.9,0,22.8c1.8,0,3.3-0.1,4.8,0
		c1.9,0.2,3.4,1,3.3,3.3c-0.1,2.2-1.5,2.9-3.5,2.9c-5.7,0-11.3,0-17,0c-2.1,0-3.4-0.7-3.5-2.9c-0.1-2.2,1.3-3.1,3.3-3.2
		C370.3,169.6,372,169.7,374,169.7z"/>
	<path class="st0" d="M443,169.7c0-7.9,0-15.4,0-23.2c-1.4,0.3-2.6,0.8-3.8,0.7c-1.1-0.1-2.7-0.5-3.2-1.3c-0.8-1.3-0.5-3.1,1.3-3.7
		c3.4-1.1,6.8-2.1,10.3-2.8c0.7-0.1,2,1.1,2.3,2c0.4,1.2,0.3,2.6,0.3,3.9c0,8,0,16,0,24.4c1.6,0,3.1-0.1,4.5,0
		c2,0.1,3.6,0.8,3.6,3.2c-0.1,2.4-1.6,3-3.7,3c-5.6-0.1-11.1,0-16.7,0c-2,0-3.4-0.6-3.5-2.9c-0.1-2.2,1.3-3.1,3.2-3.3
		C439.3,169.6,441,169.7,443,169.7z"/>
	<path class="st0" d="M284.4,213.2c1.9,0,3.5-0.1,5,0c2,0.2,3.3,1.2,3.1,3.4c-0.2,2.1-1.5,2.7-3.4,2.7c-5.7,0-11.5,0-17.2,0
		c-2,0-3.2-0.8-3.3-2.8c-0.1-2.1,1.1-3.1,3-3.2c1.8-0.1,3.6,0,5.7,0c0-7.8,0-15.4,0-23.2c-1.3,0.3-2.5,0.5-3.7,0.8
		c-1.6,0.4-2.8,0-3.3-1.6c-0.5-1.6-0.1-3.1,1.6-3.6c3.2-1,6.5-1.9,9.8-2.7c1.4-0.3,2.6,0.2,2.7,2c0.1,1.3,0.2,2.6,0.2,3.9
		C284.4,196.7,284.4,204.7,284.4,213.2z"/>
	<path class="st0" d="M346.3,213.1c0-7.9,0-15.5,0-23.2c-1.5,0.3-2.8,0.9-4.1,0.8c-1,0-2.7-0.8-2.8-1.4c-0.2-1.1,0.3-3.2,1.1-3.5
		c3.5-1.3,7.1-2.2,10.7-3c0.5-0.1,1.8,1.2,2,2c0.4,1.6,0.2,3.3,0.3,4.9c0,7.6,0,15.3,0,23.4c1.8,0,3.3-0.1,4.8,0
		c1.9,0.1,3.4,1,3.3,3.2c-0.1,2.2-1.4,2.9-3.5,2.9c-5.7,0-11.3,0-17,0c-2,0-3.4-0.7-3.5-2.9c-0.1-2.2,1.3-3.1,3.3-3.3
		C342.6,213,344.3,213.1,346.3,213.1z"/>
	<path class="st0" d="M380.8,189.9c-1.4,0.3-2.7,0.9-3.9,0.8c-1.1-0.1-2.8-0.8-3-1.5c-0.2-1,0.4-3.1,1.2-3.4c3.4-1.3,6.9-2.2,10.5-3
		c0.6-0.1,1.8,1,2.2,1.8c0.4,0.9,0.3,2,0.3,3.1c0,7.4,0,14.8,0,22.2c0,0.9,0,1.9,0,3.2c1.8,0,3.4-0.1,4.9,0c2,0.2,3.3,1.1,3.2,3.3
		c-0.1,2.3-1.6,2.8-3.6,2.8c-5.7,0-11.3,0-17,0c-1.9,0-3.2-0.6-3.4-2.7c-0.2-2.2,1.1-3.2,3.1-3.4c1.8-0.1,3.6,0,5.6,0
		C380.8,205.3,380.8,197.7,380.8,189.9z"/>
	<path class="st0" d="M484.3,189.9c-1.4,0.3-2.7,0.9-3.9,0.8c-1.1-0.1-2.9-0.7-3-1.4c-0.2-1,0.4-3.1,1.1-3.4c3.4-1.3,6.9-2.2,10.5-3
		c0.6-0.1,1.8,1,2.2,1.8c0.4,0.9,0.3,2,0.3,3.1c0,7.4,0,14.8,0,22.2c0,0.9,0,1.9,0,3.2c1.8,0,3.4-0.1,4.9,0c2,0.2,3.3,1.1,3.2,3.3
		c-0.1,2.2-1.5,2.9-3.5,2.8c-5.7,0-11.3,0-17,0c-1.9,0-3.2-0.6-3.4-2.7c-0.2-2.2,1.1-3.3,3.1-3.4c1.8-0.1,3.6,0,5.6,0
		C484.3,205.3,484.3,197.7,484.3,189.9z"/>
	<path class="st0" d="M312.6,258.1c1.9,0,3.5-0.1,5.1,0c2,0.2,3.2,1.3,3,3.4c-0.2,2.1-1.5,2.7-3.4,2.7c-5.7,0-11.3,0-17,0
		c-2,0-3.4-0.6-3.5-2.9c-0.1-2.2,1.3-3.1,3.2-3.3c1.7-0.1,3.5,0,5.4,0c0-7.8,0-15.4,0-23.2c-1.4,0.3-2.7,0.9-4,0.8
		c-1,0-2.7-0.8-2.8-1.4c-0.2-1.1,0.3-3.2,1-3.5c3.5-1.3,7.1-2.2,10.7-3c0.6-0.1,1.8,1,2,1.7c0.4,1.5,0.3,3.1,0.3,4.7
		C312.6,242,312.6,249.8,312.6,258.1z"/>
	<path class="st0" d="M347.2,258.1c1.7,0,3.2-0.1,4.7,0c2,0.1,3.6,1,3.4,3.4c-0.1,2.3-1.6,2.8-3.6,2.8c-5.7,0-11.3,0-17,0
		c-1.9,0-3.2-0.7-3.4-2.7c-0.2-2.2,1.1-3.2,3.1-3.4c1.8-0.1,3.6,0,5.6,0c0-7.8,0-15.4,0-23.2c-1.3,0.3-2.7,0.8-3.9,0.7
		c-1.1-0.1-2.6-0.7-3.1-1.5c-0.8-1.4-0.3-3.1,1.4-3.6c3.3-1.1,6.6-2,10-2.8c2.4-0.5,2.7,1.4,2.7,3.2c0.1,6.1,0,12.2,0,18.3
		C347.2,252.1,347.2,254.9,347.2,258.1z"/>
	<path class="st0" d="M443.6,258.2c0-7.9,0-15.4,0-23.3c-1.4,0.3-2.7,0.9-4,0.8c-1.1-0.1-2.8-0.8-3-1.6c-0.2-1.1,0.4-3.1,1.2-3.4
		c3.3-1.3,6.8-2.2,10.2-2.9c0.7-0.1,1.9,1,2.4,1.9c0.4,0.8,0.3,2,0.3,3.1c0,7.4,0,14.8,0,22.2c0,0.9,0,1.9,0,3.1c1.9,0,3.4-0.1,5,0
		c2,0.2,3.3,1.2,3.1,3.4c-0.1,2.1-1.4,2.8-3.4,2.7c-5.7,0-11.5,0-17.2,0c-1.9,0-3.2-0.7-3.3-2.8c-0.1-2,1-3.1,2.9-3.3
		C439.6,258,441.5,258.2,443.6,258.2z"/>
	<path class="st0" d="M512.6,234.9c-1.4,0.3-2.7,0.9-3.9,0.8c-1.1-0.1-2.9-0.7-3-1.4c-0.2-1,0.4-3.1,1.1-3.4c3.4-1.3,6.9-2.2,10.5-3
		c0.6-0.1,1.8,1,2.2,1.8c0.4,0.9,0.3,2,0.3,3.1c0,7.4,0,14.8,0,22.2c0,0.9,0,1.9,0,3.2c1.8,0,3.4-0.1,4.9,0c2,0.2,3.3,1.1,3.2,3.3
		c-0.1,2.2-1.5,2.9-3.5,2.8c-5.7,0-11.3,0-17,0c-1.9,0-3.2-0.6-3.4-2.7c-0.2-2.2,1.1-3.3,3.1-3.4c1.8-0.1,3.6,0,5.6,0
		C512.6,250.3,512.6,242.7,512.6,234.9z"/>
	<path class="st0" d="M547.2,258.1c0-7.9,0-15.4,0-23.2c-1.3,0.3-2.6,0.4-3.8,0.8c-1.6,0.4-2.8,0.1-3.4-1.5
		c-0.5-1.6-0.2-3.1,1.5-3.7c3.3-1,6.6-2,10-2.7c0.7-0.1,2,1,2.4,1.9c0.4,0.8,0.3,2,0.3,3.1c0,7.4,0,14.8,0,22.2c0,0.9,0,1.9,0,3.1
		c1.8,0,3.2-0.1,4.7,0c2,0.1,3.6,1,3.4,3.4c-0.1,2.3-1.6,2.8-3.6,2.8c-5.6,0-11.1,0-16.7,0c-2,0-3.5-0.5-3.6-2.8
		c-0.2-2.4,1.3-3.3,3.4-3.4C543.5,258,545.2,258.1,547.2,258.1z"/>
	<path class="st0" d="M592.9,345.5c1.9,0,3.5-0.1,5.1,0c2,0.2,3.2,1.3,3,3.4c-0.2,2.1-1.5,2.7-3.4,2.7c-5.7,0-11.3,0-17,0
		c-2,0-3.4-0.6-3.5-2.9c-0.1-2.2,1.3-3.1,3.2-3.3c1.7-0.1,3.5,0,5.4,0c0-7.8,0-15.4,0-23.2c-1.4,0.3-2.7,0.9-4,0.8
		c-1,0-2.7-0.8-2.8-1.4c-0.2-1.1,0.3-3.2,1-3.5c3.5-1.3,7.1-2.2,10.7-3c0.6-0.1,1.8,1,2,1.7c0.4,1.5,0.3,3.1,0.3,4.7
		C593,329.4,592.9,337.2,592.9,345.5z"/>
	<path class="st0" d="M516.8,345.4c0-7.8,0-15.4,0-23.2c-1.4,0.3-2.7,0.9-4,0.8c-1.1-0.1-2.8-0.8-3-1.5c-0.2-1.1,0.4-3.1,1.2-3.4
		c3.4-1.3,6.9-2.2,10.5-2.9c0.6-0.1,1.8,1.1,2.2,1.9c0.4,0.9,0.3,2,0.3,3.1c0,7.4,0,14.8,0,22.2c0,0.9,0,1.9,0,3.1
		c1.8,0,3.2-0.1,4.7,0c2.1,0.1,3.6,1,3.4,3.4c-0.1,2.3-1.6,2.8-3.6,2.8c-5.6,0-11.1,0-16.7,0c-2,0-3.5-0.5-3.6-2.8
		c-0.2-2.4,1.3-3.3,3.4-3.4C513.2,345.3,514.9,345.4,516.8,345.4z"/>
	<path class="st0" d="M257.4,302c0-7.9,0-15.4,0-23.2c-1.4,0.3-2.8,0.9-4.1,0.8c-1.1-0.1-2.8-0.9-2.9-1.6c-0.2-1.1,0.5-3.1,1.3-3.4
		c3.3-1.3,6.8-2.2,10.2-2.9c0.7-0.1,1.9,1.1,2.3,1.9c0.4,0.9,0.3,2.2,0.3,3.3c0,8.2,0,16.3,0,25c1.6,0,3.1-0.1,4.5,0
		c2,0.1,3.6,0.8,3.6,3.2c0,2.4-1.6,3-3.7,3c-5.6-0.1-11.1,0-16.7,0c-2,0-3.4-0.6-3.6-2.8c-0.1-2.2,1.2-3.2,3.2-3.3
		C253.6,301.9,255.4,302,257.4,302z"/>
	<path class="st0" d="M568,302c0-7.9,0-15.5,0-23.2c-1.5,0.3-2.8,0.9-4.1,0.8c-1,0-2.7-0.8-2.8-1.4c-0.2-1.1,0.3-3.2,1.1-3.5
		c3.5-1.3,7.1-2.2,10.7-3c0.5-0.1,1.8,1.2,2,2c0.4,1.6,0.2,3.3,0.3,4.9c0,7.6,0,15.3,0,23.4c1.8,0,3.3-0.1,4.8,0
		c1.9,0.1,3.4,1,3.3,3.2c-0.1,2.2-1.4,2.9-3.5,2.9c-5.7,0-11.3,0-17,0c-2,0-3.4-0.7-3.5-2.9c-0.1-2.2,1.3-3.1,3.3-3.3
		C564.3,301.9,566,302,568,302z"/>
	<path class="st0" d="M533.5,278.8c-1.5,0.4-2.8,1-4.1,0.8c-1.1-0.1-2.8-0.9-2.9-1.6c-0.2-1.1,0.5-3.1,1.3-3.4
		c3.3-1.3,6.8-2.2,10.2-2.9c0.7-0.1,2,1.1,2.4,1.9c0.4,1,0.3,2.4,0.3,3.6c0,8.1,0,16.2,0,24.7c1.7,0,3.2-0.1,4.8,0
		c2.1,0.1,3.5,1.1,3.3,3.4c-0.2,2.3-1.7,2.7-3.7,2.7c-5.6,0-11.1,0-16.7,0c-2,0-3.4-0.6-3.6-2.8c-0.1-2.2,1.2-3.2,3.2-3.3
		c1.8-0.1,3.6,0,5.5,0C533.5,294.2,533.5,286.6,533.5,278.8z"/>
	<path class="st0" d="M247.8,345.5c1.9,0,3.5-0.1,5,0c2,0.2,3.2,1.2,3.1,3.4c-0.2,2.1-1.5,2.7-3.4,2.7c-5.7,0-11.5,0-17.2,0
		c-2,0-3.2-0.8-3.3-2.9c-0.1-2.1,1.1-3.1,3-3.2c1.8-0.1,3.6,0,5.7,0c0-7.8,0-15.4,0-23.2c-1.3,0.3-2.6,0.8-3.8,0.7
		c-1.1-0.1-2.7-0.5-3.1-1.3c-0.8-1.3-0.5-3.1,1.3-3.7c3.4-1.1,6.8-2.1,10.3-2.8c0.6-0.1,2,1.1,2.3,2c0.4,1.2,0.3,2.6,0.3,3.9
		C247.8,329,247.8,337,247.8,345.5z"/>
	<path class="st0" d="M395.4,302.1c0-7.9,0-15.4,0-23.3c-1.4,0.3-2.7,0.9-4,0.8c-1.1-0.1-2.8-0.9-2.9-1.6c-0.2-1.1,0.5-3.1,1.2-3.4
		c3.3-1.3,6.8-2.2,10.2-2.9c0.7-0.1,1.9,1.1,2.4,1.9c0.4,0.8,0.3,2,0.3,3.1c0,7.4,0,14.8,0,22.2c0,0.9,0,1.9,0,3.1
		c1.9,0,3.4-0.1,5,0c2,0.2,3.3,1.2,3.1,3.4c-0.2,2.1-1.5,2.7-3.4,2.7c-5.7,0-11.5,0-17.2,0c-2,0-3.2-0.7-3.3-2.8
		c-0.1-2,1-3.1,2.9-3.3C391.5,302,393.4,302.1,395.4,302.1z"/>
	<path class="st0" d="M368.1,302.1c1.9,0,3.5-0.1,5,0c2,0.2,3.2,1.2,3,3.4c-0.2,2.1-1.5,2.7-3.4,2.7c-5.7,0-11.5,0-17.2,0
		c-2,0-3.2-0.8-3.3-2.9c-0.1-2.1,1.1-3.1,3-3.2c1.8-0.1,3.6,0,5.7,0c0-7.8,0-15.4,0-23.2c-1.3,0.3-2.6,0.8-3.8,0.7
		c-1.1-0.1-2.7-0.5-3.1-1.3c-0.8-1.3-0.5-3.1,1.3-3.7c3.4-1.1,6.8-2.1,10.3-2.8c0.6-0.1,2,1.1,2.3,2c0.4,1.4,0.3,2.9,0.3,4.4
		C368.1,285.9,368.1,293.8,368.1,302.1z"/>
	<path class="st0" d="M344.2,345.5c0-7.9,0-15.5,0-23.3c-1.4,0.3-2.8,0.9-4,0.8c-1.1-0.1-2.8-0.9-2.9-1.6c-0.2-1.1,0.5-3.1,1.3-3.4
		c3.3-1.3,6.8-2.2,10.2-2.9c0.7-0.1,2,1.1,2.4,1.9c0.4,0.9,0.3,2.2,0.3,3.3c0,7.3,0,14.6,0,21.9c0,0.9,0,1.9,0,3.1
		c1.9,0,3.5-0.1,5,0c2,0.2,3.3,1.2,3.1,3.4c-0.2,2.1-1.5,2.7-3.4,2.7c-5.7,0-11.5,0-17.2,0c-2,0-3.2-0.7-3.3-2.8
		c-0.1-2.1,1-3.1,2.9-3.3C340.3,345.4,342.2,345.5,344.2,345.5z"/>
	<path class="st0" d="M454.9,345.5c1.9,0,3.5-0.1,5.1,0c2,0.2,3.2,1.3,3,3.4c-0.2,2.1-1.5,2.7-3.5,2.7c-5.7,0-11.3,0-17,0
		c-2,0-3.4-0.6-3.5-2.9c-0.1-2.2,1.3-3.1,3.2-3.3c1.7-0.1,3.5,0,5.4,0c0-7.8,0-15.4,0-23.2c-1.4,0.3-2.7,0.9-4,0.8
		c-1,0-2.7-0.8-2.8-1.4c-0.2-1.1,0.3-3.2,1.1-3.5c3.5-1.3,7.1-2.2,10.7-3c0.6-0.1,1.8,1,2,1.7c0.4,1.5,0.3,3.1,0.3,4.7
		C454.9,329.4,454.9,337.2,454.9,345.5z"/>
	<path class="st0" d="M378.7,345.5c0-8,0-15.5,0-23.3c-1.4,0.3-2.7,0.9-3.9,0.8c-1.1-0.1-2.9-0.7-3-1.5c-0.2-1,0.4-3.1,1.1-3.4
		c3.4-1.3,6.9-2.2,10.5-3c0.6-0.1,1.8,1,2.2,1.8c0.4,0.9,0.3,2,0.3,3.1c0,7.4,0,14.8,0,22.2c0,0.9,0,1.9,0,3.2c1.8,0,3.4-0.1,4.9,0
		c2,0.2,3.3,1.1,3.2,3.3c-0.1,2.2-1.5,2.9-3.6,2.8c-5.7,0-11.3,0-17,0c-1.9,0-3.2-0.6-3.4-2.7c-0.2-2.2,1.1-3.3,3.1-3.4
		C374.9,345.4,376.7,345.5,378.7,345.5z"/>
	<path class="st0" d="M333.6,302c1.7,0,3.2-0.1,4.7,0c2,0.1,3.6,1,3.4,3.4c-0.1,2.3-1.6,2.8-3.6,2.8c-5.7,0-11.3,0-17,0
		c-1.9,0-3.2-0.7-3.4-2.7c-0.2-2.2,1.1-3.2,3.1-3.4c1.8-0.1,3.6,0,5.6,0c0-7.8,0-15.4,0-23.2c-1.4,0.3-2.7,0.8-3.9,0.7
		c-1.1-0.1-2.6-0.7-3.1-1.5c-0.8-1.4-0.3-3.1,1.4-3.6c3.3-1,6.6-2,10-2.7c2.4-0.5,2.7,1.4,2.7,3.2c0.1,6.1,0,12.2,0,18.3
		C333.6,296,333.6,298.9,333.6,302z"/>
</g>
</svg>
