<?xml version="1.0" encoding="UTF-8" standalone="no"?>
<svg width="124px" height="125px" viewBox="0 0 124 125" version="1.1" xmlns="http://www.w3.org/2000/svg" xmlns:xlink="http://www.w3.org/1999/xlink">
    <!-- Generator: Sketch 46.2 (44496) - http://www.bohemiancoding.com/sketch -->
    <title>cal</title>
    <desc>Created with Sketch.</desc>
    <defs></defs>
    <g id="Homepage" stroke="none" stroke-width="1" fill="none" fill-rule="evenodd">
        <g transform="translate(-251.000000, -1286.000000)" id="Group-2" fill-rule="nonzero">
            <g transform="translate(149.000000, 1286.000000)">
                <g id="cal" transform="translate(102.000000, 0.000000)">
                    <rect id="Rectangle-path" fill="#17CC9D" x="25.5062252" y="38.8423841" width="72.7986755" height="10.1745695"></rect>
                    <rect id="Rectangle-path" fill="#7BE0CA" x="25.5062252" y="52.0882119" width="72.7986755" height="37.8487417"></rect>
                    <path d="M110.039735,101.08053 C109.724154,101.082237 109.435513,100.902946 109.297187,100.61929 C109.158862,100.335634 109.195325,99.9978044 109.390993,99.7501987 C110.384636,98.4855629 111.337219,97.1552318 112.232318,95.8002649 C112.391356,95.5498733 112.673068,95.4047122 112.969276,95.4205234 C113.265484,95.4363345 113.530142,95.6106601 113.661621,95.8765592 C113.793101,96.1424583 113.770963,96.4585962 113.603709,96.7035762 C112.692185,98.0913907 111.706755,99.4545695 110.688477,100.760265 C110.533442,100.96166 110.293891,101.079919 110.039735,101.08053 Z M115.459603,92.8686093 C115.169182,92.8694032 114.899941,92.7167391 114.751514,92.4671113 C114.603087,92.2174836 114.59755,91.9080221 114.736954,91.653245 C115.508874,90.2407947 116.239735,88.7790728 116.904901,87.3009272 C117.012979,87.0152031 117.270727,86.813087 117.573981,86.7762596 C117.877235,86.7394322 118.175867,86.8739809 118.349193,87.125531 C118.522519,87.3770811 118.541887,87.7040515 118.39947,87.9743046 C117.717881,89.4935099 116.970596,90.9962914 116.17404,92.4415894 C116.036324,92.6874986 115.782119,92.8456016 115.500662,92.8603974 L115.459603,92.8686093 Z M119.483444,83.8847682 C119.217946,83.883712 118.96934,83.7543607 118.816103,83.5375462 C118.662865,83.3207316 118.623906,83.043209 118.711523,82.7925828 C119.245298,81.2733775 119.729801,79.7131126 120.140397,78.1446358 C120.200193,77.8451451 120.421251,77.6035771 120.714275,77.5175118 C121.007299,77.4314464 121.323879,77.5151023 121.536135,77.7346873 C121.748391,77.9542723 121.821257,78.2735089 121.725298,78.5634437 C121.298278,80.2058278 120.805563,81.7743046 120.255364,83.3345695 C120.143247,83.646023 119.855093,83.8597098 119.524503,83.8765563 L119.483444,83.8847682 Z M121.996291,74.3671523 L121.848477,74.3671523 C121.633906,74.3291246 121.443248,74.2073712 121.318489,74.028704 C121.19373,73.8500368 121.145101,73.629108 121.183311,73.4145695 C121.470728,71.821457 121.69245,70.2037086 121.848477,68.6023841 C121.891562,68.1488523 122.29415,67.8161198 122.747682,67.8592053 C123.201214,67.9022908 123.533946,68.3048787 123.490861,68.7584106 C123.334834,70.4007947 123.104901,72.0431788 122.809272,73.6855629 C122.740647,74.0626639 122.420277,74.342136 122.037351,74.3589404 L121.996291,74.3671523 Z M122.948874,64.5703311 L122.948874,64.5703311 C122.495342,64.5703311 122.127682,64.2026709 122.127682,63.7491391 C122.127682,63.4316115 122.127682,63.1168212 122.127682,62.8047682 C122.127682,61.5072848 122.086623,60.1933775 122.004503,58.895894 C121.985433,58.6025104 122.12433,58.321239 122.368873,58.1580321 C122.613416,57.9948252 122.926452,57.9744779 123.190065,58.1046546 C123.453678,58.2348314 123.627817,58.4957554 123.646887,58.7891391 C123.729007,60.1276821 123.778278,61.4744371 123.778278,62.8047682 C123.778278,63.1277704 123.778278,63.4507726 123.778278,63.7737748 C123.761198,64.2050573 123.413158,64.5495087 122.981722,64.5621192 L122.948874,64.5703311 Z M122.316556,54.7160265 C121.904374,54.7200832 121.553053,54.4179471 121.495364,54.0098013 C121.26543,52.4084768 120.961589,50.7989404 120.608477,49.2304636 C120.533464,48.940509 120.622258,48.6327109 120.840184,48.4272631 C121.05811,48.2218153 121.370603,48.151304 121.655636,48.2432635 C121.94067,48.3352231 122.153034,48.5750677 122.209801,48.8691391 C122.579338,50.5115232 122.883179,52.1539073 123.121325,53.7962914 C123.184748,54.2452695 122.87227,54.6606806 122.423311,54.7242384 L122.316556,54.7160265 Z M120.165033,45.1655629 C119.79254,45.1826157 119.455316,44.9465586 119.343841,44.5907285 C118.859338,43.0468874 118.309139,41.5112583 117.701457,40.0166887 C117.569599,39.7412185 117.601505,39.4153298 117.784284,39.1706631 C117.967064,38.9259965 118.270522,38.802973 118.572078,38.8512873 C118.873634,38.8996016 119.123468,39.1112716 119.220662,39.4007947 C119.844768,40.9364238 120.411391,42.5131126 120.904106,44.0980132 C120.984911,44.3539463 120.935552,44.6332156 120.771914,44.845945 C120.608276,45.0586743 120.351011,45.1780161 120.082914,45.1655629 L120.165033,45.1655629 Z M116.469669,36.0503311 C116.160442,36.0493939 115.877959,35.8748257 115.738808,35.5986755 C115.016159,34.1615894 114.219603,32.7327152 113.381987,31.3531126 C113.183574,31.1013055 113.149836,30.7570573 113.295587,30.4715207 C113.441338,30.1859842 113.739927,30.0113709 114.060249,30.0243502 C114.380571,30.0373294 114.664053,30.2355279 114.786225,30.5319205 C115.648477,31.9443709 116.428609,33.4143046 117.249801,34.8924503 C117.452574,35.2961923 117.291118,35.7878982 116.888477,35.9928477 C116.754083,36.0399237 116.609758,36.0512433 116.469669,36.0256954 L116.469669,36.0503311 Z M111.34543,27.6495364 C111.082605,27.6502183 110.835332,27.5250554 110.680265,27.3128477 C109.735894,26.0071523 108.717616,24.7260927 107.66649,23.5025166 C107.371694,23.1578323 107.412137,22.6394315 107.756821,22.3446358 C108.101505,22.0498401 108.619906,22.0902827 108.914702,22.4349669 C109.998675,23.6913907 111.033377,25.0135099 112.010596,26.352053 C112.193255,26.6020161 112.21981,26.9334625 112.079279,27.2093193 C111.938749,27.4851761 111.655019,27.658553 111.34543,27.6577483 L111.34543,27.6495364 Z M104.931921,20.1849007 C104.716489,20.1839936 104.510042,20.0984654 104.357086,19.946755 C103.207417,18.805298 102.000265,17.6966887 100.768477,16.6619868 C100.539638,16.4727543 100.429136,16.175812 100.478596,15.8830151 C100.528057,15.5902183 100.729965,15.3460497 101.008265,15.2424853 C101.286565,15.1389209 101.598975,15.1916947 101.827815,15.3809272 C103.09245,16.4484768 104.291391,17.5817219 105.514967,18.7560265 C105.750782,18.9899095 105.822495,19.3428109 105.69667,19.6501834 C105.570845,19.9575559 105.272259,20.1588723 104.940132,20.1602649 L104.931921,20.1849007 Z M97.4098013,13.8288742 C97.2386576,13.8277688 97.0721357,13.7732185 96.9335099,13.6728477 C95.6196026,12.7366887 94.2564238,11.8333775 92.8686093,11.0039735 C92.5467086,10.7503299 92.4610922,10.2981817 92.667976,9.9444103 C92.8748599,9.5906389 93.3109042,9.44355538 93.6898013,9.5997351 C95.1104636,10.4209272 96.514702,11.3735099 97.861457,12.3425166 C98.1490564,12.5507197 98.2702782,12.9201751 98.1619314,13.2582919 C98.0535846,13.5964086 97.7402104,13.8266013 97.3851656,13.8288742 L97.4098013,13.8288742 Z M27.9205298,12.7613245 C27.5588771,12.7621347 27.2392677,12.5262531 27.1334417,12.1804291 C27.0276158,11.8346051 27.1604888,11.4602588 27.4606623,11.258543 C28.8402649,10.330596 30.2691391,9.45192053 31.7144371,8.64715232 C31.9711478,8.50046048 32.2866174,8.50186516 32.5420116,8.65083724 C32.7974059,8.79980931 32.9539242,9.07371638 32.9526077,9.36938029 C32.9512912,9.66504421 32.7923399,9.93754658 32.5356291,10.0842384 C31.1313907,10.9054305 29.7353642,11.7266225 28.4296689,12.6299338 C28.2789439,12.7283502 28.1000565,12.7745147 27.9205298,12.7613245 Z M88.9515232,8.73748344 C88.8263983,8.73799556 88.702811,8.70990753 88.5901987,8.65536424 C87.1449007,7.94092715 85.6503311,7.27576159 84.1475497,6.68450331 C83.7257651,6.51669652 83.5198754,6.03873826 83.6876821,5.61695365 C83.8554889,5.19516904 84.3334472,4.98927932 84.7552318,5.15708609 C86.2990728,5.76476821 87.834702,6.44635762 89.3210596,7.18543046 C89.6661453,7.35255477 89.8496488,7.73623864 89.7631449,8.10977813 C89.676641,8.48331762 89.3431568,8.74727803 88.9597351,8.74569536 L88.9515232,8.73748344 Z M36.5101987,7.91629139 C36.1229607,7.91839182 35.7868803,7.64968183 35.7037142,7.2714741 C35.6205481,6.89326637 35.8129005,6.5083565 36.165298,6.34781457 C37.6680795,5.65801325 39.2283444,5.02569536 40.7886093,4.45907285 C41.2107026,4.31976987 41.6670163,4.54159222 41.8182021,4.95957661 C41.9693879,5.377561 41.7605609,5.83996617 41.3470199,6.00291391 C39.8442384,6.56953642 38.333245,7.21827815 36.8633113,7.88344371 C36.7575744,7.93162214 36.642817,7.9568128 36.5266225,7.95735099 L36.5101987,7.91629139 Z M79.8116556,5.10781457 C79.7326954,5.11938609 79.6524701,5.11938609 79.5735099,5.10781457 C78.013245,4.60688742 76.4529801,4.18807947 74.8680795,3.84317881 C74.4145476,3.74566945 74.1259344,3.29896231 74.2234437,2.84543047 C74.3209531,2.39189862 74.7676602,2.10328536 75.2211921,2.2007947 C76.8635762,2.55390728 78.5059603,3.02198675 80.0498013,3.46543046 C80.5033332,3.5311926 80.8176826,3.95216352 80.7519205,4.40569536 C80.6861584,4.85922719 80.2651875,5.17357667 79.8116556,5.10781457 L79.8116556,5.10781457 Z M45.781457,4.60688742 C45.3279251,4.66584655 44.9124691,4.34598217 44.8535099,3.89245033 C44.7945508,3.43891849 45.1144152,3.02346246 45.567947,2.96450331 C47.0625166,2.55390728 48.5899338,2.2007947 50.1091391,1.90516556 L50.429404,1.8394702 C50.8829358,1.75556681 51.3186132,2.05520987 51.4025166,2.50874172 C51.4864199,2.96227357 51.1867769,3.39795091 50.733245,3.4818543 L50.4211921,3.53933775 C48.9430464,3.82675497 47.4566887,4.17165563 46.0031788,4.56582781 C45.9315112,4.58964463 45.8569007,4.60346139 45.781457,4.60688742 L45.781457,4.60688742 Z M70.2037086,2.96450331 L70.0887417,2.96450331 C68.4956291,2.75099338 66.861457,2.59496689 65.2519205,2.50463576 C65.0340299,2.49401426 64.8293197,2.39713193 64.6829604,2.23536635 C64.536601,2.07360076 64.4606219,1.86024754 64.4717881,1.64238411 C64.510964,1.20168087 64.8922425,0.871239461 65.3340397,0.895099338 C66.9764238,0.985430464 68.6598675,1.14966887 70.3022517,1.37139073 C70.7557835,1.40087031 71.0995458,1.79242842 71.0700662,2.24596026 C71.0405866,2.6994921 70.6490285,3.04325439 70.1954967,3.01377483 L70.2037086,2.96450331 Z M55.4222517,2.74278146 C55.128868,2.75745064 54.8499444,2.6144872 54.6905487,2.36774409 C54.531153,2.12100098 54.5155011,1.80796433 54.6494891,1.54655204 C54.783477,1.28513974 55.0467488,1.11506653 55.3401325,1.10039735 C56.9825166,0.92794702 58.6249007,0.812980132 60.3247682,0.77192053 C60.6181519,0.764585938 60.8931625,0.914326817 61.0462063,1.16473723 C61.1992501,1.41514764 61.207076,1.72818428 61.0667361,1.98592928 C60.9263962,2.24367428 60.6592115,2.40697004 60.3658278,2.41430464 C58.7234437,2.41430464 57.0810596,2.56211921 55.5125828,2.73456954 L55.4222517,2.74278146 Z M20.2998675,18.8217219 C19.941851,18.8755241 19.5908396,18.6885216 19.4357753,18.3613739 C19.2807111,18.0342261 19.3581832,17.6441275 19.6264901,17.4010596 C20.8500662,16.2842384 22.1393377,15.2002649 23.4450331,14.1901987 C23.674855,13.9889497 23.9973928,13.931905 24.2823004,14.042118 C24.567208,14.152331 24.7673903,14.4115834 24.8019482,14.7151044 C24.836506,15.0186254 24.6997271,15.3162431 24.4468874,15.4876821 C23.1740397,16.4731126 21.9258278,17.5242384 20.7268874,18.6164238 C20.6078098,18.7253253 20.4592867,18.7967307 20.2998675,18.8217219 L20.2998675,18.8217219 Z" id="Shape" fill="#004E82"></path>
                    <polygon id="Shape" fill="#004E82" points="117.389404 99.9554967 117.143046 98.584106 110.368212 99.7994702 109.645563 92.9507285 108.257748 93.098543 109.136424 101.441854"></polygon>
                    <path d="M61.9343046,124.665166 C38.182226,124.615946 16.5470153,110.997823 6.2307754,89.6029903 C-4.0854645,68.2081578 -1.26832757,42.7995102 13.4839735,24.184106 C13.6658714,23.9523329 13.9576014,23.835207 14.2492717,23.8768487 C14.5409421,23.9184903 14.788241,24.112573 14.8980135,24.3859878 C15.0077859,24.6594025 14.9633548,24.970611 14.781457,25.2023841 C-4.36147758,49.275259 -2.29673861,83.902942 19.5711661,105.530471 C41.4390709,127.157999 76.0874594,128.839886 99.9472848,109.432053 C100.172705,109.229372 100.491452,109.167363 100.776415,109.270753 C101.061379,109.374144 101.266208,109.626115 101.30922,109.926188 C101.352233,110.226261 101.226433,110.525625 100.981987,110.704901 C89.9710543,119.731962 76.1725793,124.665171 61.9343046,124.665166 Z" id="Shape" fill="#4DD6B7"></path>
                    <polygon id="Shape" fill="#4DD6B7" points="6.80768212 24.9231788 7.03761589 26.3027815 13.8206623 25.1449007 14.4776159 32.0018543 15.8736424 31.8622517 15.0688742 23.5189404"></polygon>
                    <rect id="Rectangle-path" fill="#004E82" x="37.1835762" y="34.613245" width="6.02754967" height="9.3205298"></rect>
                    <rect id="Rectangle-path" fill="#004E82" x="51.6529801" y="34.613245" width="6.02754967" height="9.3205298"></rect>
                    <rect id="Rectangle-path" fill="#004E82" x="66.1223841" y="34.613245" width="6.02754967" height="9.3205298"></rect>
                    <rect id="Rectangle-path" fill="#004E82" x="80.6" y="34.613245" width="6.02754967" height="9.3205298"></rect>
                    <rect id="Rectangle-path" fill="#FFFFFF" x="37.6188079" y="58.4688742" width="9.20556291" height="5.37059603"></rect>
                    <rect id="Rectangle-path" fill="#FFFFFF" x="50.741457" y="58.4688742" width="9.20556291" height="5.37059603"></rect>
                    <rect id="Rectangle-path" fill="#FFFFFF" x="63.864106" y="58.4688742" width="9.20556291" height="5.37059603"></rect>
                    <rect id="Rectangle-path" fill="#FFFFFF" x="76.978543" y="58.4688742" width="9.20556291" height="5.37059603"></rect>
                    <rect id="Rectangle-path" fill="#FFFFFF" x="37.6188079" y="68.3313907" width="9.20556291" height="5.37059603"></rect>
                    <rect id="Rectangle-path" fill="#FFFFFF" x="50.741457" y="68.3313907" width="9.20556291" height="5.37059603"></rect>
                    <rect id="Rectangle-path" fill="#FFFFFF" x="63.864106" y="68.3313907" width="9.20556291" height="5.37059603"></rect>
                    <rect id="Rectangle-path" fill="#FFFFFF" x="76.978543" y="68.3313907" width="9.20556291" height="5.37059603"></rect>
                    <rect id="Rectangle-path" fill="#FFFFFF" x="37.6188079" y="78.1856954" width="9.20556291" height="5.37059603"></rect>
                    <rect id="Rectangle-path" fill="#FFFFFF" x="50.741457" y="78.1856954" width="9.20556291" height="5.37059603"></rect>
                    <rect id="Rectangle-path" fill="#FFFFFF" x="63.864106" y="78.1856954" width="9.20556291" height="5.37059603"></rect>
                    <rect id="Rectangle-path" fill="#FFFFFF" x="76.978543" y="78.1856954" width="9.20556291" height="5.37059603"></rect>
                </g>
            </g>
        </g>
    </g>
</svg>