<?xml version="1.0" encoding="UTF-8" standalone="no"?>
<svg width="39px" height="39px" viewBox="0 0 39 39" version="1.1" xmlns="http://www.w3.org/2000/svg" xmlns:xlink="http://www.w3.org/1999/xlink">
    <!-- Generator: Sketch 47.1 (45422) - http://www.bohemiancoding.com/sketch -->
    <title>automate</title>
    <desc>Created with Sketch.</desc>
    <defs></defs>
    <g id="Design" stroke="none" stroke-width="1" fill="none" fill-rule="evenodd">
        <g id="Visual-Elements" transform="translate(-468.000000, -1298.000000)">
            <g id="Group-2" transform="translate(414.000000, 1298.000000)">
                <g id="automate" transform="translate(54.000000, 0.000000)">
                    <circle id="Oval-Copy-8" fill="#4DD6B7" fill-rule="nonzero" opacity="0.25" cx="19.5" cy="19.5" r="19.5"></circle>
                    <g id="Page-1" transform="translate(9.000000, 9.000000)">
                        <path d="M10.4996706,5.65389684 C13.1621435,5.65389684 15.3456217,7.83744352 15.3456217,10.5 C15.3456217,13.1625565 13.1621435,15.3461032 10.4996706,15.3461032 C7.83785649,15.3461032 5.65437831,13.1625565 5.65437831,10.5 C5.65437831,7.83744352 7.83785649,5.65389684 10.4996706,5.65389684 L10.4996706,5.65389684 Z M9.03567283,0 L8.30367396,2.54922816 C7.6408559,2.73173946 7.00834562,2.99924699 6.42327362,3.33198419 L4.11461111,2.04386295 L2.04445769,4.11408133 L3.33187965,6.42347515 C2.99849402,7.0092244 2.73165375,7.64109563 2.54980705,8.30393449 L0,9.03595633 L0,11.9640437 L2.54980705,12.6960655 C2.73165375,13.3589044 2.99849402,13.9914345 3.33187965,14.5765248 L2.04445769,16.8859187 L4.11461111,18.9554782 L6.42327362,17.6680158 C7.00834562,18.0014119 7.6408559,18.2689194 8.30367396,18.4507718 L9.03567283,21 L11.9643272,21 L12.6956672,18.4507718 C13.3591441,18.2689194 13.9916544,18.0014119 14.5760675,17.6680158 L16.8853889,18.9554782 L18.9555423,16.8859187 L17.6681204,14.5765248 C18.0008471,13.9914345 18.2676874,13.3589044 18.450193,12.6960655 L21,11.9640437 L21,9.03595633 L18.450193,8.30393449 C18.2676874,7.64109563 18.0008471,7.00856551 17.6681204,6.42347515 L18.9555423,4.11408133 L16.8853889,2.04386295 L14.5760675,3.33198419 C13.9916544,2.99924699 13.3591441,2.73173946 12.6956672,2.54922816 L11.9643272,0 L9.03567283,0 Z" id="Fill-1" fill="#17CC9D"></path>
                        <path d="M10.5,8.4 C9.32781403,8.4 8.4,9.32794018 8.4,10.5002855 C8.4,11.6720598 9.32781403,12.6 10.5,12.6 C11.672186,12.6 12.6,11.6720598 12.6,10.5002855 C12.6,9.32794018 11.672186,8.4 10.5,8.4" id="Fill-3" fill="#004E82"></path>
                    </g>
                </g>
            </g>
        </g>
    </g>
</svg>