<?xml version="1.0" encoding="UTF-8" standalone="no"?>
<svg width="163px" height="142px" viewBox="0 0 163 142" version="1.1" xmlns="http://www.w3.org/2000/svg" xmlns:xlink="http://www.w3.org/1999/xlink">
    <!-- Generator: Sketch 46.2 (44496) - http://www.bohemiancoding.com/sketch -->
    <title>btn_4</title>
    <desc>Created with Sketch.</desc>
    <defs></defs>
    <g id="Homepage" stroke="none" stroke-width="1" fill="none" fill-rule="evenodd">
        <g transform="translate(-1046.000000, -1286.000000)" id="Group-3" fill-rule="nonzero">
            <g transform="translate(963.000000, 1286.000000)">
                <g id="btn_4" transform="translate(83.000000, 0.000000)">
                    <rect id="Rectangle-path" fill="#7BE0CA" x="0" y="55.52" width="162.07" height="36.15" rx="18.07"></rect>
                    <rect id="Rectangle-path" fill="#17CC9D" x="0" y="50.27" width="162.07" height="36.15" rx="18.07"></rect>
                    <polygon id="Shape" stroke="#FFFFFF" stroke-width="2" fill="#004E82" points="116.86 81.98 116.85 106.21 124.62 98.35 135.31 96.67"></polygon>
                    <path d="M81,39.42 C80.5029437,39.42 80.1,39.0170563 80.1,38.52 L80.1,33.15 C80.1484612,32.692175 80.5346173,32.3447365 80.995,32.3447365 C81.4553827,32.3447365 81.8415388,32.692175 81.89,33.15 L81.89,38.53 C81.8845931,39.0192763 81.4892763,39.4145931 81,39.42 Z M81,28.67 C80.5029437,28.67 80.1,28.2670563 80.1,27.77 L80.1,22.4 C80.1484612,21.942175 80.5346173,21.5947365 80.995,21.5947365 C81.4553827,21.5947365 81.8415388,21.942175 81.89,22.4 L81.89,27.78 C81.8845931,28.2692763 81.4892763,28.6645931 81,28.67 Z M81,17.92 C80.5029437,17.92 80.1,17.5170563 80.1,17.02 L80.1,11.65 C80.1484612,11.192175 80.5346173,10.8447365 80.995,10.8447365 C81.4553827,10.8447365 81.8415388,11.192175 81.89,11.65 L81.89,17 C81.8953581,17.2404164 81.8042796,17.4729783 81.6370787,17.6458153 C81.4698777,17.8186522 81.2404619,17.9173877 81,17.92 L81,17.92 Z M81,7.17 C80.5029437,7.17 80.1,6.76705627 80.1,6.27 L80.1,0.9 C80.1484612,0.44217497 80.5346173,0.0947364766 80.995,0.0947364766 C81.4553827,0.0947364766 81.8415388,0.44217497 81.89,0.9 L81.89,6.27 C81.8900304,6.76317708 81.4931466,7.16452026 81,7.17 Z" id="Shape" fill="#004E82"></path>
                    <path d="M81,141.94 C80.5029437,141.94 80.1,141.537056 80.1,141.04 L80.1,135.66 C80.1484612,135.202175 80.5346173,134.854736 80.995,134.854736 C81.4553827,134.854736 81.8415388,135.202175 81.89,135.66 L81.89,141 C81.9008597,141.24382 81.8122315,141.481596 81.6444315,141.658823 C81.4766314,141.83605 81.2440495,141.93753 81,141.94 Z M81,131.19 C80.5029437,131.19 80.1,130.787056 80.1,130.29 L80.1,124.91 C80.1484612,124.452175 80.5346173,124.104736 80.995,124.104736 C81.4553827,124.104736 81.8415388,124.452175 81.89,124.91 L81.89,130.29 C81.8845931,130.779276 81.4892763,131.174593 81,131.18 L81,131.19 Z M81,120.44 C80.5029437,120.44 80.1,120.037056 80.1,119.54 L80.1,114.16 C80.1484612,113.702175 80.5346173,113.354736 80.995,113.354736 C81.4553827,113.354736 81.8415388,113.702175 81.89,114.16 L81.89,119.54 C81.8845931,120.029276 81.4892763,120.424593 81,120.43 L81,120.44 Z M81,109.69 C80.5029437,109.69 80.1,109.287056 80.1,108.79 L80.1,103.41 C80.1484612,102.952175 80.5346173,102.604736 80.995,102.604736 C81.4553827,102.604736 81.8415388,102.952175 81.89,103.41 L81.89,108.79 C81.8845931,109.279276 81.4892763,109.674593 81,109.68 L81,109.69 Z" id="Shape" fill="#004E82"></path>
                    <path d="M101.56,39.42 C101.230947,39.4182053 100.929105,39.2369744 100.772851,38.9473827 C100.616596,38.657791 100.630842,38.3060092 100.81,38.03 L109.81,24.38 C110.101511,24.011705 110.627228,23.9295175 111.017236,24.1912679 C111.407244,24.4530183 111.53038,24.9706779 111.3,25.38 L102.3,39.03 C102.133599,39.2750394 101.856196,39.4212381 101.56,39.42 Z" id="Shape" fill="#4DD6B7"></path>
                    <path d="M112.94,22.28 C112.610947,22.2782053 112.309105,22.0969744 112.152851,21.8073827 C111.996596,21.517791 112.010842,21.1660092 112.19,20.89 L116.33,14.64 C116.495987,14.345087 116.813379,14.1682151 117.151506,14.1822028 C117.489632,14.1961904 117.791332,14.3986731 117.932393,14.7062881 C118.073454,15.0139031 118.030031,15.3746467 117.82,15.64 L113.68,21.89 C113.513599,22.1350394 113.236196,22.2812381 112.94,22.28 L112.94,22.28 Z" id="Shape" fill="#4DD6B7"></path>
                    <path d="M60.5,39.42 C60.1983689,39.4223774 59.9160623,39.2718139 59.75,39.02 L50.75,25.37 C50.5196199,24.9606779 50.6427556,24.4430183 51.0327637,24.1812679 C51.4227718,23.9195175 51.9484894,24.001705 52.24,24.37 L61.24,38.02 C61.4191584,38.2960092 61.4334037,38.647791 61.2771492,38.9373827 C61.1208947,39.2269744 60.8190526,39.4082053 60.49,39.41 L60.5,39.42 Z" id="Shape" fill="#4DD6B7"></path>
                    <path d="M49.13,22.28 C48.8283689,22.2823774 48.5460623,22.1318139 48.38,21.88 L44.24,15.63 C44.0299692,15.3646467 43.9865457,15.0039031 44.1276071,14.6962881 C44.2686684,14.3886731 44.5703675,14.1861904 44.9084942,14.1722028 C45.2466209,14.1582151 45.5640132,14.335087 45.73,14.63 L49.87,20.88 C50.0491584,21.1560092 50.0634037,21.507791 49.9071492,21.7973827 C49.7508947,22.0869744 49.4490526,22.2682053 49.12,22.27 L49.13,22.28 Z" id="Shape" fill="#4DD6B7"></path>
                    <path d="M51.47,117.65 C51.1409474,117.648205 50.8391053,117.466974 50.6828508,117.177383 C50.5265963,116.887791 50.5408416,116.536009 50.72,116.26 L59.72,102.61 C59.8859868,102.315087 60.2033791,102.138215 60.5415058,102.152203 C60.8796325,102.16619 61.1813316,102.368673 61.3223929,102.676288 C61.4634543,102.983903 61.4200308,103.344647 61.21,103.61 L52.21,117.26 C52.0435989,117.505039 51.7661961,117.651238 51.47,117.65 L51.47,117.65 Z" id="Shape" fill="#4DD6B7"></path>
                    <path d="M45,127.4 C44.6709474,127.398205 44.3691053,127.216974 44.2128508,126.927383 C44.0565963,126.637791 44.0708416,126.286009 44.25,126.01 L48.39,119.76 C48.5559868,119.465087 48.8733791,119.288215 49.2115058,119.302203 C49.5496325,119.31619 49.8513316,119.518673 49.9923929,119.826288 C50.1334543,120.133903 50.0900308,120.494647 49.88,120.76 L45.74,127 C45.5758848,127.248845 45.2980882,127.399005 45,127.4 L45,127.4 Z" id="Shape" fill="#4DD6B7"></path>
                    <path d="M110.6,117.65 C110.298369,117.652377 110.016062,117.501814 109.85,117.25 L100.85,103.6 C100.639969,103.334647 100.596546,102.973903 100.737607,102.666288 C100.878668,102.358673 101.180368,102.15619 101.518494,102.142203 C101.856621,102.128215 102.174013,102.305087 102.34,102.6 L111.34,116.25 C111.519158,116.526009 111.533404,116.877791 111.377149,117.167383 C111.220895,117.456974 110.919053,117.638205 110.59,117.64 L110.6,117.65 Z" id="Shape" fill="#4DD6B7"></path>
                    <path d="M117.08,127.4 C116.778369,127.402377 116.496062,127.251814 116.33,127 L112.19,120.75 C111.979969,120.484647 111.936546,120.123903 112.077607,119.816288 C112.218668,119.508673 112.520368,119.30619 112.858494,119.292203 C113.196621,119.278215 113.514013,119.455087 113.68,119.75 L117.82,126 C117.999158,126.276009 118.013404,126.627791 117.857149,126.917383 C117.700895,127.206974 117.399053,127.388205 117.07,127.39 L117.08,127.4 Z" id="Shape" fill="#4DD6B7"></path>
                    <path d="M19.29,66.52 C19.2020621,66.4490588 19.1084098,66.385509 19.01,66.33 C18.8232338,66.2177844 18.6295081,66.1175814 18.43,66.03 C18.1835501,65.9216873 17.9295462,65.8314491 17.67,65.76 C17.4035344,65.6822574 17.1275686,65.6418721 16.85,65.64 C16.5607887,65.6218309 16.2725057,65.6878234 16.02,65.83 C15.8285274,65.954622 15.7180035,66.1718586 15.73,66.4 C15.7242636,66.5415119 15.7705037,66.6802323 15.86,66.79 C15.9626368,66.9079229 16.0886258,67.0032659 16.23,67.07 C16.4189631,67.1651242 16.6165122,67.2421348 16.82,67.3 L17.64,67.53 C18.0437507,67.6372973 18.441061,67.7675082 18.83,67.92 C19.1562329,68.04777 19.4600372,68.2266769 19.73,68.45 C19.9765256,68.6595675 20.1715521,68.9230243 20.3,69.22 C20.4410753,69.5621659 20.509194,69.9300065 20.5,70.3 C20.5142385,70.7540318 20.4145387,71.2043998 20.21,71.61 C20.0258134,71.9541275 19.7617578,72.2490467 19.44,72.47 C19.1064252,72.6971071 18.7333594,72.8598994 18.34,72.95 C17.9206059,73.0495363 17.4910439,73.0998756 17.06,73.1 C16.7046403,73.0936251 16.3502823,73.0601951 16,73 C15.6617525,72.9465325 15.3276182,72.8696817 15,72.77 C14.6596419,72.6744666 14.325646,72.557568 14,72.42 C13.6922392,72.2879997 13.3976032,72.1272891 13.12,71.94 L14.05,70.1 C14.1599319,70.1894036 14.2769884,70.269671 14.4,70.34 C14.6237883,70.4777164 14.8578077,70.5980692 15.1,70.7 C15.3926953,70.820709 15.6934184,70.9209501 16,71 C16.3258582,71.0898036 16.6620083,71.1368646 17,71.14 C17.7466667,71.14 18.12,70.9133333 18.12,70.46 C18.1253868,70.2992988 18.0638207,70.1435727 17.95,70.03 C17.8153547,69.9039144 17.6596701,69.8023809 17.49,69.73 C17.2630058,69.6298824 17.0290609,69.5463307 16.79,69.48 L16,69.26 C15.6264807,69.1480218 15.2620826,69.0076115 14.91,68.84 C14.6278861,68.7077062 14.3681045,68.5322692 14.14,68.32 C13.9379326,68.1304245 13.7807714,67.8980992 13.68,67.64 C13.5756537,67.3516263 13.5248207,67.046628 13.53,66.74 C13.5202646,66.2982375 13.6126646,65.8601929 13.8,65.46 C13.9730294,65.1007405 14.2221185,64.7834078 14.53,64.53 C14.8532549,64.2866427 15.21973,64.1067984 15.61,64 C16.0277373,63.8709991 16.4628087,63.8069188 16.9,63.81 C17.2355087,63.8063712 17.5705308,63.8365232 17.9,63.9 C18.1981844,63.9567342 18.492189,64.0335764 18.78,64.13 C19.049589,64.2205205 19.3134113,64.3273852 19.57,64.45 C19.82,64.57 20.04,64.69 20.24,64.81 L19.29,66.52 Z" id="Shape" fill="#FFFFFF"></path>
                    <path d="M23.52,73.11 C22.9414881,73.1322765 22.3835319,72.8936768 22,72.46 C21.603266,71.9055488 21.412302,71.2301021 21.46,70.55 L21.46,66.22 L23.52,66.22 L23.52,70.1 C23.4988535,70.4353262 23.5865358,70.7685187 23.77,71.05 C23.9334875,71.2701124 24.1961696,71.3939483 24.47,71.38 C24.7514377,71.3787617 25.0275038,71.3028435 25.27,71.16 C25.5627008,70.9745592 25.7981226,70.7114407 25.95,70.4 L25.95,66.22 L28,66.22 L28,70.66 C27.9661342,70.8126804 28.0087731,70.9722865 28.1142701,71.087736 C28.219767,71.2031855 28.3748932,71.2600015 28.53,71.24 L28.53,73 C28.3449926,73.0372132 28.1580268,73.0639226 27.97,73.08 L27.55,73.08 C26.83,73.08 26.4133333,72.7933333 26.3,72.22 L26.3,71.81 C26.0157078,72.242559 25.617845,72.5885267 25.15,72.81 C24.6367542,73.0333231 24.0791251,73.1359543 23.52,73.11 L23.52,73.11 Z" id="Shape" fill="#FFFFFF"></path>
                    <path d="M33.67,73.11 C33.1987078,73.1215744 32.732806,73.0076874 32.32,72.78 C31.9381548,72.562435 31.6233789,72.2442001 31.41,71.86 L31.41,73 L29.61,73 L29.61,63.6 L31.67,63.6 L31.67,67.35 C31.8840703,66.9722805 32.1946689,66.6582308 32.57,66.44 C32.9756657,66.2125876 33.4350796,66.0985977 33.9,66.11 C34.3102169,66.1062859 34.7151844,66.2023798 35.08,66.39 C35.4354167,66.5734073 35.7487367,66.8288312 36,67.14 C36.2697781,67.4768224 36.4764353,67.8596464 36.61,68.27 C36.7577404,68.7150122 36.8320457,69.1811089 36.83,69.65 C36.8303544,70.1106423 36.7490988,70.5677049 36.59,71 C36.4422652,71.4084511 36.2182963,71.785126 35.93,72.11 C35.6510508,72.4202181 35.3104655,72.6688454 34.93,72.84 C34.5345154,73.0202047 34.1045991,73.1123296 33.67,73.11 L33.67,73.11 Z M33.09,71.37 C33.3174502,71.3707757 33.5424518,71.3230481 33.75,71.23 C33.9469788,71.1438189 34.1240163,71.0178499 34.27,70.86 C34.4151281,70.7001739 34.5272725,70.5132665 34.6,70.31 C34.6802726,70.0888484 34.7208953,69.8552678 34.72,69.62 C34.7210228,69.3855544 34.6838702,69.1525061 34.61,68.93 C34.5403012,68.7214901 34.4317188,68.5280776 34.29,68.36 C34.1578236,68.199075 33.9945744,68.0664351 33.81,67.97 C33.6208299,67.8751073 33.4116164,67.8270911 33.2,67.83 C32.8700492,67.828031 32.5504722,67.9452092 32.3,68.16 C32.0292125,68.3864651 31.8166138,68.6745019 31.68,69 L31.68,70.42 C31.8140806,70.6999228 32.0214073,70.9383485 32.28,71.11 C32.5184731,71.274606 32.8002757,71.3650612 33.09,71.37 Z" id="Shape" fill="#FFFFFF"></path>
                    <path d="M40.64,73.11 C40.3456284,73.1104862 40.0515814,73.0904375 39.76,73.05 C39.45,73.05 39.15,72.95 38.85,72.88 C38.5607262,72.8057722 38.2767557,72.712229 38,72.6 C37.7497067,72.5058177 37.5086768,72.3886504 37.28,72.25 L38.09,70.86 C38.5015671,71.101474 38.937273,71.2992174 39.39,71.45 C39.7796274,71.5837919 40.1880759,71.6546797 40.6,71.66 C40.8383016,71.6747089 41.0762762,71.6264242 41.29,71.52 C41.4415014,71.4401379 41.5345372,71.2812017 41.53,71.11 C41.5223034,70.9166245 41.3943966,70.7487469 41.21,70.69 C40.8493985,70.5453886 40.4783305,70.4283852 40.1,70.34 C39.7043779,70.2469942 39.3138522,70.1335081 38.93,70 C38.6543728,69.9023845 38.39485,69.764197 38.16,69.59 C37.9802079,69.4571069 37.8359515,69.2819383 37.74,69.08 C37.6489841,68.8686156 37.6046422,68.6400838 37.61,68.41 C37.60549,68.0845519 37.6774183,67.7625872 37.82,67.47 C37.9608971,67.1892539 38.1624211,66.9433263 38.41,66.75 C38.6739302,66.5460012 38.9718485,66.3902712 39.29,66.29 C39.6486765,66.1749675 40.0233364,66.1175872 40.4,66.12 C40.890773,66.121882 41.378858,66.1925702 41.85,66.33 C42.3522601,66.4764997 42.8381433,66.6742039 43.3,66.92 L42.49,68.22 C42.1300893,68.015079 41.7517691,67.8443327 41.36,67.71 C41.0377342,67.6020344 40.6998642,67.5479752 40.36,67.55 C40.1383691,67.5429947 39.9184638,67.5910989 39.72,67.69 C39.5596778,67.7720372 39.4619748,67.9400864 39.47,68.12 C39.4654515,68.2042095 39.4863586,68.287838 39.53,68.36 C39.5852946,68.4352876 39.6571413,68.4968705 39.74,68.54 C39.8638825,68.6046467 39.994726,68.6549712 40.13,68.69 L40.73,68.85 C41.1564089,68.9583109 41.5769645,69.0884828 41.99,69.24 C42.2883238,69.3442986 42.5709517,69.4889772 42.83,69.67 C43.0275531,69.8112936 43.1858627,70.0005769 43.29,70.22 C43.3884018,70.4505009 43.4361452,70.699449 43.43,70.95 C43.4359036,71.2648485 43.3673776,71.5766418 43.23,71.86 C43.0970072,72.1316901 42.9017016,72.3681128 42.66,72.55 C42.3893525,72.7503401 42.0843289,72.8994627 41.76,72.99 C41.3937065,73.0798696 41.0170183,73.120229 40.64,73.11 Z" id="Shape" fill="#FFFFFF"></path>
                    <path d="M44.08,69.59 C44.0776678,69.1356919 44.1590247,68.684839 44.32,68.26 C44.6430221,67.3976049 45.314711,66.711393 46.17,66.37 C46.6594415,66.1746136 47.1831067,66.0794017 47.71,66.09 C48.4107459,66.0621537 49.104799,66.235667 49.71,66.59 C50.2235125,66.8983984 50.6394793,67.3455627 50.91,67.88 L48.91,68.49 C48.6674676,68.0776386 48.218051,67.8318039 47.74,67.85 C47.3265185,67.8413645 46.9306654,68.0172992 46.66,68.33 C46.3587404,68.6862532 46.204926,69.1441191 46.23,69.61 C46.2279207,69.8584082 46.2685105,70.1053291 46.35,70.34 C46.419028,70.5457929 46.5277465,70.7360502 46.67,70.9 C46.803151,71.0521531 46.9666508,71.1747779 47.15,71.26 C47.3345426,71.3466974 47.5361099,71.3911106 47.74,71.39 C47.9894274,71.3915177 48.2346677,71.32589 48.45,71.2 C48.6528633,71.0895328 48.8195328,70.9228633 48.93,70.72 L50.93,71.34 C50.6707924,71.8790087 50.2563889,72.3282361 49.74,72.63 C49.1333402,72.9807429 48.4403436,73.1539921 47.74,73.13 C47.2155462,73.1388438 46.694841,73.040148 46.21,72.84 C45.7516465,72.6490034 45.3391801,72.3626631 45,72 C44.6893237,71.6790763 44.4476893,71.2979065 44.29,70.88 C44.1440067,70.465868 44.0728975,70.0290546 44.08,69.59 L44.08,69.59 Z" id="Shape" fill="#FFFFFF"></path>
                    <path d="M56.1,68 C55.6393577,67.9996456 55.1822951,68.0809012 54.75,68.24 C54.3861431,68.3674595 54.0760353,68.6141362 53.87,68.94 L53.87,73 L51.81,73 L51.81,66.22 L53.7,66.22 L53.7,67.59 C53.9130962,67.1682399 54.2253663,66.8044967 54.61,66.53 C54.9521011,66.2829807 55.3585391,66.1405536 55.78,66.12 L56.1,66.12 L56.1,68 Z" id="Shape" fill="#FFFFFF"></path>
                    <path d="M57,65.45 L57,63.58 L59,63.58 L59,65.45 L57,65.45 Z M57,73 L57,66.22 L59,66.22 L59,73 L57,73 Z" id="Shape" fill="#FFFFFF"></path>
                    <path d="M64.49,73.11 C64.0187078,73.1215744 63.552806,73.0076874 63.14,72.78 C62.7581548,72.562435 62.4433789,72.2442001 62.23,71.86 L62.23,73 L60.43,73 L60.43,63.6 L62.49,63.6 L62.49,67.35 C62.7040703,66.9722805 63.0146689,66.6582308 63.39,66.44 C63.7956657,66.2125876 64.2550796,66.0985977 64.72,66.11 C65.1302169,66.1062859 65.5351844,66.2023798 65.9,66.39 C66.2554167,66.5734073 66.5687367,66.8288312 66.82,67.14 C67.0897781,67.4768224 67.2964353,67.8596464 67.43,68.27 C67.5777404,68.7150122 67.6520457,69.1811089 67.65,69.65 C67.6471544,70.1112431 67.5625097,70.5683244 67.4,71 C67.2522652,71.4084511 67.0282963,71.785126 66.74,72.11 C66.4610508,72.4202181 66.1204655,72.6688454 65.74,72.84 C65.3475814,73.0187936 64.9212293,73.1108857 64.49,73.11 L64.49,73.11 Z M63.91,71.37 C64.1374502,71.3707757 64.3624518,71.3230481 64.57,71.23 C64.7669788,71.1438189 64.9440163,71.0178499 65.09,70.86 C65.2351281,70.7001739 65.3472725,70.5132665 65.42,70.31 C65.5002726,70.0888484 65.5408953,69.8552678 65.54,69.62 C65.5410228,69.3855544 65.5038702,69.1525061 65.43,68.93 C65.3603012,68.7214901 65.2517188,68.5280776 65.11,68.36 C64.9778236,68.199075 64.8145744,68.0664351 64.63,67.97 C64.4408299,67.8751073 64.2316164,67.8270911 64.02,67.83 C63.6900492,67.828031 63.3704722,67.9452092 63.12,68.16 C62.8492125,68.3864651 62.6366138,68.6745019 62.5,69 L62.5,70.42 C62.6340806,70.6999228 62.8414073,70.9383485 63.1,71.11 C63.3384731,71.274606 63.6202757,71.3650612 63.91,71.37 Z" id="Shape" fill="#FFFFFF"></path>
                    <path d="M71.91,73.11 C71.3865917,73.1176784 70.8667657,73.0225468 70.38,72.83 C69.9496537,72.6608033 69.5583435,72.405601 69.23,72.08 C68.920724,71.7656456 68.6790944,71.3912899 68.52,70.98 C68.3583061,70.5623185 68.2768815,70.1178761 68.28,69.67 C68.2764999,69.1993217 68.3577975,68.7318605 68.52,68.29 C68.6777836,67.8662127 68.9192443,67.4785152 69.23,67.15 C69.5518808,66.8163277 69.9402678,66.5539962 70.37,66.38 C70.8594415,66.1846136 71.3831067,66.0894017 71.91,66.1 C72.4336271,66.089655 72.953974,66.1848819 73.44,66.38 C73.8654642,66.5564978 74.2500946,66.8185911 74.57,67.15 C74.876829,67.4682032 75.1150787,67.8459991 75.27,68.26 C75.4307552,68.6849 75.5121046,69.1357117 75.51,69.59 C75.51,69.71 75.51,69.83 75.51,69.94 C75.5158875,70.0399133 75.5158875,70.1400867 75.51,70.24 L70.51,70.24 C70.5293544,70.6286234 70.7107139,70.9913424 71.01,71.24 C71.2931174,71.46828 71.6463194,71.5919007 72.01,71.59 C72.3136606,71.5891796 72.6124505,71.5136235 72.88,71.37 C73.1340127,71.2504667 73.3338731,71.0398995 73.44,70.78 L75.19,71.27 C74.9111478,71.8141774 74.4804036,72.265764 73.95,72.57 C73.3337735,72.9369803 72.627086,73.1240447 71.91,73.11 L71.91,73.11 Z M73.34,69 C73.3141744,68.6216145 73.1505132,68.2658292 72.88,68 C72.6085203,67.7495905 72.2490889,67.6166009 71.88,67.63 C71.5091326,67.6170604 71.1486824,67.7540315 70.88,68.01 C70.6117595,68.2774204 70.4485127,68.6323048 70.42,69.01 L73.34,69 Z" id="Shape" fill="#FFFFFF"></path>
                    <path d="M85.47,73 L84.87,72.37 C84.4992748,72.6163345 84.0951693,72.8082846 83.67,72.94 C83.2519215,73.0674895 82.8170822,73.1315356 82.38,73.13 C81.9072061,73.1369012 81.4378679,73.0484752 81,72.87 C80.6281886,72.7283887 80.2882595,72.5142334 80,72.24 C79.7385898,71.9837586 79.5311738,71.677735 79.39,71.34 C79.2560328,71.0233702 79.1847173,70.6837723 79.18,70.34 C79.1784895,70.078562 79.2190061,69.8185802 79.3,69.57 C79.3750594,69.3391557 79.482822,69.1202628 79.62,68.92 C79.7553159,68.7223204 79.9093607,68.5381363 80.08,68.37 C80.2513928,68.1968125 80.435216,68.0363851 80.63,67.89 C80.4766667,67.7033333 80.3433333,67.53 80.23,67.37 C80.1254644,67.225675 80.0350483,67.0716328 79.96,66.91 C79.8942445,66.7691857 79.8439506,66.6216569 79.81,66.47 C79.7937774,66.3170958 79.7937774,66.1629042 79.81,66.01 C79.7938335,65.6631322 79.8588944,65.3172819 80,65 C80.1262619,64.7269014 80.31054,64.4846098 80.54,64.29 C80.7841422,64.0865236 81.066267,63.9335644 81.37,63.84 C81.6936836,63.7390788 82.0309516,63.6884886 82.37,63.69 C82.6871886,63.689433 83.0031265,63.7297655 83.31,63.81 C83.6060013,63.8856956 83.8844883,64.0181468 84.13,64.2 C84.3649231,64.3768016 84.5592774,64.6018435 84.7,64.86 C84.8517914,65.1460349 84.9275465,65.4662722 84.92,65.79 C84.9268108,66.2500237 84.7905296,66.7008001 84.53,67.08 C84.2522345,67.4646195 83.9146195,67.8022345 83.53,68.08 L85,69.66 C85.1139414,69.3891812 85.2010256,69.1078324 85.26,68.82 C85.32773,68.4910072 85.3612417,68.15589 85.36,67.82 L87,67.82 C86.9994849,68.4009651 86.9221479,68.9793114 86.77,69.54 C86.6350176,70.0239941 86.4366317,70.4880154 86.18,70.92 L88.18,72.98 L85.47,73 Z M82.6,71.5 C83.0118879,71.4947484 83.4139443,71.3734383 83.76,71.15 L81.94,69.22 C81.7403947,69.3682922 81.562067,69.5432553 81.41,69.74 C81.2839183,69.9068188 81.2170592,70.1109152 81.22,70.32 C81.2213023,70.4646442 81.2519191,70.6075226 81.31,70.74 C81.3704048,70.8827671 81.4588128,71.0119787 81.57,71.12 C81.6948589,71.2390278 81.8406404,71.3339553 82,71.4 C82.191146,71.4736885 82.3952873,71.507712 82.6,71.5 L82.6,71.5 Z M81.69,65.91 C81.6899708,66.0475821 81.7357047,66.1812658 81.82,66.29 C81.9616761,66.4701627 82.1153592,66.6405505 82.28,66.8 C82.493769,66.6699628 82.6917552,66.5156007 82.87,66.34 C82.9954915,66.2081253 83.0637842,66.032002 83.06,65.85 C83.0685513,65.6809185 83.0028002,65.5165408 82.88,65.4 C82.7486085,65.2823704 82.5761378,65.221287 82.4,65.23 C82.2046983,65.2175854 82.0129324,65.2863317 81.87,65.42 C81.7415637,65.5499873 81.6727684,65.7274067 81.68,65.91 L81.69,65.91 Z" id="Shape" fill="#FFFFFF"></path>
                    <path d="M97.57,66.52 C97.4820621,66.4490588 97.3884098,66.385509 97.29,66.33 C97.1032338,66.2177844 96.9095081,66.1175814 96.71,66.03 C96.4635501,65.9216873 96.2095462,65.8314491 95.95,65.76 C95.6835344,65.6822574 95.4075686,65.6418721 95.13,65.64 C94.8407887,65.6218309 94.5525057,65.6878234 94.3,65.83 C94.1085274,65.954622 93.9980035,66.1718586 94.01,66.4 C94.0042636,66.5415119 94.0505037,66.6802323 94.14,66.79 C94.2426368,66.9079229 94.3686258,67.0032659 94.51,67.07 C94.6989631,67.1651242 94.8965122,67.2421348 95.1,67.3 L95.92,67.53 C96.3237507,67.6372973 96.721061,67.7675082 97.11,67.92 C97.4362329,68.04777 97.7400372,68.2266769 98.01,68.45 C98.2565256,68.6595675 98.4515521,68.9230243 98.58,69.22 C98.7210753,69.5621659 98.789194,69.9300065 98.78,70.3 C98.7942385,70.7540318 98.6945387,71.2043998 98.49,71.61 C98.3058134,71.9541275 98.0417578,72.2490467 97.72,72.47 C97.3864252,72.6971071 97.0133594,72.8598994 96.62,72.95 C96.2006059,73.0495363 95.7710439,73.0998756 95.34,73.1 C95.0051824,73.097284 94.670991,73.0705487 94.34,73.02 C94.0017525,72.9665325 93.6676182,72.8896817 93.34,72.79 C92.9996419,72.6944666 92.665646,72.577568 92.34,72.44 C92.0322392,72.3079997 91.7376032,72.1472891 91.46,71.96 L92.39,70.12 C92.4999319,70.2094036 92.6169884,70.289671 92.74,70.36 C92.9637883,70.4977164 93.1978077,70.6180692 93.44,70.72 C93.7419197,70.8488446 94.052723,70.9557876 94.37,71.04 C94.6958582,71.1298036 95.0320083,71.1768646 95.37,71.18 C96.1166667,71.18 96.49,70.9533333 96.49,70.5 C96.4953868,70.3392988 96.4338207,70.1835727 96.32,70.07 C96.1853547,69.9439144 96.0296701,69.8423809 95.86,69.77 C95.6330058,69.6698824 95.3990609,69.5863307 95.16,69.52 L94.28,69.26 C93.9064807,69.1480218 93.5420826,69.0076115 93.19,68.84 C92.9078861,68.7077062 92.6481045,68.5322692 92.42,68.32 C92.2179326,68.1304245 92.0607714,67.8980992 91.96,67.64 C91.8556537,67.3516263 91.8048207,67.046628 91.81,66.74 C91.8002646,66.2982375 91.8926646,65.8601929 92.08,65.46 C92.2530294,65.1007405 92.5021185,64.7834078 92.81,64.53 C93.1332549,64.2866427 93.49973,64.1067984 93.89,64 C94.3077373,63.8709991 94.7428087,63.8069188 95.18,63.81 C95.5155087,63.8063712 95.8505308,63.8365232 96.18,63.9 C96.4781844,63.9567342 96.772189,64.0335764 97.06,64.13 C97.329589,64.2205205 97.5934113,64.3273852 97.85,64.45 C98.1,64.57 98.32,64.69 98.52,64.81 L97.57,66.52 Z" id="Shape" fill="#FFFFFF"></path>
                    <path d="M101.7,73.11 C101.382942,73.1125203 101.067987,73.0583344 100.77,72.95 C100.223863,72.7554906 99.780012,72.3477247 99.54,71.82 C99.4169944,71.5502197 99.3555109,71.2564652 99.36,70.96 C99.3572047,70.6443446 99.4291665,70.3325102 99.57,70.05 C99.7147327,69.7716728 99.9197063,69.5291207 100.17,69.34 C100.447898,69.1348456 100.759138,68.9792254 101.09,68.88 C101.469026,68.7638982 101.863606,68.7065661 102.26,68.71 C102.538187,68.7088802 102.81593,68.7323044 103.09,68.78 C103.331745,68.8180724 103.567219,68.8887146 103.79,68.99 L103.79,68.68 C103.79,67.9 103.34,67.51 102.44,67.51 C102.078099,67.5088787 101.718981,67.5732489 101.38,67.7 C101.005763,67.8440888 100.649943,68.0320693 100.32,68.26 L99.7,67 C100.129385,66.7146558 100.597487,66.4923915 101.09,66.34 C101.58632,66.1914344 102.101929,66.1172946 102.62,66.12 C103.47114,66.0649406 104.313321,66.3207929 104.99,66.84 C105.574891,67.3799673 105.883748,68.1557877 105.83,68.95 L105.83,70.69 C105.815219,70.8432614 105.857994,70.9965397 105.95,71.12 C106.06442,71.2172691 106.209823,71.2704654 106.36,71.27 L106.36,73 C106.178693,73.0391068 105.994935,73.0658351 105.81,73.08 L105.37,73.08 C105.066593,73.0927624 104.766531,73.0125131 104.51,72.85 C104.311621,72.694184 104.179458,72.4691507 104.14,72.22 L104.14,71.91 C103.85306,72.2856069 103.483522,72.5901338 103.06,72.8 C102.638099,73.0109363 102.171638,73.117262 101.7,73.11 Z M102.3,71.63 C102.522073,71.6289134 102.742178,71.5882788 102.95,71.51 C103.142366,71.4425792 103.319206,71.3371552 103.47,71.2 C103.641815,71.0932524 103.753052,70.9115641 103.77,70.71 L103.77,70.07 C103.578707,69.9985265 103.381194,69.9449634 103.18,69.91 C102.985573,69.8720609 102.788084,69.8519774 102.59,69.85 C102.260542,69.8381578 101.935549,69.929016 101.66,70.11 C101.429492,70.2546909 101.289691,70.5078431 101.29,70.78 C101.283627,71.0157647 101.387072,71.2411277 101.57,71.39 C101.778289,71.5591464 102.042084,71.6447016 102.31,71.63 L102.3,71.63 Z" id="Shape" fill="#FFFFFF"></path>
                    <polygon id="Shape" fill="#FFFFFF" points="108.81 73 106.41 66.24 108.52 66.24 110 71.33 111.49 66.22 113.42 66.22 111 73"></polygon>
                    <path d="M117.41,73.11 C116.886592,73.1176784 116.366766,73.0225468 115.88,72.83 C115.449654,72.6608033 115.058344,72.405601 114.73,72.08 C114.415796,71.7733542 114.167405,71.4058715 114,71 C113.838306,70.5823185 113.756882,70.1378761 113.76,69.69 C113.7565,69.2193217 113.837798,68.7518605 114,68.31 C114.157784,67.8862127 114.399244,67.4985152 114.71,67.17 C115.031881,66.8363277 115.420268,66.5739962 115.85,66.4 C116.339441,66.2046136 116.863107,66.1094017 117.39,66.12 C117.913627,66.109655 118.433974,66.2048819 118.92,66.4 C119.345464,66.5764978 119.730095,66.8385911 120.05,67.17 C120.356829,67.4882032 120.595079,67.8659991 120.75,68.28 C120.910755,68.7049 120.992105,69.1557117 120.99,69.61 C120.99,69.73 120.99,69.85 120.99,69.96 C120.995887,70.0599133 120.995887,70.1600867 120.99,70.26 L115.99,70.26 C116.009354,70.6486234 116.190714,71.0113424 116.49,71.26 C116.773117,71.48828 117.126319,71.6119007 117.49,71.61 C117.793661,71.6091796 118.092451,71.5336235 118.36,71.39 C118.614013,71.2704667 118.813873,71.0598995 118.92,70.8 L120.67,71.29 C120.391148,71.8341774 119.960404,72.285764 119.43,72.59 C118.817542,72.9463907 118.118414,73.1263642 117.41,73.11 L117.41,73.11 Z M118.83,69 C118.804174,68.6216145 118.640513,68.2658292 118.37,68 C118.09852,67.7495905 117.739089,67.6166009 117.37,67.63 C116.999133,67.6170604 116.638682,67.7540315 116.37,68.01 C116.10176,68.2774204 115.938513,68.6323048 115.91,69.01 L118.83,69 Z" id="Shape" fill="#FFFFFF"></path>
                    <path d="M130.61,71.13 L130.61,73 L125,73 L125,71.13 L126.83,71.13 L126.83,67.84 C126.726253,67.9674099 126.601036,68.075706 126.46,68.16 C126.28408,68.2730298 126.100275,68.3732874 125.91,68.46 C125.71327,68.5504903 125.509201,68.6240887 125.3,68.68 C125.117531,68.7305454 124.929323,68.7574323 124.74,68.76 L124.74,66.85 C124.924042,66.8379487 125.104015,66.7904087 125.27,66.71 C125.494699,66.6127346 125.71195,66.4990955 125.92,66.37 C126.12117,66.2447716 126.314835,66.1078707 126.5,65.96 C126.626456,65.8710861 126.735018,65.7591314 126.82,65.63 L129,65.63 L129,71.13 L130.61,71.13 Z" id="Shape" fill="#FFFFFF"></path>
                    <path d="M138.25,69.21 C138.255614,69.7444958 138.167619,70.2758484 137.99,70.78 C137.832139,71.2337233 137.591391,71.6541851 137.28,72.02 C136.984805,72.3628179 136.620068,72.638927 136.21,72.83 C135.79036,73.0248242 135.332644,73.1238823 134.87,73.12 C134.410586,73.1237381 133.956156,73.0246517 133.54,72.83 C133.133841,72.6372109 132.77271,72.3612523 132.48,72.02 C132.168609,71.6541851 131.927861,71.2337233 131.77,70.78 C131.42633,69.7649675 131.42633,68.6650325 131.77,67.65 C131.927861,67.1962767 132.168609,66.7758149 132.48,66.41 C132.773133,66.0666275 133.133998,65.7874682 133.54,65.59 C133.954433,65.389249 134.409518,65.2865983 134.87,65.29 C135.333626,65.2871939 135.791828,65.3897766 136.21,65.59 C136.619903,65.7857982 136.98436,66.0651023 137.28,66.41 C137.591391,66.7758149 137.832139,67.1962767 137.99,67.65 C138.166471,68.1509893 138.254449,68.6788575 138.25,69.21 L138.25,69.21 Z M136.16,69.21 C136.182352,68.6988942 136.057396,68.1921268 135.8,67.75 C135.614738,67.4082587 135.258708,67.1938753 134.87,67.19 C134.478297,67.1923879 134.118594,67.4066795 133.93,67.75 C133.672604,68.1921268 133.547648,68.6988942 133.57,69.21 C133.545349,69.7213315 133.670464,70.2287419 133.93,70.67 C134.122728,71.0079478 134.480967,71.2175554 134.87,71.22 C135.256596,71.2181378 135.612124,71.0078797 135.8,70.67 C136.059536,70.2287419 136.184651,69.7213315 136.16,69.21 Z" id="Shape" fill="#FFFFFF"></path>
                    <path d="M141.49,67.69 C141.196518,67.6936833 140.904905,67.6428206 140.63,67.54 C140.372356,67.4406355 140.135104,67.2948948 139.93,67.11 C139.730007,66.9321498 139.569843,66.7140545 139.46,66.47 C139.347548,66.2253684 139.289545,65.9592396 139.29,65.69 C139.289715,65.4239941 139.347744,65.1611592 139.46,64.92 C139.571546,64.679836 139.731565,64.4653421 139.93,64.29 C140.135239,64.105286 140.372456,63.9595668 140.63,63.86 C141.188132,63.6532334 141.801868,63.6532334 142.36,63.86 C142.617346,63.9599659 142.854494,64.1056429 143.06,64.29 C143.258223,64.4655374 143.418206,64.6799838 143.53,64.92 C143.642256,65.1611592 143.700285,65.4239941 143.7,65.69 C143.700455,65.9592396 143.642452,66.2253684 143.53,66.47 C143.419897,66.7139027 143.259771,66.9319472 143.06,67.11 C142.854627,67.2945348 142.617444,67.4402327 142.36,67.54 C142.082017,67.6442798 141.786854,67.6951701 141.49,67.69 Z M140.18,72.26 L143.81,68.09 L147.11,63.72 L148.04,64.54 L144.52,68.61 L141.1,73.1 L140.18,72.26 Z M141.49,66.68 C141.709804,66.6794039 141.915335,66.5710328 142.04,66.39 C142.194133,66.1896607 142.275272,65.942715 142.27,65.69 C142.265933,65.4350092 142.170073,65.1900321 142,65 C141.873071,64.8280813 141.673647,64.7246764 141.46,64.72 C141.240619,64.7222815 141.035816,64.8302684 140.91,65.01 C140.756595,65.2068834 140.675406,65.4504505 140.68,65.7 C140.674728,65.952715 140.755867,66.1996607 140.91,66.4 C141.042855,66.586229 141.261544,66.691803 141.49,66.68 Z M146.72,73.11 C146.426537,73.113452 146.134966,73.0625967 145.86,72.96 C145.602456,72.8604332 145.365239,72.714714 145.16,72.53 C144.961565,72.3546579 144.801546,72.140164 144.69,71.9 C144.577433,71.6589462 144.519389,71.3960412 144.52,71.13 C144.519225,70.8607264 144.577243,70.5945295 144.69,70.35 C144.799843,70.1059455 144.960007,69.8878502 145.16,69.71 C145.365104,69.5251052 145.602356,69.3793645 145.86,69.28 C146.418132,69.0732334 147.031868,69.0732334 147.59,69.28 C147.847444,69.3797673 148.084627,69.5254652 148.29,69.71 C148.48955,69.8882531 148.64964,70.1062476 148.76,70.35 C148.872151,70.5947324 148.930138,70.8607943 148.93,71.13 C148.930285,71.3960059 148.872256,71.6588408 148.76,71.9 C148.646547,72.1390209 148.486796,72.3531554 148.29,72.53 C148.084494,72.7143571 147.847346,72.8600341 147.59,72.96 C147.311892,73.0638194 147.016817,73.1146945 146.72,73.11 Z M146.72,72.11 C146.939804,72.1094039 147.145335,72.0010328 147.27,71.82 C147.575054,71.4068779 147.575054,70.8431221 147.27,70.43 C147.147017,70.2499482 146.943044,70.1422566 146.725,70.1422566 C146.506956,70.1422566 146.302983,70.2499482 146.18,70.43 C146.025867,70.6303393 145.944728,70.877285 145.95,71.13 C145.942241,71.3830804 146.023648,71.6308417 146.18,71.83 C146.305895,72.0031255 146.505962,72.106864 146.72,72.11 L146.72,72.11 Z" id="Shape" fill="#FFFFFF"></path>
                </g>
            </g>
        </g>
    </g>
</svg>