<?xml version="1.0" encoding="utf-8"?>
<!-- Generator: Adobe Illustrator 21.1.0, SVG Export Plug-In . SVG Version: 6.00 Build 0)  -->
<svg version="1.1" id="Layer_1" xmlns="http://www.w3.org/2000/svg" xmlns:xlink="http://www.w3.org/1999/xlink" x="0px" y="0px"
	 viewBox="0 0 620 176" style="enable-background:new 0 0 620 176;" xml:space="preserve">
<style type="text/css">
	.st0{fill:#FFFFFF;}
</style>
<g>
	<path id="Shape" class="st0" d="M11.4,19.3h43.4c43.4,0,74.8,28,74.8,68.5s-30.9,68.5-74.8,68.5H11.4V19.3z M53.8,131.6
		c31.4,0,45.9-18.3,45.9-43.9S85.2,43.9,53.8,43.9h-13v87.8H53.8z"/>
	<path id="Shape_1_" class="st0" d="M148.6,69.9H177l-0.5,15.4c6.5-14,17-17.4,26.4-17.4c6,0,10.5,1.4,14,3.4l-9,25.1
		c-3.5-1.4-7-2.4-11-2.4c-13,0-20,5.8-20,24.1v38.6h-28.4V69.9L148.6,69.9z"/>
	<path id="Shape_2_" class="st0" d="M200.9,146.1c0-6.8,5.5-11.1,11.5-11.1s11.5,4.8,11.5,11.1c0,6.8-5.5,11.1-11.5,11.1
		S200.9,152.9,200.9,146.1"/>
	<path id="Shape_3_" class="st0" d="M333.6,17.4h2.5l65.3,139.3h-30.9l-6.5-15.4h-57.9l-6.5,15.4h-28.9L333.6,17.4z M353.6,117.2
		l-19-43.4l-18.5,43.4H353.6z"/>
	<polygon id="Shape_4_" class="st0" points="441.9,111.4 411.4,69.9 444.8,69.9 459.3,90.7 472.8,69.9 502.7,69.9 473.3,109 
		507.7,156.7 474.3,156.7 455.8,130.2 437.4,156.7 407.4,156.7 	"/>
	<path id="Shape_5_" class="st0" d="M564.1,135.5c10.5,0,18-3.9,22.4-6.8l16,16.9c-8.5,7.2-19.5,13-38.4,13
		c-31.9,0-52.4-18.8-52.4-45.3c0-26,21.4-44.8,49.4-44.8c31.9,0,49.4,23.1,47.4,53.5h-67.8C543.6,130.7,551.1,135.5,564.1,135.5
		L564.1,135.5z M580,106.1c-1.5-9.6-7.5-15.4-18.5-15.4c-11,0-18.5,4.8-20.9,15.4H580z"/>
</g>
</svg>
