<svg id="Layer_1" data-name="Layer 1" xmlns="http://www.w3.org/2000/svg" viewBox="0 0 1022.88 419.04"><defs><style>.cls-1{fill:#fff;}</style></defs><title>Hubble_white</title><path class="cls-1" d="M218.48,184.44c0.87,0.05,1.75.15,2.62,0.15q11,0,22.07,0H246v55H312V184.76h26.79c0.51,1.75.66,133.14,0.14,136.35H312.14c-0.22-3-.07-6.12-0.1-9.2s0-6.24,0-9.36V265.49c-2-.54-62.75-0.66-65.93-0.14,0,6.14,0,12.34,0,18.55s0,12.32,0,18.47v18.87h-27.6V184.44Z" transform="translate(-218.48 -51.48)"/><path class="cls-1" d="M1241.36,321.24c-1,0-2.08,0-3.12,0h-98.55c-0.54-1.82-.72-132.85-0.24-136.3,1.69-.48,97-0.65,100.63-0.18,0.52,1.68.7,21,.16,24.65-3.41.12-6.9,0-10.39,0.06s-7,0-10.56,0h-52.43c-0.55,1.93-.72,26.79-0.23,30.34,5.76,0.31,11.57.1,17.38,0.14s11.84,0,17.76,0h35.14v24.9h-70.37v31.28a17.32,17.32,0,0,0,1.88.21h72a7.69,7.69,0,0,0,.94-0.11v25Z" transform="translate(-218.48 -51.48)"/><path class="cls-1" d="M471.44,470.52a10.44,10.44,0,0,0-1.55-.5,30,30,0,1,1,9.15,0,16.51,16.51,0,0,0-1.83.48h-5.76Z" transform="translate(-218.48 -51.48)"/><path class="cls-1" d="M844.4,51.48c0.88,0.31,1.75.67,2.64,0.92a21.89,21.89,0,1,1-11.55.07c1.06-.3,2.1-0.66,3.15-1h5.76Z" transform="translate(-218.48 -51.48)"/><path class="cls-1" d="M610,184.73c0.92,0,1.7-.13,2.47-0.13,18,0,36-.07,54,0,8.74,0,17.4.91,25.77,3.68a43.62,43.62,0,0,1,11.79,5.8,30.41,30.41,0,0,1,12.23,17.79,36.46,36.46,0,0,1,0,19.66,29.78,29.78,0,0,1-15.93,18.84L698,251.51c1.09,0.49,1.86.83,2.63,1.19,9.93,4.66,16.8,12.06,19,22.91,2.73,13.23-.69,31.9-20.1,40.33a60.35,60.35,0,0,1-18.75,4.72c-4.53.41-9.1,0.58-13.65,0.6-18.08.07-36.15,0-54.23,0h-3V184.73Zm27.22,79.75v32.88h2.53c6.08,0,12.15,0,18.23,0,5,0,10.07,0,15.1-.11A28.38,28.38,0,0,0,684,294.91a12.83,12.83,0,0,0,7.51-8.51,19.89,19.89,0,0,0,0-10.89c-1.43-5.13-5.15-7.92-10-9.41a44.79,44.79,0,0,0-13.28-1.62H637.22Zm-0.1-24c0.76,0.07,1.3.17,1.84,0.17,9.67,0,19.35.11,29-.09a44.92,44.92,0,0,0,10.17-1.42c7.38-1.89,11.06-6.89,11.14-14.5,0.08-7.05-3.26-12-10-14.13a30.44,30.44,0,0,0-8.44-1.6c-10.71-.26-21.42-0.25-32.13-0.32a8.31,8.31,0,0,0-1.62.32v31.56Z" transform="translate(-218.48 -51.48)"/><path class="cls-1" d="M880.18,251.56c1.14,0.49,1.93.81,2.7,1.18,10.32,4.93,17.41,12.69,19.15,24.15,2.36,15.54-2.92,31.32-20.2,39a59.16,59.16,0,0,1-18.74,4.76c-4.45.41-8.94,0.59-13.41,0.61-18.16.07-36.31,0-54.47,0h-3V184.74c0.77-.05,1.47-0.14,2.16-0.14,18.16,0,36.31-.08,54.47,0,8.66,0.05,17.27.84,25.51,3.74a53.72,53.72,0,0,1,9.36,4.24c9.86,5.79,14.83,14.69,15.76,26A33.31,33.31,0,0,1,897.16,235a30,30,0,0,1-14.57,15.3C881.91,250.66,881.24,251,880.18,251.56Zm-60.8,13v32.65c0.95,0,1.73.11,2.52,0.11q7.43,0,14.86,0c5.91,0,11.82,0,17.73-.07a30.74,30.74,0,0,0,10.77-2c4.74-1.85,7.91-5.2,8.68-10.28a28.43,28.43,0,0,0,0-8.09c-0.64-4.6-3.39-7.84-7.61-9.77a24,24,0,0,0-3.37-1.22,45.81,45.81,0,0,0-12.81-1.45H821.9C821.12,264.48,820.34,264.55,819.38,264.59Zm0-24.14a9.92,9.92,0,0,0,1.17.17c10.23,0,20.45,0,30.68-.08a31.72,31.72,0,0,0,11-2c5.25-2,8.31-5.81,9-11.39a22,22,0,0,0,0-5.26,12.68,12.68,0,0,0-7.85-10.65,16.15,16.15,0,0,0-4.06-1.39,89.52,89.52,0,0,0-11.16-1.24c-8.78-.18-17.58-0.06-26.36-0.05-0.77,0-1.54.09-2.43,0.14v31.75Z" transform="translate(-218.48 -51.48)"/><path class="cls-1" d="M415.72,184.75H443v2.95q0,38.63,0,77.27a49,49,0,0,0,1,10.72c2.7,12.12,11.05,19.86,23.36,21.59a46.62,46.62,0,0,0,16.46-.41c11.59-2.5,18.73-9.59,21.23-21.13a51.5,51.5,0,0,0,1.06-10.7c0.09-25.75,0-51.51,0-77.26v-3H533.2c0.06,0.64.15,1.18,0.15,1.72,0,27.83.06,55.67-.08,83.5a57.18,57.18,0,0,1-6.56,26.77c-6.5,12.28-16.79,19.89-29.89,23.9-10.33,3.16-20.9,3.63-31.58,2.58a61.84,61.84,0,0,1-21.6-6c-13.79-6.83-22.15-18-25.9-32.74a70.1,70.1,0,0,1-2-17.34q0-40,0-79.9C415.72,186.51,415.72,185.73,415.72,184.75Z" transform="translate(-218.48 -51.48)"/><path class="cls-1" d="M974.24,321.17V185c1.75-.54,24.11-0.65,27-0.1V295.82H1073c0.68,1.91.82,22.63,0.23,25.35h-99Z" transform="translate(-218.48 -51.48)"/></svg>