<?xml version="1.0" encoding="utf-8"?>
<!-- Generator: Adobe Illustrator 16.0.0, SVG Export Plug-In . SVG Version: 6.00 Build 0)  -->
<!DOCTYPE svg PUBLIC "-//W3C//DTD SVG 1.1//EN" "http://www.w3.org/Graphics/SVG/1.1/DTD/svg11.dtd">
<svg version="1.1" id="Layer_1" xmlns="http://www.w3.org/2000/svg" xmlns:xlink="http://www.w3.org/1999/xlink" x="0px" y="0px"
	 width="612px" height="792px" viewBox="0 0 612 792" enable-background="new 0 0 612 792" xml:space="preserve">
<g>
	<g>
		<g>
			<path fill="#FFFFFF" d="M0,515V365.4h71.74v22.44h-45.9v38.42h34.34v22.44H25.84V515H0z"/>
			<path fill="#FFFFFF" d="M104.38,515H79.56l27.54-149.6h31.96L166.6,515h-24.82l-4.42-33.32h-28.22L104.38,515z M112.88,459.58
				h20.74l-10.2-64.26h-0.34L112.88,459.58z"/>
			<path fill="#FFFFFF" d="M216.58,515h-25.84V365.4h36.04c28.9,0,43.52,12.24,43.52,44.2c0,24.141-9.18,33.66-18.02,37.74
				L274.04,515H248.2l-18.36-61.88c-3.4,0.34-8.84,0.68-13.26,0.68V515z M216.58,432.38h9.18c13.94,0,19.04-5.1,19.04-23.12
				c0-17.68-5.1-23.12-19.04-23.12h-9.18V432.38z"/>
			<path fill="#FFFFFF" d="M402.56,365.4V515H380.12V398.04h-0.34L356.66,515h-12.58l-23.12-116.96h-0.34V515h-22.44V365.4h33.66
				l18.36,87.38h0.34l18.36-87.38H402.56z"/>
			<path fill="#FFFFFF" d="M431.46,515V365.4h68.68v22.44h-43.18v38.42h33.32v22.44h-33.32v43.859h46.24V515H431.46z"/>
			<path fill="#FFFFFF" d="M554.54,515H528.7V365.4h36.04c28.899,0,43.52,12.24,43.52,44.2c0,24.141-9.18,33.66-18.02,37.74L612,515
				h-26.18L567.8,453.12c-3.399,0.34-8.84,0.68-13.26,0.68V515z M554.54,432.38h9.18c13.94,0,19.04-5.1,19.04-23.12
				c0-17.68-5.1-23.12-19.04-23.12h-9.18V432.38z"/>
		</g>
		<g>
			<g>
				<path fill="#FFFFFF" d="M190.06,294.68h6.12c3.4-11.56,9.18-17.68,16.32-17.68c4.08,0,6.46,2.72,6.46,5.78
					c0,2.38-1.36,3.74-3.4,3.74c-2.38,0-3.74-1.36-3.74-3.4c0-1.7,1.02-2.72,1.02-3.4c0-0.68-0.34-1.02-1.36-1.02
					c-3.74,0-5.44,5.44-7.14,15.98h6.46v1.7H204c-2.38,10.88-3.74,18.7-5.44,23.12c-3.4,9.18-9.18,13.6-14.62,13.6
					c-4.42,0-6.8-2.72-6.8-5.78c0-2.38,1.36-3.74,3.4-3.74c2.38,0,3.74,1.36,3.74,3.4c0,1.7-1.02,2.72-1.02,3.4
					c0,0.68,0.34,1.02,1.36,1.02c5.78,0,5.44-11.56,11.22-35.02h-5.78V294.68L190.06,294.68z"/>
				<path fill="#FFFFFF" d="M211.48,319.5l5.44-23.12h-4.08v-1.7c4.42,0,8.84-0.34,13.26-1.02l-1.7,7.48
					c3.4-4.76,5.44-7.48,8.16-7.48c1.7,0,3.4,1.36,3.4,3.74s-1.7,3.74-3.74,3.74c-2.38,0-2.38-2.38-3.74-2.38
					c-1.7,0-5.1,4.08-6.46,10.2l-2.38,10.54H211.48z"/>
				<path fill="#FFFFFF" d="M255,293.66c7.14,0,11.9,4.42,11.9,10.88c0,8.16-8.16,15.64-18.36,15.64c-7.14,0-11.9-4.42-11.9-10.54
					C236.98,301.48,245.14,293.66,255,293.66z M248.54,300.8c-2.38,7.14-2.72,12.92-2.72,14.62c0,2.38,1.36,3.4,3.74,3.4
					c3.06,0,4.42-1.7,5.78-4.76c2.38-7.48,3.06-13.6,3.06-14.96c0-2.38-1.02-3.4-3.74-3.4C250.92,295.36,249.9,297.06,248.54,300.8z
					"/>
				<path fill="#FFFFFF" d="M269.96,319.5l5.44-23.12h-4.08v-1.7h1.36c3.74,0,7.14-0.34,11.22-0.68l-1.7,7.14
					c2.72-4.76,6.8-7.48,10.54-7.48c3.4,0,5.44,2.38,5.44,5.44c0,0.68,0,1.7-0.34,2.38c2.72-5.1,6.8-7.82,11.22-7.82
					c3.4,0,5.44,1.7,5.44,4.76c0,0.68,0,1.7-0.34,2.72l-3.74,14.62c0,0.34,0,0.34,0,0.68c0,0.68,0.34,1.02,1.021,1.02
					c1.359,0,3.399-2.04,5.439-6.8l1.36,0.68c-2.38,6.12-5.78,8.84-10.54,8.84c-3.06,0-5.1-1.7-5.1-4.42c0-0.68,0-1.7,0.68-3.4
					l3.399-13.26c0-0.68,0.34-1.02,0.34-1.36c0-0.68-0.34-1.02-1.02-1.02c-2.72,0-7.82,5.78-9.18,10.88l-2.72,12.24h-8.16l4.76-20.4
					c0-0.68,0-1.02,0-1.7c0-0.68-0.34-1.02-1.02-1.02c-2.04,0-7.48,4.42-9.52,12.92l-2.38,10.2h-7.82V319.5z"/>
				<path fill="#FFFFFF" d="M344.76,296.38h-3.06v-2.04h3.74l1.699-7.14c1.021,0,2.04,0,2.721,0c1.699,0,3.739-0.34,5.439-0.68
					l-1.7,7.48h3.74v1.7h-4.08l-4.42,18.7c0,0.34-0.34,0.68-0.34,1.02c0,0.68,0.34,1.02,1.02,1.02c1.7,0,3.74-2.38,5.78-6.8L357,311
					c-2.04,5.78-5.78,9.18-10.54,9.18c-3.74,0-5.78-1.7-5.78-4.42c0-0.34,0-1.7,0.34-3.06L344.76,296.38z"/>
				<path fill="#FFFFFF" d="M364.14,279.38v-1.7h1.7c4.08,0,7.82-0.34,11.9-0.68l-5.78,24.14c3.4-5.1,6.8-7.48,10.88-7.48
					c3.74,0,6.12,1.7,6.12,4.76c0,0.68,0,1.36-0.34,2.04l-3.74,14.96c0,0.34,0,0.68,0,1.02c0,0.68,0.34,1.02,1.021,1.02
					c1.359,0,3.739-2.04,5.439-6.8l1.36,0.68c-2.04,6.12-5.44,8.84-10.54,8.84c-3.4,0-5.101-1.7-5.101-4.42
					c0-0.68,0.341-2.04,0.681-3.4l2.72-11.56c0.34-1.7,0.68-2.72,0.68-2.72c0-1.02-0.68-1.36-1.359-1.36
					c-2.04,0-7.82,5.44-8.84,10.2l-3.061,12.92h-8.5l9.18-40.12h-4.42V279.38z"/>
				<path fill="#FFFFFF" d="M403.58,315.42c0,2.04,1.02,3.06,3.74,3.06c4.42,0,9.18-2.72,12.92-7.48l1.02,1.02
					c-4.42,5.44-8.84,8.16-14.279,8.16c-7.48,0-11.9-4.42-11.9-10.2c0-3.74,1.7-7.82,5.1-10.88c3.74-3.4,8.16-5.44,12.92-5.44
					c5.78,0,9.181,3.06,9.181,6.8c0,5.1-4.761,8.16-12.92,8.16c-1.36,0-2.721,0-4.08-0.34C403.92,312.02,403.58,314.4,403.58,315.42
					z M407.66,306.92c5.1,0,7.479-3.06,7.479-8.16c0-2.38-1.02-3.4-3.399-3.4c-3.4,0-4.42,3.74-6.46,11.56
					C405.96,306.92,406.98,306.92,407.66,306.92z"/>
			</g>
		</g>
	</g>
</g>
</svg>
