<?xml version="1.0" encoding="utf-8"?>
<!-- Generator: Adobe Illustrator 21.1.0, SVG Export Plug-In . SVG Version: 6.00 Build 0)  -->
<svg version="1.1" id="Layer_1" xmlns="http://www.w3.org/2000/svg" xmlns:xlink="http://www.w3.org/1999/xlink" x="0px" y="0px"
	 viewBox="0 0 440 124" style="enable-background:new 0 0 440 124;" xml:space="preserve">
<style type="text/css">
	.st0{fill:#FFFFFF;}
</style>
<title>Humankind logo</title>
<desc>Created with Sketch.</desc>
<g id="Mobile-Final_1_">
</g>
<g id="Humankind-logo_1_">
	<path id="Outline_1_" class="st0" d="M75,120.8c-17.4,0.3-34.9,0.1-52.2,2.3c-3.9,0.5-8,1-11.7-0.5c-9.9-3.9-11.2-22.5-10.8-34.1
		c0.6-16,1.1-33,1.7-49c0.3-10.1,1-21,7-28.6c9.5-12.1,26.6-7.4,41.2-7.5C86.4,3.2,114.8,4.7,163,10c47.9,5.5,96.1-5.7,144.2-8.7
		c34.2-2.2,68.4-0.3,102.6,1.6c9,0.5,19.3,1.7,24.8,9.6c4,5.8,4.2,13.5,4.3,20.7c0.3,24.6,0.5,53.6,0.8,78.3
		c-4.4,18.6-164.5,9.9-235.8,6.9C159.1,118.7,128.8,119.4,75,120.8z M206.8,110.7c34.2-1.7,76.1,1.6,115.5,1
		c43-0.7,97.8-3.6,97.8-3.6c2.2-0.1,4.5-0.3,6.2-1.8c2.2-2,2.5-5.6,2.5-8.7c0.3-18.5,0.1-41.5-0.8-60c-0.3-6.1-0.8-12.7-4.4-17.4
		c-3.8-4.9-10-6.4-15.8-7.5C324.9-2.1,240.4,28,156.6,21.2C112.9,17.6,68.9,4.1,25.8,13c-15.1,2-17.1,63.9-8.1,93.8
		c0.6,2.1,1.4,4.3,3.1,5.6c1.5,1.1,3.5,1.2,5.3,1.2c17.8,0.1,50.5-6.3,111.7-4.5C154.3,108.8,185.8,111.8,206.8,110.7z"/>
	<path id="Humankind_1_" class="st0" d="M182.3,89.5c0.8,0.3,0.5,0.8-0.1,1.1c-0.6,0.8-1.5,1.2-2.4,1.5c-1.5,0.5-3,0.7-4.6,0.9
		c-3.1,0.3-5-0.7-6.2-3.5c-1.3-3.1-1.3-6.4-1.1-9.6c0.3-5.2,1-10.4,1.7-15.6c0.2-1.6,0.4-3.1,0.6-4.7c0.1-0.9-0.1-1.7-0.5-2.5
		c-0.2-0.4-0.5-0.9-1.1-0.9c-0.5,0-0.8,0.5-1,0.9c-1.7,2.9-2.8,6-3.9,9.2c-1.6,4.6-2.9,9.2-3.5,14c-0.2,1.6-0.4,3.1,0,4.7
		c0.2,0.5,0.3,1.1,0.8,1.5c0.9,0.8,0.3,1-0.4,1.2c-3.3,0.8-6.7,1.3-10.2,1.3c-1.3,0-2-0.8-2.5-1.8c-0.5-1.3-0.7-2.6-0.7-4
		c0.1-7.5,0.7-14.9,0.8-22.4c0-1.3-0.2-2.7-0.3-4.1c0-0.3,0-0.7-0.4-0.8c-0.4-0.1-0.6,0.3-0.8,0.6c-1.3,2.1-2,4.4-2.7,6.6
		c-2.7,8.6-4.8,17.5-6.3,26.4c-0.1,1-0.2,2.1-0.3,3.1c0,0.6-0.3,0.8-0.9,0.8c-3.2-0.2-6.5-0.3-9.5-1.6c-1.7-0.7-2.6-1.9-2.5-3.8
		c0.1-0.8,0.1-1.5,0.1-2.2c-2,2.5-4.9,5.1-8.8,4.6c-3.8-0.4-5.6-3-6.5-5.7c0,0.1-0.1,0.1-0.1,0.1c-0.1-0.3-0.1-0.6-0.2-0.9
		c-0.5-2.3-0.6-4.5-0.6-5.7c-0.1-1.9-0.1-3.8-0.1-5.7c-1,3.7-2,7.4-3.5,10.9c-1,2.3-2.2,4.5-4.2,6.3C98.9,91,97.2,91.8,95,92
		c-2,0.1-3.5-0.7-4.7-2.1c-2.3-2.9-3.2-6.1-3.9-9.4c-0.9-4.3-1-8.7-0.6-13c0.3-3.9,0.8-7.8,1.2-11.7c0.1-1.2,1.1-2,2.4-1.8
		c3.8,0.5,6.2,1.9,7.4,5.5c0.5,1.4,0.7,3,0.6,4.5c-0.3,4.2-0.5,8.5-0.5,12.7c0,1.8,0.1,3.6,0.3,5.4c0,0.5-0.1,1.3,0.6,1.4
		c0.7,0.1,1-0.6,1.3-1c1.3-1.8,2.2-3.7,3-5.7c2.9-6.9,5.1-14,6.6-21.3c0.1-0.8,0.2-1.7,0.4-2.6c0.1-0.4,0.3-0.7,0.9-0.7
		c2.1,0.1,4.2,0.1,6.3,0.6c2.9,0.7,4.1,2.2,3.9,4.8c-0.5,6.1-1.2,12.1-1.7,18.2v0.3c-0.1,1.6-0.4,9.1,1.8,8.8
		c2.5-0.3,3.6-2.6,4.4-5.9c0.2-6,0.4-12,0.6-18c0-1.1,0-2.2-0.2-3.3c-0.1-0.8-0.3-1.6-0.9-2.1c-0.7-0.7-0.3-1.1,0.3-1.4
		c2.7-1.4,5.7-2,8.7-1.6c2,0.3,3,1.9,3.6,3.6c0.8,2.5,0.7,5.1,0.4,7.6c-0.3,2.8-0.7,5.7-1,8.5c1.1-4.2,2.2-8.4,4-12.5
		c1-2.3,2.3-4.5,4-6.4c1.4-1.6,3.1-2.8,5.2-3.3c3.3-0.8,5.8,0.2,7.5,3c1.8,3.1,2.1,6.5,1.8,9.9c-0.1,1.3-0.1,2.6-0.4,3.9
		c0.5-1.4,1-2.8,1.6-4.2c1.8-4.2,4-8.2,7.7-11.3c2.8-2.3,6-3.2,9.6-2.7c3.1,0.4,4.9,2.5,4.9,5.5c0,2.8-0.5,5.6-0.8,8.4
		c-0.3,3.4-0.8,6.7-1.1,10.1c-0.3,3.1-0.6,6.2-0.7,9.3c-0.1,1.4,0.1,2.8,0.4,4.2C180.3,87.6,180.7,88.9,182.3,89.5z M402.4,94.5
		c0.7,0.2,0.4,0.7,0.4,1c-0.3,0.8-1,1.3-1.7,1.7c-3.8,1.8-9.2,1.9-11.1-4.4c-1-3.3-1-6.8-0.7-10.2c0.1-1.5,0.3-3,0.4-4.5h-0.2
		c-0.6,1.7-1.2,3.5-1.9,5.3c-0.8,2.2-2,4.3-3.6,6.1c-3,3.4-9.4,4.6-12.8,1.6c-2.2-2-3.6-4.5-4.1-7.3c-1.4-8.6-0.6-16.8,3.7-24.5
		c3.3-6,8.8-9.1,15.5-10c1.2-0.2,2.4-0.4,3.6-0.3c0.9,0.1,1.1-0.3,1.2-1.1c0.2-2.7,0-5.4,0.6-8.1c0.5-2,1.2-3.8,2.6-5.4
		c2.7-3.1,9-1.6,10.5,1.6c0.4,0.8,0.6,1.4-0.5,1.8c-1.1,0.3-1.4,1.3-1.8,2.2c-0.8,2-0.8,4.1-0.9,6.2c-0.4,6.9-0.8,13.8-1.2,20.7
		c-0.3,5-0.5,9.9-0.8,14.9c-0.2,2.9-0.4,5.8,0.2,8.7C400.1,92.2,400.6,93.8,402.4,94.5z M383.4,81.3c4.2-7.8,7.5-15.8,7.2-24.9
		c0.1-1.8,0.1-1.8-1.6-1.7c-0.4,0-0.9,0.1-1.3,0.2c-3.1,1-4.9,3.4-6.1,6.2c-2.7,6.1-3.3,12.5-3.1,19c0.1,1.1,0.2,2.1,0.7,3.1
		c0.5,1.1,1.1,1.3,2.1,0.6C382.2,83.2,382.9,82.3,383.4,81.3z M262.8,92.6c1.1,0.5,1.1,1,0.4,2c-1.4,1.2-3,1.9-4.8,2.2
		c-3.4,0.6-6-0.7-7.5-3.9c-1.4-2.8-1.6-5.8-1.5-8.8c0.1-3.4,0.2-6.9,0.3-10.3c0.2-5.5,0.4-10.9,0.8-16.3c0.1-0.6,0-1.2,0-1.8
		c-0.1-0.5-0.1-1.2-0.7-1.4c-0.7-0.2-1.1,0.3-1.5,0.8c-0.7,0.9-1.3,1.9-1.8,3c-2.1,4.7-3.5,9.6-4.8,14.6c-1.7,6.3-3.1,12.6-3.7,19.1
		c-0.1,0.7-0.3,0.9-1,0.8c-3.2-0.5-6.3-1.1-9.2-2.7c-2.5-1.3-3.2-2.6-2.9-5.3c-1.9,2.6-5.2,5.2-10.6,4.6c-3.8-0.4-5.6-2.9-6.5-5.7
		c-0.1,0.1-0.1,0.1-0.1,0.1c0-0.2-0.1-0.5-0.1-0.7c-0.6-2.3-0.7-4.6-0.7-5.9c-0.1-1.9-0.1-3.8-0.1-5.7c-1,3.7-2,7.4-3.5,10.9
		c-1,2.3-2.2,4.5-4.2,6.3c-1.5,1.3-3.2,2.1-5.4,2.3c-2,0.1-3.5-0.7-4.7-2.1c-2.9-3.6-4.1-8.5-4.5-13c-0.6-7.2,0.5-16.4,5.9-21.7
		c2.9-2.8,6.9-4.1,10.9-3.9c5.3,0.2,5.9,4.8,5.9,5c0.1-0.3,0.1-0.6,0.2-0.9c0.1-0.8,0.2-1.7,0.4-2.6c0.1-0.4,0.3-0.7,0.9-0.7
		c2.1,0.1,4.2,0.1,6.3,0.6c2.9,0.7,4.1,2.2,3.9,4.8c-0.5,6.1-1.2,12.1-1.7,18.2v0.3c-0.1,1.5-0.4,8.2,1.8,8.8c3.9,1,6.1-4.3,6.9-9
		c0.1-1.8,0.2-3.5,0.2-5.3c0-2.1,0-4.3-0.4-6.5c-0.3-1.7-1-3-2.9-3.3c-0.7-0.1-0.6-0.4-0.4-0.9c0.4-0.7,1-1.3,1.7-1.8
		c2.6-2,5.6-3.3,8.8-3.9c2.6-0.5,3.6,0.4,3.8,3.1c0.4,4.9,0.1,9.9,0.2,14.9V72c1.1-3.4,2-6.8,3.1-10.1c1.4-4,3-7.9,5.6-11.3
		c2.7-3.5,6.2-5.5,10.6-5.8c1.7-0.2,2.8,0.7,3.6,2c1.5,2.4,1.8,5.1,1.9,7.9c0.1,4.7-0.4,9.4-0.6,14.1c-0.2,6.1-0.8,12.2-0.6,18.3
		c0,1.3,0.3,2.5,0.8,3.7C261.6,91.5,262,92.2,262.8,92.6z M204.6,65c0.8-4.2,0.6-11.6-4.3-9.8c-2.6,1-3.9,4.3-4.5,6.9
		c-1,4.6-1.1,9.1-0.9,13.8c0,1,0.5,5.9,1.7,6.2c0.6,0.1,1.7-1.1,2-1.5c1.2-1.8,2.4-4.1,3-6.2C202.9,70.1,203.5,68.5,204.6,65z
		 M364.6,90.8c1,0.5,1.1,0.9,0.7,1.6c-1.4,1.1-3,1.8-4.8,2.1c-3.4,0.5-6-0.7-7.5-3.7c-1.4-2.6-1.6-5.4-1.5-8.2
		c0.2-4.8,0.6-7.3,0.8-12c0.1-1.7,0.9-12.1-1.5-12.8c-0.7-0.2-1.1,0.4-1.5,0.8c-0.7,0.8-1.3,1.8-1.8,2.8c-2.1,4.4-2.5,5.8-3.8,10.5
		c-1.7,5.9-3.1,11.8-3.7,17.9c-0.1,0.7-0.3,0.9-1,0.8c-3.2-0.5-6.3-1-9.2-2.5c-2.2-1-3-2.1-3-4c-2.2,3.3-5.9,6.9-11.7,6.4
		c-3.8-0.3-5.6-2.9-6.5-5.7h-0.1c0-0.1-0.1-0.3-0.1-0.5c-0.6-2.1-0.7-4.3-0.7-5.7v-4.1c-0.9,3.7-1.9,6.4-3.4,9.9
		c-1.8,5.7-8.2,7.9-10.9,7.9c-7.2-0.2-11.7-8-14.3-13.2v16h-0.5c-4.1,0-10.5-2.6-10.5-9.7c0-22.8-0.1-38.1,1.3-47.2
		c0.1-1,0.1-1.9-0.1-2.9c-0.1-0.6-0.3-1.3-0.8-1.8c-0.7-0.6-0.3-0.9,0.2-1.2c2.3-1.2,4.9-1.8,7.5-1.4c1.7,0.3,2.6,1.6,3.1,3.1
		c0.8,2.1,0.5,5.2,0.3,7.4c-0.5,4.9-0.6,11.7-0.6,20.7v3.2c3.1-3.2,7.1-8.5,11-13.6l0.2-0.3c1.2-1.2,2.2-1.7,3.1-1.7
		c1.4,0,6.3,2,6.4,4.7v0.1v0.1c-2.3,5.5-9.7,12.4-14.1,16.6l-0.6,0.5c2.6,6.6,6.7,13.8,10.7,12.9c3.6-0.8,4.9-5.1,5.8-7.5
		c2.4-7.5,5.1-14,6.6-21.3c0.1-0.8,0.2-1.7,0.4-2.6c0.1-0.4,0.3-0.7,0.9-0.7c2.1,0.1,4.2,0.1,6.3,0.6c2.9,0.7,4.1,2.2,3.9,4.8
		c-0.5,6.1-1.2,12.1-1.7,18.2v0.2c-0.1,1.3-0.5,8.3,1.7,8.9c2.3,0.7,5.7-1.6,8-11.2c0.1-1.7,0.2-3.3,0.2-5c0-2,0-4.1-0.4-6.1
		c-0.3-1.6-1-2.8-2.9-3.1c-0.7-0.1-0.6-0.5-0.4-0.9c0.4-0.7,1-1.2,1.7-1.7c2.6-1.8,5.6-3,8.8-3.6c2.6-0.5,3.6,0.3,3.8,2.9
		c0.4,4.7,0.1,9.3,0.2,14v1c3.3-9.2,6.4-21.5,18.3-22.3c4.5-0.3,5.3,6.1,5.6,9.4c0.8,9-0.6,18-0.2,27.1c0,1.1,0.3,2.3,0.8,3.4
		C363.4,89.8,363.8,90.4,364.6,90.8z M82.2,21.4c1.5-0.3,1.7,0.2,1.7,1.3c-0.3,2.5-0.6,5-0.8,7.5c-1.2,13.2-1.5,26.4-2.3,39.7
		c-0.4,6.8-0.7,13.5-3.3,20.1c-2.3,5.9-5,8.6-11.3,10.4c-2.4,0.6-2.6,0.4-2.5-1.9c0.4-8.8,0.2-17.5,0.9-26.3
		c0.1-1.1-0.3-1.6-1.5-1.4c-3,0.5-6,0.8-8.9,0.8c-1.3-0.1-1.7,0.5-1.9,1.7c-1,5.7-1.8,11.5-3.4,17.2c-0.8,3.1-1.8,6.2-3.7,9
		c-1.3,1.9-2.9,2.8-5,2.7c-1.9-0.1-4.3-0.9-4.3-0.9c-1.1-0.6-1.2-1.7-1.1-2.9c0.5-4.8,1.3-7.8,1.8-12.6l0.1-1.8
		c0.4-4.6,0.8-9.3,1.3-14c0.1-1.1-0.2-1.8-1.1-2.5c-2.9-2.2-3.3-5.5-1.4-9c0.5-0.8,1-1.2,1.9-0.9c1.5,0.6,1.8-0.2,1.9-1.6
		c0.3-4.1,0.7-8.2,1.1-12.3c0.5-5.6,1.4-14.1,6.8-16.4c2.2-0.9,4.5-1.4,6.8-2c1.8-0.5,2,0.3,2,1.8c-0.2,8-1.4,22.6-2.1,30.5
		c-0.3,2.9-0.3,2.9,2.5,2.8c2.3-0.1,4.6-0.4,6.9-0.5c1.5-0.1,2.1-0.7,2.2-2.2c0.3-4.2,0.7-8.5,1.2-12.7c0.4-3.7,1-7.3,1.4-11
		c0.6-5.5,2.5-7.7,7.4-10.2C77.7,22.7,79.9,21.9,82.2,21.4z M409.3,89.5c0.3,0,0.6,0.2,0.6,0.8c0,1.4-1.8,2.7-3.8,2.7
		c-2.5,0-3.8-1.3-3.8-3c0-2.5,1.8-3.9,3.9-3.9c1.8,0,2.8,1.5,2.8,2.8c0,1.8-1.3,2.3-2,2.3c-0.8,0-1.2-0.5-1.4-0.8
		c-0.1,0.4-0.2,0.6-0.2,0.7c-0.3,0-0.6-0.1-0.6-0.3c0-0.3,0.4-1.5,0.6-2.3c-0.5,0.3-0.7,0.7-0.8,0.9c0-0.1-0.1-0.1-0.1-0.2
		c0-0.7,0.4-1.1,1.1-1.3v-0.4c0,0,0.5,0,0.6,0.3h0.1c0.7,0,1.2,0.5,1.2,0.9c0,0.7-0.7,1.1-1.5,1.2c0.2,0.4,0.6,0.8,1,0.8
		c0.4,0,0.9-0.7,0.9-1.9c0-0.8-0.3-2-1.7-2s-2.5,1.7-2.5,3.1c0,1.1,0.8,2,2.4,2C407.8,91.9,409.3,90.5,409.3,89.5z M406.2,88.1
		c-0.1,0.4-0.2,0.9-0.3,1.3c0.8-0.1,1-0.6,0.9-1C406.7,88.2,406.4,88.1,406.2,88.1z"/>
	<path id="Combined-Shape_1_" class="st0" d="M320.4,36.8c1.1-1.8,3.5-2.6,5.5-1.9c2,0.6,3.5,2.5,4,4.5c0.1,0.4,0.2,0.8,0.1,1.3
		c-0.1,1.9-1.7,3.5-3.5,4.3c-1.8,0.8-3.8,0.9-5.7,1.3s-3.9,1.1-5,2.7c-0.2-1.8-1.2-3.5-2.4-4.9c-1.2-1.4-2.5-2.7-3.5-4.2
		s-1.6-3.4-1.2-5.2c0.2-0.9,0.8-1.8,1.4-2.5c1-1.2,2.3-2.5,3.9-2.4c1,0.1,1.9,0.6,2.7,1.2c1,0.7,1.9,1.5,2.6,2.5
		C320,34.5,320.4,35.7,320.4,36.8L320.4,36.8z M312.5,22l-0.4-0.1c0.9,0.5,1.2,1.6,1.1,2.6s-0.7,1.9-1.4,2.6
		c-0.7,0.7-1.7,1.3-2.7,1.2c-0.8-0.1-1.5-0.7-1.9-1.4c-0.2-0.3-0.4-0.8-0.4-1.2c0-0.9,0.3-1.7,0.8-2.4c0.5-0.8,1.3-1.5,2.2-1.9
		S311.9,21.2,312.5,22z M321,20.7l0.8,0.5c0.5,0.1,0.7,0.8,0.8,1.4c0.1,1,0.2,2-0.1,2.9c-0.3,0.7-0.7,1.4-1.2,2
		c-0.5,0.7-1.1,1.4-1.9,1.6c-0.7,0.2-1.5,0-2.1-0.4s-1.1-1.1-1.5-1.7c-0.4-0.7-0.7-1.5-0.6-2.3c0.1-0.7,0.4-1.2,0.8-1.7
		c0.4-0.6,0.9-1.1,1.4-1.6s1.1-0.9,1.7-1.1C319.8,20.1,320.5,20.2,321,20.7z M328.7,24.3l-1.5-0.4c1.1-0.1,2.3,0.6,2.8,1.6
		s0.5,2.2,0.1,3.3s-1.1,2-1.9,2.8c-0.6,0.5-1.3,1.1-2.1,1c-0.6,0-1.1-0.4-1.6-0.8c-0.5-0.4-1-0.9-1.2-1.5c-0.1-0.4-0.1-0.8-0.1-1.2
		c0.2-1.4,1-2.7,2-3.8c0.5-0.5,1-1,1.6-1.2C327.4,23.9,328.2,23.9,328.7,24.3z M334.2,30.5l-0.3-0.5c0.8,0.4,1.5,0.9,2.1,1.6
		c0.5,0.7,0.9,1.5,0.9,2.4c-0.1,1.2-0.8,2.3-1.6,3.2c-0.3,0.4-0.7,0.8-1.1,0.9c-0.6,0.2-1.2,0-1.7-0.4c-1.2-0.9-1.9-2.3-1.8-3.7
		c0.1-1.4,0.9-2.8,2.1-3.5c0.2-0.2,0.4-0.3,0.7-0.3C333.8,30.2,334.1,30.3,334.2,30.5z"/>
</g>
</svg>
