<?xml version="1.0" encoding="utf-8"?>
<!-- Generator: Adobe Illustrator 19.2.1, SVG Export Plug-In . SVG Version: 6.00 Build 0)  -->
<svg version="1.1" id="Layer_1" xmlns="http://www.w3.org/2000/svg" xmlns:xlink="http://www.w3.org/1999/xlink" x="0px" y="0px"
	 viewBox="0 0 218.9 259.9" style="enable-background:new 0 0 218.9 259.9;" xml:space="preserve">
<path d="M195.7,90.8L130,52.9c-0.4-0.2-0.8-0.3-1.2-0.3c-0.4,0-0.8,0.1-1.2,0.3L62.2,90.7c-0.1,0.1-0.2,0.1-0.2,0.1h-0.1l-0.4,0.1
	c-0.7,0.5-1.4,1.3-1.4,2.1v76.1c0,0.8,0.6,1.7,1.4,2.1l66.1,38.1c0.4,0.2,0.8,0.3,1.2,0.3c0.4,0,1.2-0.1,1.6-0.3l66.2-38.1
	c0.8-0.4,1.9-1.3,1.9-2.1V93c0-0.9-1.2-1.6-1.9-2.1L195.7,90.8z M128.8,57.8l21.5,12.4l-60.8,35.1L68,92.9L128.8,57.8z M127.7,203.1
	l-61.2-35.3V96.9l19.2,12.7v24.6l3.4-1.4l5.9,6h5l1.9,2.8v-23.8l25.8,14.5C127.7,132.3,127.7,203.1,127.7,203.1z M128.8,128.1
	l-26.2-15.2l60.8-35.1L189.6,93L128.8,128.1z M192.1,167.7L130.9,203v-70.8l61.2-35.3V167.7z"/>
<path d="M210.4,213.9c-45.3,45.3-119.1,45.3-164.4,0S0.7,94.8,46,49.5c36.6-36.6,92.1-44.2,136.7-20.4l-11.2,18.4
	c-0.2,0.3-0.2,0.7,0,1c0.2,0.2,0.5,0.4,0.8,0.4h0.1l44.8-5.8c0.3,0,0.6-0.2,0.7-0.4c0.2-0.2,0.2-0.5,0.1-0.8L201.8,0.6
	C201.7,0.3,201.4,0,201,0c-0.3-0.1-0.7,0.1-0.9,0.4l-11.2,18.4C139.6-7.8,78,0.6,37.5,41.1c-50,50-50,131.3,0,181.3
	c25,25,57.8,37.5,90.6,37.5c32.9,0,65.7-12.5,90.8-37.6L210.4,213.9z"/>
</svg>
