<?xml version="1.0" encoding="utf-8"?>
<!-- Generator: Adobe Illustrator 19.2.1, SVG Export Plug-In . SVG Version: 6.00 Build 0)  -->
<svg version="1.1" id="Layer_1" xmlns="http://www.w3.org/2000/svg" xmlns:xlink="http://www.w3.org/1999/xlink" x="0px" y="0px"
	 viewBox="0 0 1077.8 277.1" style="enable-background:new 0 0 1077.8 277.1;" xml:space="preserve">
<style type="text/css">
	.st0{fill:#FFFFFF;}
</style>
<g>
	<path class="st0" d="M208.7,97.1l-70-40.4c-0.4-0.2-0.9-0.3-1.3-0.3s-0.9,0.1-1.3,0.3L66.3,97h-0.1c-0.1,0-0.2,0.1-0.2,0.1h-0.1
		l-0.4,0.1c-0.8,0.5-1.5,1.3-1.5,2.2v81.1c0,0.9,0.7,1.7,1.5,2.2l70.5,40.5c0.4,0.2,0.9,0.3,1.3,0.3s1.2-0.1,1.8-0.3l70.6-40.5
		c0.8-0.4,2-1.3,2-2.2V99.4c0-0.9-1.2-1.7-2-2.2L208.7,97.1z M137.3,61.7l22.9,13.2l-64.8,37.4L72.5,99.1L137.3,61.7z M136.1,216.5
		l-65.2-37.6H71v-75.4L91.6,117v26.2l3.6-1.5l6.2,6.3h5.3l2,3v-25.4l27.4,15.4V216.5z M137.3,136.5l-28-16.1L174.2,83l27.9,16.1
		L137.3,136.5z M204.7,178.9l-65.2,37.6V141l65.2-37.6V178.9z"/>
	<path class="st0" d="M49,228.2C0.7,179.9,0.7,101.3,49,53c39-39,98.2-47.2,145.7-21.9l-11.9,19.6c-0.2,0.4-0.2,0.8,0,1.1
		c0.2,0.2,0.5,0.4,0.8,0.4c0,0,0.1,0,0.2,0.1l47.7-6.3c0.3-0.1,0.5-0.2,0.7-0.5s0.2-0.6,0.1-0.9L215,0.6c-0.2-0.3-0.5-0.6-0.9-0.6
		c-0.3-0.1-0.7,0.2-0.9,0.5l-11.9,19.6C148.8-8.3,83.1,0.7,40,43.9c-53.3,53.3-53.3,139.9,0,193.2c26.6,26.7,61.6,40,96.6,40
		c34.9,0,69.9-13.4,96.6-39.9l-9-9C175.9,276.5,97.3,276.5,49,228.2z"/>
</g>
<g>
	<path class="st0" d="M389.2,145c2.9-2,5.4-4.4,7.5-7.3c2.1-2.8,3.7-6.1,4.9-9.7s1.8-7.4,1.8-11.4c0-4.1-0.8-8.2-2.4-12.3
		c-1.5-4.1-3.8-7.7-6.6-10.9s-6.2-5.8-10.1-7.8c-3.9-2-8.2-3-12.9-3h-45.7v108.2h10.7v-39.9h32l25.4,39.9h12L379.3,149
		C383,148.3,386.3,147,389.2,145z M336.3,141.4V91.9h34.4c3,0,5.8,0.7,8.5,2c2.7,1.4,5,3.2,7,5.4s3.5,4.8,4.7,7.8s1.8,6.2,1.8,9.4
		s-0.5,6.3-1.5,9.3c-1,2.9-2.5,5.6-4.3,7.9c-1.8,2.4-4,4.2-6.6,5.6c-2.6,1.4-5.5,2.1-8.6,2.1H336.3z"/>
	<path class="st0" d="M489.6,122.2c-3.4-3.8-7.6-6.7-12.4-8.9s-10.1-3.3-15.9-3.3c-5.7,0-10.9,1.1-15.8,3.3
		c-4.9,2.1-9.1,5.1-12.6,8.8s-6.2,8-8.2,12.9c-2,5-3,10.2-3,15.8c0,5.7,1,11,3,16s4.7,9.4,8.3,13.2s7.8,6.8,12.6,9
		s10.1,3.3,15.9,3.3c3.8,0,7.5-0.5,11.1-1.4s6.8-2.3,9.8-4.1s5.6-3.9,7.8-6.3c2.3-2.4,4-5,5.2-8l-9-2.4c-0.9,2.2-2.3,4.1-4,5.9
		c-1.7,1.8-3.7,3.3-5.8,4.5s-4.5,2.2-7,2.9c-2.5,0.8-5.1,1.1-7.6,1.1c-3.9,0-7.5-0.7-10.9-2.2s-6.5-3.6-9.1-6.2
		c-2.7-2.7-4.8-5.8-6.5-9.4c-1.7-3.6-2.7-7.5-3-11.8h68c0-0.3,0.1-0.9,0.1-1.7v-2.4c0-5.5-1-10.7-2.9-15.6
		C495.7,130.3,493.1,126,489.6,122.2z M432.3,146.9c0.3-4.2,1.2-8,2.8-11.6c1.5-3.5,3.6-6.6,6.2-9.1c2.6-2.6,5.6-4.6,9.1-6
		s7.1-2.1,11-2.1s7.5,0.7,10.9,2.1c3.4,1.5,6.4,3.4,9,6s4.7,5.6,6.4,9.1c1.7,3.4,2.7,7.3,3,11.6H432.3z"/>
</g>
<g>
	<path class="st0" d="M574.3,100.3c14.4,0,26.8,7.9,33.4,19.6l15.8-8.5c-9.8-17.3-28.1-29.1-49.3-29.1c-31.3,0-56.8,25.5-56.8,56.8
		s25.5,56.8,56.8,56.8c19.9,0,37.4-10.4,47.6-25.9l-15.2-9.7c-6.9,10.3-18.8,17.4-32.3,17.4c-21.4,0-38.7-17.4-38.7-38.7
		C535.6,117.6,553,100.3,574.3,100.3z"/>
	<path class="st0" d="M710.5,119.3c-1.8-3-4.4-5.3-7.6-7.1s-7.4-2.7-12.6-2.7c-6.1,0-11.7,1.4-16.7,4.2c-5.1,2.8-9.1,6.8-12,12V79.5
		h-20.4v111.3h20.4v-46.6c0.8-2.4,1.9-4.7,3.4-6.7c1.5-2.1,3.2-3.8,5-5.3s3.8-2.6,5.8-3.4s4-1.2,5.8-1.2c4.3,0,7.6,1.5,9.9,4.5
		s3.5,7.6,3.5,13.9v44.8h20.4v-49.9c0-4-0.4-7.8-1.1-11.6C713.6,125.6,712.3,122.2,710.5,119.3z"/>
	<path class="st0" d="M807.5,167.3v-24.8c0-10.7-3.1-18.9-9.5-24.5c-6.3-5.6-15.2-8.4-26.7-8.4c-11.8,0-22.9,3.4-33.2,10.2l6.2,12.9
		c4.3-2.9,8.4-5.2,12.5-6.7c4.1-1.6,8.2-2.3,12.5-2.3c5.8,0,10.3,1.5,13.3,4.3c3,2.9,4.5,6.9,4.5,12.2v4.6c-2.7-1.1-5.7-2-9.1-2.6
		s-6.9-0.9-10.4-0.9c-5,0-9.5,0.6-13.7,1.9c-4.2,1.3-7.8,3-10.8,5.3c-3,2.2-5.3,4.9-7,8.1c-1.7,3.2-2.5,6.6-2.5,10.4
		c0,3.7,0.7,7.1,2.1,10.1c1.3,3,3.2,5.7,5.7,8c2.5,2.2,5.4,4,8.7,5.3c3.3,1.3,6.9,1.9,10.8,1.9c5.8,0,11.3-1.2,16.2-3.6
		c5.1-2.5,9.4-6,13-10.7l0.5,4.4c0.5,2.9,1.8,5.2,3.9,6.9s5,2.6,8.9,2.6c2.5,0,5.5-0.4,9-1.1v-17.4c-1.8-0.1-3-0.6-3.8-1.5
		C807.9,171,807.5,169.4,807.5,167.3z M787.1,164.9c0,2.1-1.2,4.1-3.4,5.8c-1.7,2-4.1,3.7-7.2,4.9s-6.4,1.8-9.8,1.8
		c-3.8,0-7.1-1.2-9.7-3.3c-2.7-2.3-4-5.1-4-8.6c0-3.7,1.6-6.7,5-9.1c3.4-2.4,7.7-3.6,13-3.6c2.6,0,5.3,0.2,8.2,0.8
		c2.8,0.5,5.5,1.3,7.9,2.2V164.9z"/>
	<path class="st0" d="M880.1,110.2c-0.5-0.2-1.1-0.2-1.6-0.2H876c-2.1,0-4.3,0.4-6.6,1.3c-2.3,0.8-4.6,2.1-6.8,3.7
		c-2.2,1.6-4.3,3.5-6.2,5.7s-3.6,4.7-5,7.4V111h-18.7v79.8h20.4v-48.3c2.1-4.6,5.6-8,10.5-10.3s10.4-3.5,16.6-3.6h-0.1L880.1,110.2
		L880.1,110.2z"/>
	<path class="st0" d="M957.2,124.9c-3.1-4.7-6.9-8.4-11.6-11.2s-10.1-4.2-16.3-4.2c-5.5,0-10.5,1-15.1,3.2c-4.5,2.1-8.5,5-11.7,8.8
		c-3.2,3.7-5.8,8.1-7.6,13.1c-1.9,4.9-2.8,10.3-2.8,16.1c0,5.5,0.9,10.7,2.6,15.6c1.7,4.9,4.2,9.2,7.4,12.9
		c3.1,3.7,6.9,6.7,11.3,8.8c4.3,2.1,9.2,3.2,14.6,3.2c5.5,0,10.6-1.2,15.6-3.7c4.8-2.5,8.5-6,11.1-10.6v10c0,3.9-0.6,7.3-1.9,10.1
		c-1.2,2.8-3,5.2-5.2,7s-4.8,3.1-7.7,4c-2.9,0.9-6,1.3-9.1,1.3c-5.2,0-10.1-1-14.7-3.2c-4.6-2.1-8.4-5-11.5-8.8l-11.1,10.8
		c4.3,5.3,9.4,9.4,15.3,12.3s13.3,4.4,22,4.4c6.4,0,12.3-0.9,17.7-2.6c5.4-1.8,10.1-4.3,14-7.5c3.9-3.3,6.9-7.2,9.2-11.9
		c2.2-4.7,3.3-10,3.3-15.9v-76h-17.8L957.2,124.9L957.2,124.9z M954.4,161.4c-0.7,1.8-1.7,3.6-3,5.2c-1.3,1.7-2.9,3.1-4.6,4.3
		s-3.6,2.2-5.6,2.9s-4.2,1.1-6.4,1.1c-3.1,0-6-0.6-8.7-1.8c-2.6-1.2-4.9-2.8-6.9-5s-3.6-4.7-4.7-7.5s-1.7-5.8-1.7-9.1
		c0-3.1,0.5-6.2,1.4-9.1c1-3,2.4-5.6,4.2-7.9c1.9-2.3,4.1-4.1,6.6-5.5s5.3-2.1,8.5-2.1c4.3,0,8.4,1.5,12.3,4.3
		c3.9,2.9,6.8,6.6,8.6,11.3L954.4,161.4L954.4,161.4z"/>
	<path class="st0" d="M1075,134.9c-1.9-5-4.6-9.3-8.2-13.1s-8-6.8-13.1-9c-5.2-2.3-11-3.4-17.5-3.4s-12.4,1.2-17.6,3.4
		c-5.2,2.3-9.6,5.3-13.3,9.1c-3.7,3.8-6.5,8.3-8.4,13.3c-1.9,5.1-2.9,10.4-2.9,16.1c0,5.5,1,10.7,3,15.7s4.9,9.3,8.5,13.1
		c3.7,3.7,8.1,6.7,13.3,8.9c5.2,2.2,11,3.3,17.4,3.3c9,0,16.7-1.9,22.8-6.1c6.4-3.9,11.2-8.9,14.1-15l-17.5-4.9
		c-1.3,3.3-3.8,5.9-7.4,7.9s-7.4,3-11.5,3c-2.6,0-5.2-0.5-7.6-1.4s-4.6-2.3-6.5-4c-1.9-1.7-3.5-3.8-4.7-6.2s-2-5.2-2.3-8.4h61.7
		c0.2-0.8,0.3-1.8,0.4-3s0.1-2.5,0.1-3.8C1077.8,145,1076.9,139.9,1075,134.9z M1057,144.1h-41.5c0.2-3,0.9-5.7,2.1-8.1
		c1.2-2.4,2.7-4.5,4.5-6.2s3.9-3,6.3-4s5-1.5,7.7-1.5c5.6,0,10.4,1.8,14.3,5.4C1054.3,133.3,1056.5,138.1,1057,144.1L1057,144.1z"/>
</g>
</svg>
